<svg width="700" height="400" viewBox="0 0 700 400" fill="none" xmlns="http://www.w3.org/2000/svg">
<g clip-path="url(#clip0_1_2)">
<ellipse cx="413.636" cy="174.927" rx="190.909" ry="174.927" fill="#92D8FF"/>
<path d="M63.6364 174.927C63.6364 158.825 76.6893 145.773 92.7909 145.773H98.1182C114.22 145.773 127.273 158.825 127.273 174.927C127.273 191.029 114.22 204.082 98.1182 204.082H92.7909C76.6893 204.082 63.6364 191.029 63.6364 174.927Z" fill="#92D8FF"/>
<path d="M127.273 256.56C127.273 240.458 140.326 227.405 156.427 227.405H161.755C177.856 227.405 190.909 240.458 190.909 256.56C190.909 272.661 177.856 285.714 161.755 285.714H156.427C140.326 285.714 127.273 272.661 127.273 256.56Z" fill="#92D8FF"/>
<path d="M0 93.2945C0 77.1929 13.0529 64.1399 29.1545 64.1399H34.4818C50.5834 64.1399 63.6364 77.1929 63.6364 93.2945C63.6364 109.396 50.5834 122.449 34.4818 122.449H29.1545C13.0529 122.449 0 109.396 0 93.2945Z" fill="#92D8FF"/>
<path d="M95.4545 93.2945C95.4545 77.1929 108.507 64.1399 124.609 64.1399H413.636V122.449H124.609C108.507 122.449 95.4545 109.396 95.4545 93.2945Z" fill="#92D8FF"/>
<path d="M159.091 174.927C159.091 158.825 172.144 145.773 188.245 145.773H413.636V204.082H188.245C172.144 204.082 159.091 191.029 159.091 174.927Z" fill="#92D8FF"/>
<path d="M222.727 256.56C222.727 240.458 235.78 227.405 251.882 227.405H413.636V285.714H251.882C235.78 285.714 222.727 272.661 222.727 256.56Z" fill="#92D8FF"/>
<rect x="636.364" width="63.6364" height="102.624" rx="30" fill="#92D8FF"/>
<rect x="636.364" y="123.615" width="63.6364" height="102.624" rx="30" fill="#92D8FF"/>
<rect x="636.364" y="247.23" width="63.6364" height="102.624" rx="30" fill="#92D8FF"/>
<rect x="454.364" y="197.085" width="19.0909" height="116.618" fill="black"/>
<rect x="222.727" y="197.085" width="19.0909" height="116.618" fill="black"/>
<rect x="269.818" y="19.8251" width="159.091" height="204.082" rx="10" fill="url(#paint0_linear_1_2)"/>
<path d="M267.163 225.88C268.887 224.598 270.978 223.907 273.126 223.907H425.02C427.522 223.907 429.932 224.844 431.776 226.534L448.131 241.519C454.856 247.681 450.496 258.892 441.375 258.892H252.956C243.323 258.892 239.259 246.61 246.992 240.865L267.163 225.88Z" fill="url(#paint1_linear_1_2)"/>
<path d="M245.636 249.563H449.273V262.886C449.273 268.409 444.796 272.886 439.273 272.886H255.636C250.114 272.886 245.636 268.409 245.636 262.886V249.563Z" fill="url(#paint2_linear_1_2)"/>
<rect x="333.455" y="272.886" width="31.8182" height="58.309" fill="black"/>
<rect x="269.818" y="331.195" width="159.091" height="11.6618" fill="black"/>
<ellipse cx="266" cy="354.519" rx="6.36364" ry="11.6618" fill="black"/>
<ellipse cx="269.818" cy="354.519" rx="6.36364" ry="11.6618" fill="black"/>
<ellipse cx="273.636" cy="354.519" rx="6.36364" ry="11.6618" fill="black"/>
<ellipse cx="343.636" cy="354.519" rx="6.36364" ry="11.6618" fill="black"/>
<ellipse cx="347.455" cy="354.519" rx="6.36364" ry="11.6618" fill="black"/>
<ellipse cx="351.273" cy="354.519" rx="6.36364" ry="11.6618" fill="black"/>
<ellipse cx="425.091" cy="354.519" rx="6.36364" ry="11.6618" fill="black"/>
<ellipse cx="428.909" cy="354.519" rx="6.36364" ry="11.6618" fill="black"/>
<ellipse cx="432.727" cy="354.519" rx="6.36364" ry="11.6618" fill="black"/>
<path d="M266 159.184C272.109 136.793 299.091 130.418 311.818 130.029V146.356C309.909 146.744 303.291 149.155 292.091 155.685C280.891 162.216 300.576 188.727 311.818 201.166L292.091 211.662C280.849 203.499 259.891 181.574 266 159.184Z" fill="url(#paint3_linear_1_2)"/>
<path d="M436.545 159.767C430.436 137.376 403.455 131.001 390.727 130.612V146.939C392.636 147.327 399.255 149.738 410.455 156.268C421.655 162.799 401.97 189.31 390.727 201.749L410.455 212.245C421.697 204.082 442.655 182.157 436.545 159.767Z" fill="url(#paint4_linear_1_2)"/>
<path d="M311.818 116.122C311.818 110.6 316.295 106.122 321.818 106.122H380.727C386.25 106.122 390.727 110.6 390.727 116.122V222.741H311.818V116.122Z" fill="url(#paint5_linear_1_2)"/>
<path d="M334.727 106.122H366.545L359.386 164.431L358.591 222.741H342.682L341.886 164.431L334.727 106.122Z" fill="white"/>
<path d="M339.818 99.4606C339.818 96.6992 342.057 94.4606 344.818 94.4606H356.455C359.216 94.4606 361.455 96.6992 361.455 99.4606V106.122H339.818V99.4606Z" fill="url(#paint6_linear_1_2)"/>
<path d="M332.926 100.292L345.173 108.653L340.611 117.762L328.364 105.902L332.926 100.292Z" fill="black"/>
<path d="M368.611 100.292L356.364 108.653L360.926 117.762L373.173 105.902L368.611 100.292Z" fill="black"/>
<ellipse cx="350.636" cy="113.703" rx="4.45455" ry="4.08163" fill="url(#paint7_linear_1_2)"/>
<path d="M349.364 120.117H351.273L354.455 169.679V219.242L351.273 225.656L347.455 219.242L347.136 169.679L349.364 120.117Z" fill="url(#paint8_linear_1_2)"/>
<ellipse cx="350.636" cy="74.6356" rx="19.7273" ry="23.3236" fill="#F4CFBA"/>
<ellipse cx="369.727" cy="74.6356" rx="3.18182" ry="5.8309" fill="#F4CFBA"/>
<ellipse cx="369.727" cy="74.6356" rx="3.18182" ry="5.8309" fill="#F4CFBA"/>
<ellipse cx="331.545" cy="74.6356" rx="3.18182" ry="5.8309" fill="#F4CFBA"/>
<ellipse cx="331.545" cy="74.6356" rx="3.18182" ry="5.8309" fill="#F4CFBA"/>
<path d="M331.673 69.5044C331.673 68.0704 331.673 66.6364 331.673 65.2025C331.673 64.4172 331.651 63.629 331.673 62.8442C331.727 60.8528 333.73 59.504 335.378 58.4904C337.694 57.0658 340.248 56.0257 342.618 54.7068C345.22 53.2597 347.488 52.3568 350.566 52.4911C352.819 52.5894 354.977 53.6287 357.113 54.2404C358.717 54.6996 360.823 55.503 362.077 56.5598C363.467 57.7321 364.91 58.9891 365.259 60.7451C365.538 62.1551 366.442 63.1021 367.422 64.2566C367.681 64.5616 367.999 65.3947 368.186 65.7855C368.416 66.2675 368.836 66.8843 368.836 67.4052" stroke="black" stroke-width="5" stroke-linecap="round"/>
<path d="M330.909 60.6414C330.909 59.0463 332.618 58.6059 332.691 57.0651C332.764 55.5351 333.709 54.3854 333.709 52.828C333.709 51.3475 335.224 51.5657 336.622 51.5452C338.477 51.518 340.547 51.6199 342.364 51.2601C343.749 50.9856 345.15 51.0787 346.578 51.0787C348.484 51.0787 351.092 50.6446 352.913 51.312C355.174 52.1405 357.834 52.2449 360.238 52.2449C362.232 52.2449 364.226 52.2449 366.22 52.2449C367.521 52.2449 370.873 51.5224 370.873 53.1908C370.873 54.4908 370.051 55.7398 369.911 57.091C369.76 58.5557 369.916 60.4059 369.487 61.8076C369.131 62.969 369.091 63.956 369.091 65.1636C369.091 65.643 369.091 66.1224 369.091 66.6019C369.091 66.711 369.091 65.5552 369.091 65.2932C369.091 63.5676 369.486 61.3751 368.525 59.8121C367.846 58.7069 366.881 57.6839 365.909 56.793C365.104 56.0553 364.525 55.9691 363.434 55.7953C362.79 55.6926 362.12 55.8297 361.483 55.7046C360.851 55.5805 360.272 55.0506 359.644 54.8364C355.347 53.3701 350.724 52.4211 346.182 52.2319C343.178 52.1068 340.287 51.0787 337.273 51.0787C335.793 51.0787 334.03 50.8022 332.691 51.4156C331.279 52.0626 331.927 54.5286 331.927 55.7434C331.927 56.6542 331.996 57.5956 331.899 58.5034C331.761 59.7953 331.164 60.973 331.164 62.274C331.164 63.5957 331.164 64.9174 331.164 66.2391" stroke="black" stroke-width="5" stroke-linecap="round"/>
<path d="M244.364 278.717C247.418 259.125 291.455 233.236 313.091 222.741H384.364C400.655 217.143 438.667 257.726 455.636 278.717L473.455 358.017L427.636 365.015C428.061 330.029 413.382 260.058 351.273 260.058C291.2 245.131 276.182 328.474 276.182 372.012L231.636 365.015C234.606 344.412 241.309 298.309 244.364 278.717Z" fill="url(#paint9_linear_1_2)"/>
<path d="M232.198 377.561C234.941 375.473 237.58 372.856 238.017 369.495C239.031 369.399 239.833 368.566 240.867 368.516C241.641 368.478 241.856 368.822 242.542 368.996C243.695 369.29 244.783 369.418 245.905 369.861C248.706 370.967 251.777 371.251 254.672 372.071C256.921 372.707 258.816 373.694 260.822 374.884C263.299 376.355 263.412 377.749 263.412 380.347C263.412 383.559 263.673 386.918 262.905 390.064C262.477 391.816 262.261 393.085 261.188 394.621C260.533 395.559 258.971 396.176 258.036 396.872C254.283 399.665 249.746 398.656 245.23 398.656C242.507 398.656 239.812 398.424 237.095 398.409C233.039 398.387 228.897 398.656 224.866 398.148C221.966 397.783 219.066 397.392 216.155 397.119C214.412 396.956 212.174 396.713 210.526 396.131C208.265 395.332 205.635 395.383 203.461 394.429C202.546 394.027 202.364 393.35 202.364 392.48C202.364 389.58 204.029 387.122 204.672 384.3C204.965 383.014 205.835 381.485 206.473 380.32C207.201 378.988 209.786 379.065 211.089 379.153C212.358 379.238 213.853 380.012 215.114 380.32C216.549 380.67 217.98 380.622 219.448 380.622C223.599 380.622 228.781 380.162 232.198 377.561Z" fill="url(#paint10_linear_1_2)"/>
<path d="M218.909 381.574C218.909 383.771 220.655 386.241 222.572 387.457C224.983 388.987 227.465 389.038 230.251 389.038C231.664 389.038 234.028 389.42 235.398 388.882C237.12 388.206 238.568 386.816 239.414 385.306C240.148 383.996 240.166 380.397 239.64 379.022C239.218 377.916 237.659 375.51 236.218 375.51" stroke="black" stroke-linecap="round"/>
<path d="M245.891 398.367C249.066 398.367 252.559 396.406 255.111 394.713C255.741 394.295 256.264 393.86 256.78 393.34C257.291 392.825 258.235 392.739 258.873 392.355C259.656 391.883 260.77 392.043 261.673 391.837" stroke="black" stroke-linecap="round"/>
<path d="M471.62 377.909C468.877 375.741 466.239 373.023 465.801 369.533C464.787 369.433 463.985 368.568 462.951 368.516C462.177 368.477 461.962 368.834 461.277 369.015C460.123 369.32 459.035 369.453 457.913 369.913C455.112 371.061 452.041 371.356 449.146 372.208C446.897 372.869 445.002 373.893 442.996 375.129C440.519 376.656 440.407 378.105 440.407 380.802C440.407 384.138 440.145 387.626 440.913 390.893C441.341 392.712 441.557 394.03 442.63 395.625C443.285 396.599 444.848 397.24 445.782 397.963C449.535 400.864 454.072 399.816 458.589 399.816C461.312 399.816 464.007 399.575 466.723 399.559C470.779 399.536 474.921 399.815 478.952 399.288C481.852 398.909 484.753 398.502 487.663 398.219C489.406 398.05 491.645 397.798 493.292 397.193C495.553 396.363 498.183 396.416 500.357 395.426C501.272 395.009 501.455 394.305 501.455 393.402C501.455 390.391 499.79 387.838 499.147 384.907C498.854 383.572 497.983 381.984 497.345 380.774C496.617 379.391 494.033 379.471 492.729 379.562C491.461 379.651 489.965 380.454 488.705 380.774C487.269 381.137 485.838 381.087 484.37 381.087C480.219 381.087 475.037 380.61 471.62 377.909Z" fill="url(#paint11_linear_1_2)"/>
<path d="M466.582 374.577C466.582 375.002 466.371 375.159 466.129 375.51C465.644 376.215 465.502 377.334 465.168 378.128C464.691 379.261 464.761 380.562 464.602 381.756C464.468 382.764 464.068 383.716 464.036 384.736C463.992 386.195 463.757 387.168 465.507 387.716C467.001 388.184 468.958 388.422 470.513 388.623C472.174 388.838 473.695 389.271 475.378 389.271C477.108 389.271 477.956 388.412 479.168 387.302C480.503 386.078 481.855 383.495 481.855 381.808" stroke="black" stroke-linecap="round"/>
<path d="M441.636 392.77C443.593 393.487 446.55 393.003 448.622 393.003C449.724 393.003 450.541 392.865 451.436 393.469C451.992 393.844 452.642 394.378 453.261 394.636C454.794 395.274 455.609 396.794 457.107 397.383C458.192 397.809 458.545 398.62 459.709 398.834" stroke="black" stroke-linecap="round"/>
<path d="M222.303 197.085H471.758L572.727 255.394H127.273L222.303 197.085Z" fill="#B88400"/>
<rect x="127.273" y="255.394" width="445.455" height="17.4927" fill="url(#paint12_linear_1_2)"/>
<rect x="127.273" y="272.886" width="19.0909" height="116.618" fill="black"/>
<rect x="553.636" y="272.886" width="19.0909" height="116.618" fill="black"/>
<path d="M274.273 183.09H424.455L407.273 241.399H292.727L274.273 183.09Z" fill="#DCDCDC"/>
<path d="M368.591 212.828C368.591 220.499 360.669 226.905 350.636 226.905C340.604 226.905 332.682 220.499 332.682 212.828C332.682 205.157 340.604 198.751 350.636 198.751C360.669 198.751 368.591 205.157 368.591 212.828Z" fill="#DCDCDC" stroke="black"/>
</g>
<defs>
<linearGradient id="paint0_linear_1_2" x1="349.364" y1="19.8251" x2="349.364" y2="223.907" gradientUnits="userSpaceOnUse">
<stop stop-color="#FF2E11"/>
<stop offset="1" stop-color="#991B0A"/>
</linearGradient>
<linearGradient id="paint1_linear_1_2" x1="352.545" y1="258.892" x2="354.999" y2="203.911" gradientUnits="userSpaceOnUse">
<stop stop-color="#FF2E11"/>
<stop offset="1" stop-color="#991B0A"/>
</linearGradient>
<linearGradient id="paint2_linear_1_2" x1="347.455" y1="193.586" x2="347.455" y2="313.703" gradientUnits="userSpaceOnUse">
<stop stop-color="#FF2E11"/>
<stop offset="1" stop-color="#991B0A"/>
</linearGradient>
<linearGradient id="paint3_linear_1_2" x1="288.362" y1="130.029" x2="288.362" y2="211.662" gradientUnits="userSpaceOnUse">
<stop/>
<stop offset="1" stop-color="#666666"/>
</linearGradient>
<linearGradient id="paint4_linear_1_2" x1="414.183" y1="130.612" x2="414.183" y2="212.245" gradientUnits="userSpaceOnUse">
<stop/>
<stop offset="1" stop-color="#666666"/>
</linearGradient>
<linearGradient id="paint5_linear_1_2" x1="351.273" y1="208.163" x2="353.41" y2="34.3973" gradientUnits="userSpaceOnUse">
<stop/>
<stop offset="1" stop-color="#666666"/>
</linearGradient>
<linearGradient id="paint6_linear_1_2" x1="344.909" y1="100.292" x2="409.309" y2="77.7734" gradientUnits="userSpaceOnUse">
<stop stop-color="#F4CFBA"/>
<stop offset="1" stop-color="#8E786C"/>
</linearGradient>
<linearGradient id="paint7_linear_1_2" x1="350.636" y1="109.621" x2="350.636" y2="117.784" gradientUnits="userSpaceOnUse">
<stop stop-color="#92D8FF"/>
<stop offset="1" stop-color="#588299"/>
</linearGradient>
<linearGradient id="paint8_linear_1_2" x1="350.795" y1="120.117" x2="350.795" y2="225.656" gradientUnits="userSpaceOnUse">
<stop stop-color="#92D8FF"/>
<stop offset="1" stop-color="#588299"/>
</linearGradient>
<linearGradient id="paint9_linear_1_2" x1="323.273" y1="393.003" x2="353.321" y2="195.07" gradientUnits="userSpaceOnUse">
<stop/>
<stop offset="1" stop-color="#666666"/>
</linearGradient>
<linearGradient id="paint10_linear_1_2" x1="182" y1="355.102" x2="247.547" y2="396.831" gradientUnits="userSpaceOnUse">
<stop stop-color="#330903"/>
<stop offset="1" stop-color="#991B0A"/>
</linearGradient>
<linearGradient id="paint11_linear_1_2" x1="523.727" y1="353.353" x2="453.709" y2="395.879" gradientUnits="userSpaceOnUse">
<stop stop-color="#330903"/>
<stop offset="0.87" stop-color="#991B0A"/>
</linearGradient>
<linearGradient id="paint12_linear_1_2" x1="353.712" y1="216.327" x2="354.274" y2="311.96" gradientUnits="userSpaceOnUse">
<stop stop-color="#B88400"/>
<stop offset="1" stop-color="#523B00"/>
</linearGradient>
<clipPath id="clip0_1_2">
<rect width="700" height="400" fill="white"/>
</clipPath>
</defs>
</svg>
