<svg width="1920" height="1920" viewBox="0 0 1920 1920" fill="none" xmlns="http://www.w3.org/2000/svg">
<g clip-path="url(#clip0_18_2)">
<rect width="1920" height="1920" fill="#212528"/>
<g filter="url(#filter0_f_18_2)">
<ellipse cx="1626.95" cy="139.224" rx="68.1818" ry="75" transform="rotate(34.6676 1626.95 139.224)" fill="#696C00"/>
<path d="M1665.65 165.984C1644.05 197.212 1604.37 205.674 1577.34 186.984C1550.32 168.295 1544.23 128.178 1565.83 96.9511C1587.43 65.7238 1627.11 57.2618 1654.13 75.9513C1681.16 94.6408 1687.24 134.757 1665.65 165.984Z" fill="#BCC000" stroke="#E1E600" stroke-width="15"/>
<path d="M1598.72 159.397C1595.18 156.869 1592.36 153.634 1590.26 149.693C1589.47 148.135 1588.87 146.473 1588.45 144.709C1586.88 145.41 1585.21 145.852 1583.45 146.035C1582.03 146.064 1581.25 146.068 1581.11 146.048L1579.13 144.683L1589.51 129.681L1592.67 131.865C1591.67 134.991 1591.18 138.071 1591.18 141.107C1591.22 147.907 1593.8 153.073 1598.9 156.604C1599.53 157.041 1599.95 157.288 1600.14 157.344L1614.06 137.21L1611.91 132.567C1609.87 128.2 1608.33 124.526 1607.28 121.543C1606.31 118.544 1605.9 115.377 1606.03 112.041C1606.24 108.69 1607.46 105.409 1609.68 102.198C1611.47 99.6184 1613.78 97.7938 1616.62 96.7238C1619.55 95.6376 1622.88 95.4903 1626.61 96.2819C1630.38 97.0208 1634.37 98.8464 1638.58 101.759L1642.13 96.6265L1644.5 98.2647L1640.79 103.634C1643.37 106.199 1645.21 108.831 1646.3 111.53C1646.91 112.89 1647.37 114.256 1647.67 115.628C1649.51 114.878 1651.18 114.436 1652.67 114.302C1654.09 114.273 1654.87 114.268 1655.01 114.289L1656.99 115.654L1646.61 130.656L1643.45 128.471C1644.46 125.435 1645.02 122.551 1645.12 119.819C1645.25 117.034 1644.88 114.364 1644 111.811C1643.18 109.293 1641.69 107.173 1639.53 105.45L1625.99 125.031C1626.81 126.998 1627.73 129.037 1628.76 131.15C1630.75 135.249 1632.21 138.709 1633.14 141.53C1634.12 144.387 1634.57 147.342 1634.48 150.394C1634.44 153.482 1633.44 156.448 1631.48 159.29C1629.62 161.975 1627.17 163.939 1624.13 165.183C1621.09 166.427 1617.58 166.723 1613.6 166.069C1609.7 165.399 1605.55 163.695 1601.14 160.956L1597.54 166.168L1595.17 164.529L1598.72 159.397ZM1637.05 103.97C1635.03 103.189 1632.93 103.18 1630.77 103.942C1628.61 104.704 1626.78 106.164 1625.29 108.322C1623.98 110.217 1623.3 112.274 1623.24 114.492C1623.27 116.694 1623.76 119.135 1624.71 121.814L1637.05 103.97ZM1602.84 158.509C1605.22 159.224 1607.53 159.148 1609.76 158.281C1612.05 157.45 1613.99 155.876 1615.6 153.56C1616.8 151.823 1617.34 149.862 1617.21 147.676C1617.13 145.438 1616.54 142.969 1615.45 140.27L1602.84 158.509Z" fill="#E1E600"/>
</g>
<g filter="url(#filter1_f_18_2)">
<ellipse cx="1626.95" cy="1394.22" rx="68.1818" ry="75" transform="rotate(34.6676 1626.95 1394.22)" fill="#696C00"/>
<path d="M1665.65 1420.98C1644.05 1452.21 1604.37 1460.67 1577.34 1441.98C1550.32 1423.29 1544.23 1383.18 1565.83 1351.95C1587.43 1320.72 1627.11 1312.26 1654.13 1330.95C1681.16 1349.64 1687.24 1389.76 1665.65 1420.98Z" fill="#BCC000" stroke="#E1E600" stroke-width="15"/>
<path d="M1598.72 1414.4C1595.18 1411.87 1592.36 1408.63 1590.26 1404.69C1589.47 1403.13 1588.87 1401.47 1588.45 1399.71C1586.88 1400.41 1585.21 1400.85 1583.45 1401.03C1582.03 1401.06 1581.25 1401.07 1581.11 1401.05L1579.13 1399.68L1589.51 1384.68L1592.67 1386.87C1591.67 1389.99 1591.18 1393.07 1591.18 1396.11C1591.22 1402.91 1593.8 1408.07 1598.9 1411.6C1599.53 1412.04 1599.95 1412.29 1600.14 1412.34L1614.06 1392.21L1611.91 1387.57C1609.87 1383.2 1608.33 1379.53 1607.28 1376.54C1606.31 1373.54 1605.9 1370.38 1606.03 1367.04C1606.24 1363.69 1607.46 1360.41 1609.68 1357.2C1611.47 1354.62 1613.78 1352.79 1616.62 1351.72C1619.55 1350.64 1622.88 1350.49 1626.61 1351.28C1630.38 1352.02 1634.37 1353.85 1638.58 1356.76L1642.13 1351.63L1644.5 1353.26L1640.79 1358.63C1643.37 1361.2 1645.21 1363.83 1646.3 1366.53C1646.91 1367.89 1647.37 1369.26 1647.67 1370.63C1649.51 1369.88 1651.18 1369.44 1652.67 1369.3C1654.09 1369.27 1654.87 1369.27 1655.01 1369.29L1656.99 1370.65L1646.61 1385.66L1643.45 1383.47C1644.46 1380.44 1645.02 1377.55 1645.12 1374.82C1645.25 1372.03 1644.88 1369.36 1644 1366.81C1643.18 1364.29 1641.69 1362.17 1639.53 1360.45L1625.99 1380.03C1626.81 1382 1627.73 1384.04 1628.76 1386.15C1630.75 1390.25 1632.21 1393.71 1633.14 1396.53C1634.12 1399.39 1634.57 1402.34 1634.48 1405.39C1634.44 1408.48 1633.44 1411.45 1631.48 1414.29C1629.62 1416.97 1627.17 1418.94 1624.13 1420.18C1621.09 1421.43 1617.58 1421.72 1613.6 1421.07C1609.7 1420.4 1605.55 1418.69 1601.14 1415.96L1597.54 1421.17L1595.17 1419.53L1598.72 1414.4ZM1637.05 1358.97C1635.03 1358.19 1632.93 1358.18 1630.77 1358.94C1628.61 1359.7 1626.78 1361.16 1625.29 1363.32C1623.98 1365.22 1623.3 1367.27 1623.24 1369.49C1623.27 1371.69 1623.76 1374.13 1624.71 1376.81L1637.05 1358.97ZM1602.84 1413.51C1605.22 1414.22 1607.53 1414.15 1609.76 1413.28C1612.05 1412.45 1613.99 1410.88 1615.6 1408.56C1616.8 1406.82 1617.34 1404.86 1617.21 1402.68C1617.13 1400.44 1616.54 1397.97 1615.45 1395.27L1602.84 1413.51Z" fill="#E1E600"/>
</g>
<g filter="url(#filter2_f_18_2)">
<ellipse cx="928.519" cy="169.002" rx="81.8182" ry="90" transform="rotate(-36.7532 928.519 169.002)" fill="#696C00"/>
<path d="M974.953 134.324C1002.63 171.382 997.133 220.727 964.773 244.894C932.413 269.061 883.538 260.321 855.862 223.263C828.187 186.205 833.682 136.86 866.042 112.693C898.402 88.5259 947.277 97.2657 974.953 134.324Z" fill="#BCC000" stroke="#E1E600" stroke-width="15"/>
<path d="M936.824 209.7C933.299 212.253 929.334 213.896 924.929 214.629C923.201 214.882 921.434 214.923 919.63 214.753C919.793 216.468 919.68 218.19 919.293 219.917C918.868 221.273 918.623 222.015 918.559 222.143L916.636 223.579L905.722 208.964L908.798 206.667C911.444 208.605 914.206 210.057 917.084 211.023C923.543 213.148 929.26 212.353 934.234 208.639C934.85 208.179 935.215 207.866 935.331 207.7L920.683 188.086L915.593 188.652C910.805 189.192 906.83 189.485 903.668 189.53C900.52 189.485 897.385 188.871 894.264 187.687C891.156 186.413 888.434 184.212 886.098 181.084C884.222 178.572 883.229 175.799 883.12 172.765C883.024 169.641 883.946 166.437 885.885 163.151C887.786 159.814 890.788 156.614 894.89 153.55L891.157 148.551L893.464 146.827L897.37 152.058C900.625 150.426 903.705 149.523 906.611 149.35C908.096 149.2 909.536 149.203 910.931 149.359C910.807 147.375 910.919 145.653 911.268 144.195C911.693 142.839 911.938 142.097 912.002 141.969L913.925 140.533L924.839 155.147L921.763 157.445C919.206 155.52 916.649 154.075 914.091 153.109C911.495 152.093 908.846 151.595 906.146 151.615C903.496 151.597 901.011 152.334 898.691 153.827L912.937 172.902C915.063 172.753 917.29 172.527 919.62 172.225C924.14 171.645 927.885 171.365 930.854 171.384C933.875 171.364 936.818 171.882 939.683 172.938C942.599 173.955 945.091 175.848 947.159 178.617C949.113 181.232 950.195 184.178 950.405 187.455C950.616 190.733 949.777 194.155 947.889 197.722C946.013 201.2 943.075 204.593 939.074 207.9L942.865 212.976L940.558 214.699L936.824 209.7ZM896.499 155.704C895.113 157.378 894.437 159.361 894.471 161.652C894.504 163.943 895.306 166.14 896.876 168.242C898.255 170.088 899.987 171.391 902.072 172.151C904.17 172.82 906.639 173.133 909.481 173.087L896.499 155.704ZM937.293 205.515C938.731 203.483 939.395 201.27 939.285 198.876C939.226 196.444 938.353 194.1 936.668 191.843C935.405 190.151 933.717 189.015 931.607 188.435C929.457 187.803 926.93 187.574 924.024 187.747L937.293 205.515Z" fill="#E1E600"/>
</g>
<g filter="url(#filter3_f_18_2)">
<ellipse cx="928.519" cy="1424" rx="81.8182" ry="90" transform="rotate(-36.7532 928.519 1424)" fill="#696C00"/>
<path d="M974.953 1389.32C1002.63 1426.38 997.133 1475.73 964.773 1499.89C932.413 1524.06 883.538 1515.32 855.862 1478.26C828.187 1441.21 833.682 1391.86 866.042 1367.69C898.402 1343.53 947.277 1352.27 974.953 1389.32Z" fill="#BCC000" stroke="#E1E600" stroke-width="15"/>
<path d="M936.824 1464.7C933.299 1467.25 929.334 1468.9 924.929 1469.63C923.201 1469.88 921.434 1469.92 919.63 1469.75C919.793 1471.47 919.68 1473.19 919.293 1474.92C918.868 1476.27 918.623 1477.01 918.559 1477.14L916.636 1478.58L905.722 1463.96L908.798 1461.67C911.444 1463.6 914.206 1465.06 917.084 1466.02C923.543 1468.15 929.26 1467.35 934.234 1463.64C934.85 1463.18 935.215 1462.87 935.331 1462.7L920.683 1443.09L915.593 1443.65C910.805 1444.19 906.83 1444.49 903.668 1444.53C900.52 1444.49 897.385 1443.87 894.264 1442.69C891.156 1441.41 888.434 1439.21 886.098 1436.08C884.222 1433.57 883.229 1430.8 883.12 1427.76C883.024 1424.64 883.946 1421.44 885.885 1418.15C887.786 1414.81 890.788 1411.61 894.89 1408.55L891.157 1403.55L893.464 1401.83L897.37 1407.06C900.625 1405.43 903.705 1404.52 906.611 1404.35C908.096 1404.2 909.536 1404.2 910.931 1404.36C910.807 1402.37 910.919 1400.65 911.268 1399.19C911.693 1397.84 911.938 1397.1 912.002 1396.97L913.925 1395.53L924.839 1410.15L921.763 1412.45C919.206 1410.52 916.649 1409.07 914.091 1408.11C911.495 1407.09 908.846 1406.59 906.146 1406.61C903.496 1406.6 901.011 1407.33 898.691 1408.83L912.937 1427.9C915.063 1427.75 917.29 1427.53 919.62 1427.22C924.14 1426.65 927.885 1426.36 930.854 1426.38C933.875 1426.36 936.818 1426.88 939.683 1427.94C942.599 1428.95 945.091 1430.85 947.159 1433.62C949.113 1436.23 950.195 1439.18 950.405 1442.46C950.616 1445.73 949.777 1449.15 947.889 1452.72C946.013 1456.2 943.075 1459.59 939.074 1462.9L942.865 1467.98L940.558 1469.7L936.824 1464.7ZM896.499 1410.7C895.113 1412.38 894.437 1414.36 894.471 1416.65C894.504 1418.94 895.306 1421.14 896.876 1423.24C898.255 1425.09 899.987 1426.39 902.072 1427.15C904.17 1427.82 906.639 1428.13 909.481 1428.09L896.499 1410.7ZM937.293 1460.52C938.731 1458.48 939.395 1456.27 939.285 1453.88C939.226 1451.44 938.353 1449.1 936.668 1446.84C935.405 1445.15 933.717 1444.02 931.607 1443.43C929.457 1442.8 926.93 1442.57 924.024 1442.75L937.293 1460.52Z" fill="#E1E600"/>
</g>
<g filter="url(#filter4_f_18_2)">
<circle cx="100" cy="100" r="100" transform="matrix(-0.991935 -0.126744 -0.126744 0.991935 289.736 804.349)" fill="#696C00"/>
<circle cx="100" cy="100" r="92.5" transform="matrix(-0.991935 -0.126744 -0.126744 0.991935 309.575 806.884)" fill="#BCC000" stroke="#E1E600" stroke-width="15"/>
<path d="M224.04 930.237C219.346 933.649 214.063 935.85 208.192 936.838C205.888 937.178 203.533 937.238 201.127 937.015C201.348 939.302 201.202 941.597 200.689 943.901C200.126 945.71 199.801 946.7 199.716 946.871L197.155 948.79L182.569 929.33L186.666 926.259C190.198 928.837 193.883 930.767 197.723 932.048C206.341 934.866 213.962 933.793 220.585 928.828C221.404 928.214 221.891 927.796 222.044 927.574L202.468 901.457L195.683 902.223C189.3 902.955 184.001 903.355 179.785 903.422C175.587 903.37 171.406 902.558 167.242 900.986C163.095 899.296 159.461 896.368 156.339 892.203C153.831 888.857 152.501 885.161 152.348 881.117C152.213 876.952 153.435 872.677 156.013 868.292C158.54 863.838 162.535 859.564 167.997 855.47L163.007 848.812L166.08 846.509L171.3 853.474C175.636 851.291 179.741 850.08 183.615 849.842C185.595 849.638 187.515 849.638 189.375 849.844C189.205 847.198 189.351 844.903 189.812 842.957C190.376 841.149 190.7 840.159 190.786 839.988L193.346 838.069L207.933 857.529L203.836 860.6C200.423 858.039 197.01 856.118 193.597 854.837C190.133 853.488 186.601 852.83 183 852.863C179.467 852.845 176.156 853.834 173.066 855.83L192.105 881.23C194.938 881.026 197.908 880.72 201.014 880.311C207.039 879.528 212.031 879.145 215.991 879.163C220.018 879.13 223.944 879.814 227.766 881.214C231.657 882.564 234.984 885.082 237.748 888.769C240.358 892.252 241.808 896.177 242.097 900.546C242.386 904.916 241.275 909.481 238.765 914.242C236.272 918.883 232.362 923.413 227.036 927.832L232.103 934.592L229.031 936.895L224.04 930.237ZM170.147 858.338C168.303 860.573 167.406 863.218 167.457 866.273C167.507 869.328 168.581 872.255 170.68 875.055C172.522 877.513 174.834 879.246 177.616 880.253C180.415 881.142 183.708 881.552 187.497 881.485L170.147 858.338ZM224.656 924.657C226.569 921.944 227.448 918.991 227.296 915.8C227.211 912.557 226.043 909.434 223.791 906.429C222.102 904.176 219.85 902.665 217.034 901.896C214.167 901.059 210.796 900.76 206.922 900.997L224.656 924.657Z" fill="#E1E600"/>
</g>
<g filter="url(#filter5_f_18_2)">
<ellipse cx="68.1818" cy="75" rx="68.1818" ry="75" transform="matrix(-0.703891 -0.710308 -0.710308 0.703891 1347.53 889.86)" fill="#696C00"/>
<path d="M1213.15 860.805C1186.18 887.53 1184.79 928.082 1207.92 951.421C1231.05 974.759 1271.61 973.736 1298.58 947.011C1325.55 920.285 1326.94 879.734 1303.81 856.395C1280.68 833.057 1240.12 834.08 1213.15 860.805Z" fill="#BCC000" stroke="#E1E600" stroke-width="15"/>
<path d="M1253.95 940.387C1249.61 940.445 1245.52 939.508 1241.69 937.576C1240.21 936.788 1238.84 935.807 1237.58 934.631C1236.58 936.125 1235.38 937.466 1233.96 938.653C1232.75 939.515 1232.08 939.98 1231.95 940.047L1229.55 940.115L1230.77 921.916L1234.61 921.808C1235.36 924.91 1236.51 927.682 1238.07 930.124C1241.6 935.57 1246.47 938.207 1252.67 938.033C1253.44 938.011 1253.92 937.966 1254.12 937.897L1255.76 913.472L1251.52 911.009C1247.53 908.699 1244.31 906.654 1241.88 904.874C1239.51 903.028 1237.53 900.725 1235.92 897.966C1234.39 895.141 1233.75 891.781 1234.02 887.885C1234.23 884.757 1235.28 881.923 1237.17 879.384C1239.14 876.78 1241.93 874.694 1245.54 873.126C1249.17 871.495 1253.54 870.608 1258.65 870.465L1259.07 864.239L1261.95 864.158L1261.51 870.671C1265.05 871.21 1267.98 872.243 1270.31 873.771C1271.54 874.502 1272.63 875.331 1273.59 876.261C1274.79 874.57 1276 873.23 1277.21 872.239C1278.42 871.377 1279.09 870.912 1279.22 870.845L1281.62 870.777L1280.4 888.976L1276.56 889.084C1275.87 886.044 1274.87 883.395 1273.55 881.138C1272.24 878.816 1270.55 876.888 1268.48 875.352C1266.47 873.815 1264.1 872.989 1261.37 872.875L1259.77 896.629C1261.48 897.728 1263.32 898.824 1265.29 899.916C1269.11 902.04 1272.14 903.962 1274.39 905.684C1276.7 907.404 1278.6 909.518 1280.09 912.025C1281.65 914.531 1282.31 917.508 1282.08 920.956C1281.86 924.213 1280.76 927.239 1278.79 930.035C1276.81 932.831 1273.94 935.143 1270.18 936.969C1266.48 938.729 1262.04 939.81 1256.84 940.211L1256.41 946.532L1253.53 946.613L1253.95 940.387ZM1258.47 873.147C1256.33 873.717 1254.52 874.946 1253.05 876.836C1251.59 878.725 1250.76 880.979 1250.59 883.597C1250.43 885.896 1250.9 887.954 1251.99 889.772C1253.15 891.524 1254.83 893.198 1257.02 894.794L1258.47 873.147ZM1257.04 937.241C1259.46 936.409 1261.4 934.984 1262.88 932.967C1264.42 930.948 1265.29 928.533 1265.48 925.724C1265.62 923.616 1265.07 921.72 1263.85 920.033C1262.62 918.283 1260.85 916.643 1258.53 915.115L1257.04 937.241Z" fill="#E1E600"/>
</g>
<g filter="url(#filter6_f_18_2)">
<path d="M169.291 111.772C171.959 106.451 177.519 103.212 183.463 103.515L257.421 107.286C261.615 107.5 265.527 109.462 268.206 112.695L315.464 169.71C319.262 174.292 319.992 180.686 317.324 186.006L272.497 275.396C269.817 280.74 264.221 283.982 258.252 283.649L184.469 279.527C180.327 279.296 176.466 277.36 173.804 274.179L126.37 217.514C122.533 212.93 121.784 206.505 124.464 201.161L169.291 111.772Z" fill="url(#paint0_linear_18_2)"/>
<g filter="url(#filter7_d_18_2)">
<path d="M164.765 113.407C167.945 107.067 176.532 105.96 181.215 111.288L228.976 165.63C230.647 167.531 232.977 168.727 235.495 168.979L312.391 176.646C319.367 177.341 323.48 184.813 320.338 191.079L314.598 202.524C312.741 206.228 308.791 208.403 304.667 207.992L220.157 199.565C217.638 199.314 215.308 198.117 213.638 196.216L160.527 135.789C157.839 132.73 157.274 128.346 159.1 124.705L164.765 113.407Z" fill="url(#paint1_linear_18_2)"/>
</g>
<path d="M293.29 172.977L253.185 140.275L240.033 140.64L267.796 172.094L213.467 280.432L238.225 282.782L293.29 172.977Z" fill="url(#paint2_linear_18_2)"/>
<ellipse cx="248.744" cy="138.048" rx="12.4203" ry="11.665" transform="rotate(26.6326 248.744 138.048)" fill="url(#paint3_linear_18_2)"/>
<path d="M195.098 126.806L235.683 127.149L243.037 143.886L211.64 145.541L157.258 253.985L141.065 234.555L195.098 126.806Z" fill="url(#paint4_linear_18_2)"/>
<path d="M257.626 142.502C259.763 138.24 267.11 137.627 271.461 136.874C280.523 135.305 289.141 136.521 298.254 136.294C304.241 136.145 309.282 138.238 315.081 140.092C317.208 140.773 320.205 142.173 321.909 143.613C325.889 146.978 330.162 158.236 328.817 162.882C327.633 166.974 329.036 170.039 326.98 174.14C325.366 177.358 322.759 176.599 319.514 175.277C315.74 173.741 312.08 173.192 308.207 171.348C302.107 168.443 294.599 167.482 288.013 166.875C282.944 166.409 278.723 163.859 273.821 162.852C269.158 161.893 265.612 161.297 261.322 159.145C257.351 157.154 249.573 154.865 252.311 149.407C254.492 145.057 256.411 141.063 261.981 141.206" stroke="url(#paint5_linear_18_2)" stroke-width="15" stroke-linecap="round"/>
<path d="M250.487 134.572C248.279 131.354 250.924 127.748 251.99 124.597C254.183 118.11 257.532 111.928 259.931 105.476C262.34 98.9993 265.107 94.5732 263.227 87.4101C261.698 81.5814 259.166 79.0151 253.486 76.0488C249.782 74.1139 249.262 74.5539 245.61 74.5155C243.525 74.4936 241.994 79.0207 240.266 80.2456C237.426 82.2598 235.519 83.144 233.955 86.2636C232.675 88.8156 229.842 89.1561 228.52 91.5609C224.885 98.1695 223.128 104.016 228.058 110.952C231.398 115.65 234.424 120.222 236.777 125.378C238.141 128.366 241.418 132.821 245.426 133.581C248.464 134.158 247.596 130.565 249.598 129.777C251.341 129.091 252.395 128.505 250.663 126.831" stroke="url(#paint6_linear_18_2)" stroke-width="15" stroke-linecap="round"/>
</g>
<g filter="url(#filter8_f_18_2)">
<path d="M169.291 1366.77C171.959 1361.45 177.519 1358.21 183.463 1358.51L257.421 1362.29C261.615 1362.5 265.527 1364.46 268.206 1367.69L315.464 1424.71C319.262 1429.29 319.992 1435.69 317.324 1441.01L272.497 1530.4C269.817 1535.74 264.221 1538.98 258.252 1538.65L184.469 1534.53C180.327 1534.3 176.466 1532.36 173.804 1529.18L126.37 1472.51C122.533 1467.93 121.784 1461.5 124.464 1456.16L169.291 1366.77Z" fill="url(#paint7_linear_18_2)"/>
<g filter="url(#filter9_d_18_2)">
<path d="M164.765 1368.41C167.945 1362.07 176.532 1360.96 181.215 1366.29L228.976 1420.63C230.647 1422.53 232.977 1423.73 235.495 1423.98L312.391 1431.65C319.367 1432.34 323.48 1439.81 320.338 1446.08L314.598 1457.52C312.741 1461.23 308.791 1463.4 304.667 1462.99L220.157 1454.57C217.638 1454.31 215.308 1453.12 213.638 1451.22L160.527 1390.79C157.839 1387.73 157.274 1383.35 159.1 1379.7L164.765 1368.41Z" fill="url(#paint8_linear_18_2)"/>
</g>
<path d="M293.29 1427.98L253.185 1395.28L240.033 1395.64L267.796 1427.09L213.467 1535.43L238.225 1537.78L293.29 1427.98Z" fill="url(#paint9_linear_18_2)"/>
<ellipse cx="248.744" cy="1393.05" rx="12.4203" ry="11.665" transform="rotate(26.6326 248.744 1393.05)" fill="url(#paint10_linear_18_2)"/>
<path d="M195.098 1381.81L235.683 1382.15L243.037 1398.89L211.64 1400.54L157.258 1508.98L141.065 1489.55L195.098 1381.81Z" fill="url(#paint11_linear_18_2)"/>
<path d="M257.626 1397.5C259.763 1393.24 267.11 1392.63 271.461 1391.87C280.523 1390.31 289.141 1391.52 298.254 1391.29C304.241 1391.14 309.282 1393.24 315.081 1395.09C317.208 1395.77 320.205 1397.17 321.909 1398.61C325.889 1401.98 330.162 1413.24 328.817 1417.88C327.633 1421.97 329.036 1425.04 326.98 1429.14C325.366 1432.36 322.759 1431.6 319.514 1430.28C315.74 1428.74 312.08 1428.19 308.207 1426.35C302.107 1423.44 294.599 1422.48 288.013 1421.88C282.944 1421.41 278.723 1418.86 273.821 1417.85C269.158 1416.89 265.612 1416.3 261.322 1414.15C257.351 1412.15 249.573 1409.86 252.311 1404.41C254.492 1400.06 256.411 1396.06 261.981 1396.21" stroke="url(#paint12_linear_18_2)" stroke-width="15" stroke-linecap="round"/>
<path d="M250.487 1389.57C248.279 1386.35 250.924 1382.75 251.99 1379.6C254.183 1373.11 257.532 1366.93 259.931 1360.48C262.34 1354 265.107 1349.57 263.227 1342.41C261.698 1336.58 259.166 1334.02 253.486 1331.05C249.782 1329.11 249.262 1329.55 245.61 1329.52C243.525 1329.49 241.994 1334.02 240.266 1335.25C237.426 1337.26 235.519 1338.14 233.955 1341.26C232.675 1343.82 229.842 1344.16 228.52 1346.56C224.885 1353.17 223.128 1359.02 228.058 1365.95C231.398 1370.65 234.424 1375.22 236.777 1380.38C238.141 1383.37 241.418 1387.82 245.426 1388.58C248.464 1389.16 247.596 1385.56 249.598 1384.78C251.341 1384.09 252.395 1383.5 250.663 1381.83" stroke="url(#paint13_linear_18_2)" stroke-width="15" stroke-linecap="round"/>
</g>
<g filter="url(#filter10_f_18_2)">
<path d="M561.98 670.09C559.701 664.694 560.77 658.466 564.718 654.14L623.481 589.76C626.435 586.524 630.655 584.741 635.034 584.88L722.156 587.635C728.01 587.821 733.221 591.396 735.5 596.791L783.481 710.376C785.77 715.797 784.68 722.055 780.691 726.381L721.742 790.319C718.808 793.502 714.642 795.262 710.315 795.146L623.379 792.833C617.497 792.676 612.25 789.095 609.96 783.675L561.98 670.09Z" fill="url(#paint14_linear_18_2)"/>
<g filter="url(#filter11_d_18_2)">
<path d="M559.928 674.914C557.14 668.314 561.993 661.01 569.157 661.022L654.285 661.17C656.928 661.174 659.465 660.132 661.342 658.272L725.746 594.439C730.773 589.456 739.243 591.13 741.998 597.65L749.48 615.364C751.07 619.128 750.21 623.481 747.308 626.358L677.209 695.835C675.332 697.695 672.795 698.737 670.153 698.732L576.535 698.57C572.522 698.563 568.902 696.158 567.34 692.462L559.928 674.914Z" fill="url(#paint15_linear_18_2)"/>
</g>
<path d="M707.267 609.826L649.124 619.828L639.863 631.789L687.907 631.767L744.109 764.814L764.229 744.675L707.267 609.826Z" fill="url(#paint16_linear_18_2)"/>
<ellipse cx="643.919" cy="622.027" rx="14.1275" ry="13.9011" transform="rotate(-22.9002 643.919 622.027)" fill="url(#paint17_linear_18_2)"/>
<path d="M594.883 660.849L624.764 625.089L644.922 631.664L623.504 660.832L679.76 794.009L650.779 793.172L594.883 660.849Z" fill="url(#paint18_linear_18_2)"/>
<path d="M654.33 617.629C652.119 612.395 656.931 605.393 659.436 600.941C664.653 591.668 672.008 584.969 678.449 576.701C682.68 571.27 688.204 568.433 694.071 564.737C696.222 563.382 699.644 561.817 702.16 561.432C708.035 560.532 721.104 565.554 724.232 570.384C726.987 574.639 730.72 575.793 732.847 580.829C734.517 584.781 731.945 586.501 728.412 588.348C724.303 590.495 721.151 593.314 716.698 595.308C709.683 598.45 703.362 604.363 698.026 609.735C693.919 613.869 688.589 615.62 684.125 619.184C679.881 622.572 676.769 625.253 671.739 627.378C667.085 629.344 659.393 634.456 656.562 627.753C654.305 622.412 652.172 617.581 656.358 612.749" stroke="url(#paint19_linear_18_2)" stroke-width="15" stroke-linecap="round"/>
<path d="M642.116 617.759C637.661 617.199 636.401 612.028 634.39 608.614C630.253 601.589 627.228 593.777 623.272 586.596C619.3 579.386 617.402 573.465 609.699 569.526C603.431 566.32 599.316 566.559 592.554 569.278C588.144 571.053 588.154 571.858 585.459 575.07C583.919 576.905 586.807 581.808 586.631 584.3C586.342 588.399 585.734 590.784 587.353 594.615C588.677 597.749 586.913 600.53 588.076 603.587C591.27 611.987 595.16 618.124 604.886 619.178C611.473 619.891 617.722 620.784 623.995 622.731C627.631 623.859 633.958 624.438 637.551 621.476C640.275 619.23 636.466 617.187 637.228 614.793C637.891 612.709 638.141 611.314 635.4 611.542" stroke="url(#paint20_linear_18_2)" stroke-width="15" stroke-linecap="round"/>
</g>
<g filter="url(#filter12_f_18_2)">
<path d="M561.98 1925.09C559.701 1919.69 560.77 1913.47 564.718 1909.14L623.481 1844.76C626.435 1841.52 630.655 1839.74 635.034 1839.88L722.156 1842.64C728.01 1842.82 733.221 1846.4 735.5 1851.79L783.481 1965.38C785.77 1970.8 784.68 1977.05 780.691 1981.38L721.742 2045.32C718.808 2048.5 714.642 2050.26 710.315 2050.15L623.379 2047.83C617.497 2047.68 612.25 2044.1 609.96 2038.67L561.98 1925.09Z" fill="url(#paint21_linear_18_2)"/>
<g filter="url(#filter13_d_18_2)">
<path d="M559.928 1929.91C557.14 1923.31 561.993 1916.01 569.157 1916.02L654.285 1916.17C656.928 1916.17 659.465 1915.13 661.342 1913.27L725.746 1849.44C730.773 1844.46 739.243 1846.13 741.998 1852.65L749.48 1870.36C751.07 1874.13 750.21 1878.48 747.308 1881.36L677.209 1950.83C675.332 1952.7 672.795 1953.74 670.153 1953.73L576.535 1953.57C572.522 1953.56 568.902 1951.16 567.34 1947.46L559.928 1929.91Z" fill="url(#paint22_linear_18_2)"/>
</g>
<path d="M707.267 1864.83L649.124 1874.83L639.863 1886.79L687.907 1886.77L744.109 2019.81L764.229 1999.67L707.267 1864.83Z" fill="url(#paint23_linear_18_2)"/>
<ellipse cx="643.919" cy="1877.03" rx="14.1275" ry="13.9011" transform="rotate(-22.9002 643.919 1877.03)" fill="url(#paint24_linear_18_2)"/>
<path d="M594.883 1915.85L624.764 1880.09L644.922 1886.66L623.504 1915.83L679.76 2049.01L650.779 2048.17L594.883 1915.85Z" fill="url(#paint25_linear_18_2)"/>
<path d="M654.33 1872.63C652.119 1867.39 656.931 1860.39 659.436 1855.94C664.653 1846.67 672.008 1839.97 678.449 1831.7C682.68 1826.27 688.204 1823.43 694.071 1819.74C696.222 1818.38 699.644 1816.82 702.16 1816.43C708.035 1815.53 721.104 1820.55 724.232 1825.38C726.987 1829.64 730.72 1830.79 732.847 1835.83C734.517 1839.78 731.945 1841.5 728.412 1843.35C724.303 1845.49 721.151 1848.31 716.698 1850.31C709.683 1853.45 703.362 1859.36 698.026 1864.73C693.919 1868.87 688.589 1870.62 684.125 1874.18C679.881 1877.57 676.769 1880.25 671.739 1882.38C667.085 1884.34 659.393 1889.46 656.562 1882.75C654.305 1877.41 652.172 1872.58 656.358 1867.75" stroke="url(#paint26_linear_18_2)" stroke-width="15" stroke-linecap="round"/>
<path d="M642.116 1872.76C637.661 1872.2 636.401 1867.03 634.39 1863.61C630.253 1856.59 627.228 1848.78 623.272 1841.6C619.3 1834.39 617.402 1828.46 609.699 1824.53C603.431 1821.32 599.316 1821.56 592.554 1824.28C588.144 1826.05 588.154 1826.86 585.459 1830.07C583.919 1831.9 586.807 1836.81 586.631 1839.3C586.342 1843.4 585.734 1845.78 587.353 1849.61C588.677 1852.75 586.913 1855.53 588.076 1858.59C591.27 1866.99 595.16 1873.12 604.886 1874.18C611.473 1874.89 617.722 1875.78 623.995 1877.73C627.631 1878.86 633.958 1879.44 637.551 1876.48C640.275 1874.23 636.466 1872.19 637.228 1869.79C637.891 1867.71 638.141 1866.31 635.4 1866.54" stroke="url(#paint27_linear_18_2)" stroke-width="15" stroke-linecap="round"/>
</g>
<g filter="url(#filter14_f_18_2)">
<path d="M1512.53 409.114C1514.57 403.606 1519.64 399.796 1525.5 399.366L1580.87 395.299C1585.21 394.98 1589.47 396.559 1592.55 399.627L1631.9 438.793C1636.07 442.936 1637.43 449.128 1635.39 454.636L1607.93 528.726C1605.88 534.259 1600.78 538.076 1594.89 538.479L1539.63 542.262C1535.34 542.555 1531.13 540.997 1528.07 537.981L1488.61 499.1C1484.41 494.958 1483.03 488.737 1485.08 483.203L1512.53 409.114Z" fill="url(#paint28_linear_18_2)"/>
<g filter="url(#filter15_d_18_2)">
<path d="M1508.63 412.084C1511.12 405.378 1519.64 403.372 1524.85 408.264L1563.77 444.756C1565.68 446.55 1568.22 447.52 1570.84 447.458L1628.14 446.108C1635.2 445.942 1640.2 452.955 1637.75 459.58L1635.45 465.774C1634.03 469.616 1630.41 472.2 1626.31 472.297L1561.07 473.834C1558.45 473.896 1555.91 472.925 1553.99 471.131L1508.94 428.881C1506 426.128 1505 421.885 1506.4 418.112L1508.63 412.084Z" fill="url(#paint29_linear_18_2)"/>
</g>
<path d="M1615.92 444.96L1581.66 422.401L1571.28 424.01L1595.68 446.787L1561.06 540.21L1580.83 539.648L1615.92 444.96Z" fill="url(#paint30_linear_18_2)"/>
<ellipse cx="1577.98" cy="421.035" rx="9.82653" ry="9.58914" transform="rotate(20.3312 1577.98 421.035)" fill="url(#paint31_linear_18_2)"/>
<path d="M1534.66 417.258L1566.8 413.485L1573.91 426.347L1549.2 430.824L1514.55 524.338L1500.24 510.172L1534.66 417.258Z" fill="url(#paint32_linear_18_2)"/>
<path d="M1585.35 423.766C1586.71 420.091 1592.47 418.86 1595.86 417.814C1602.91 415.635 1609.82 415.762 1617.01 414.668C1621.74 413.949 1625.89 415.146 1630.62 416.074C1632.35 416.414 1634.83 417.252 1636.29 418.252C1639.7 420.588 1643.95 429.306 1643.25 433.214C1642.63 436.656 1643.97 439.005 1642.66 442.542C1641.64 445.317 1639.51 444.961 1636.84 444.211C1633.74 443.339 1630.8 443.259 1627.6 442.148C1622.54 440.397 1616.53 440.366 1611.27 440.531C1607.23 440.658 1603.69 439.008 1599.73 438.679C1595.97 438.366 1593.12 438.235 1589.56 436.916C1586.26 435.695 1579.93 434.612 1581.68 429.905C1583.06 426.154 1584.27 422.718 1588.69 422.279" stroke="url(#paint33_linear_18_2)" stroke-width="15" stroke-linecap="round"/>
<path d="M1579.09 418.038C1577.09 415.644 1578.9 412.451 1579.5 409.785C1580.74 404.297 1582.91 398.941 1584.31 393.461C1585.72 387.96 1587.56 384.088 1585.52 378.457C1583.86 373.876 1581.66 372.044 1576.94 370.201C1573.86 368.999 1573.48 369.409 1570.59 369.742C1568.94 369.932 1568.08 373.762 1566.8 374.93C1564.71 376.849 1563.27 377.758 1562.27 380.448C1561.46 382.649 1559.24 383.208 1558.38 385.293C1556.02 391.024 1555.08 395.949 1559.52 401.09C1562.52 404.573 1565.27 407.985 1567.53 411.937C1568.84 414.229 1571.78 417.52 1575.01 417.738C1577.45 417.903 1576.49 415.071 1578.01 414.231C1579.34 413.5 1580.13 412.918 1578.63 411.732" stroke="url(#paint34_linear_18_2)" stroke-width="15" stroke-linecap="round"/>
</g>
<g filter="url(#filter16_f_18_2)">
<path d="M1512.53 1664.11C1514.57 1658.61 1519.64 1654.8 1525.5 1654.37L1580.87 1650.3C1585.21 1649.98 1589.47 1651.56 1592.55 1654.63L1631.9 1693.79C1636.07 1697.94 1637.43 1704.13 1635.39 1709.64L1607.93 1783.73C1605.88 1789.26 1600.78 1793.08 1594.89 1793.48L1539.63 1797.26C1535.34 1797.56 1531.13 1796 1528.07 1792.98L1488.61 1754.1C1484.41 1749.96 1483.03 1743.74 1485.08 1738.2L1512.53 1664.11Z" fill="url(#paint35_linear_18_2)"/>
<g filter="url(#filter17_d_18_2)">
<path d="M1508.63 1667.08C1511.12 1660.38 1519.64 1658.37 1524.85 1663.26L1563.77 1699.76C1565.68 1701.55 1568.22 1702.52 1570.84 1702.46L1628.14 1701.11C1635.2 1700.94 1640.2 1707.95 1637.75 1714.58L1635.45 1720.77C1634.03 1724.62 1630.41 1727.2 1626.31 1727.3L1561.07 1728.83C1558.45 1728.9 1555.91 1727.93 1553.99 1726.13L1508.94 1683.88C1506 1681.13 1505 1676.88 1506.4 1673.11L1508.63 1667.08Z" fill="url(#paint36_linear_18_2)"/>
</g>
<path d="M1615.92 1699.96L1581.66 1677.4L1571.28 1679.01L1595.68 1701.79L1561.06 1795.21L1580.83 1794.65L1615.92 1699.96Z" fill="url(#paint37_linear_18_2)"/>
<ellipse cx="1577.98" cy="1676.03" rx="9.82653" ry="9.58914" transform="rotate(20.3312 1577.98 1676.03)" fill="url(#paint38_linear_18_2)"/>
<path d="M1534.66 1672.26L1566.8 1668.49L1573.91 1681.35L1549.2 1685.82L1514.55 1779.34L1500.24 1765.17L1534.66 1672.26Z" fill="url(#paint39_linear_18_2)"/>
<path d="M1585.35 1678.77C1586.71 1675.09 1592.47 1673.86 1595.86 1672.81C1602.91 1670.63 1609.82 1670.76 1617.01 1669.67C1621.74 1668.95 1625.89 1670.15 1630.62 1671.07C1632.35 1671.41 1634.83 1672.25 1636.29 1673.25C1639.7 1675.59 1643.95 1684.31 1643.25 1688.21C1642.63 1691.66 1643.97 1694.01 1642.66 1697.54C1641.64 1700.32 1639.51 1699.96 1636.84 1699.21C1633.74 1698.34 1630.8 1698.26 1627.6 1697.15C1622.54 1695.4 1616.53 1695.37 1611.27 1695.53C1607.23 1695.66 1603.69 1694.01 1599.73 1693.68C1595.97 1693.37 1593.12 1693.24 1589.56 1691.92C1586.26 1690.69 1579.93 1689.61 1581.68 1684.9C1583.06 1681.15 1584.27 1677.72 1588.69 1677.28" stroke="url(#paint40_linear_18_2)" stroke-width="15" stroke-linecap="round"/>
<path d="M1579.09 1673.04C1577.09 1670.64 1578.9 1667.45 1579.5 1664.78C1580.74 1659.3 1582.91 1653.94 1584.31 1648.46C1585.72 1642.96 1587.56 1639.09 1585.52 1633.46C1583.86 1628.88 1581.66 1627.04 1576.94 1625.2C1573.86 1624 1573.48 1624.41 1570.59 1624.74C1568.94 1624.93 1568.08 1628.76 1566.8 1629.93C1564.71 1631.85 1563.27 1632.76 1562.27 1635.45C1561.46 1637.65 1559.24 1638.21 1558.38 1640.29C1556.02 1646.02 1555.08 1650.95 1559.52 1656.09C1562.52 1659.57 1565.27 1662.98 1567.53 1666.94C1568.84 1669.23 1571.78 1672.52 1575.01 1672.74C1577.45 1672.9 1576.49 1670.07 1578.01 1669.23C1579.34 1668.5 1580.13 1667.92 1578.63 1666.73" stroke="url(#paint41_linear_18_2)" stroke-width="15" stroke-linecap="round"/>
</g>
<g filter="url(#filter18_f_18_2)">
<path d="M1608.21 878.403C1607.05 872.645 1609.36 866.739 1614.11 863.291L1659.07 830.703C1662.59 828.15 1667.04 827.251 1671.28 828.239L1725.35 840.844C1731.07 842.178 1735.48 846.727 1736.65 852.485L1752.28 929.936C1753.44 935.72 1751.11 941.652 1746.32 945.091L1701.3 977.383C1697.81 979.887 1693.42 980.774 1689.23 979.82L1635.21 967.512C1629.46 966.201 1625.01 961.638 1623.84 955.854L1608.21 878.403Z" fill="url(#paint42_linear_18_2)"/>
<g filter="url(#filter19_d_18_2)">
<path d="M1606.46 882.978C1605.05 875.968 1611.24 869.782 1618.25 871.197L1670.54 881.76C1673.11 882.279 1675.78 881.768 1677.98 880.336L1725.99 849.048C1731.91 845.191 1739.86 848.522 1741.25 855.448L1742.56 861.923C1743.37 865.939 1741.65 870.043 1738.22 872.279L1683.54 907.908C1681.34 909.34 1678.67 909.852 1676.1 909.332L1615.56 897.103C1611.61 896.306 1608.53 893.223 1607.74 889.279L1606.46 882.978Z" fill="url(#paint43_linear_18_2)"/>
</g>
<path d="M1715 854.498L1674 853.334L1666.02 860.162L1698.75 866.699L1718.46 964.36L1734.97 953.481L1715 854.498Z" fill="url(#paint44_linear_18_2)"/>
<ellipse cx="1670.14" cy="854.112" rx="9.82653" ry="9.58914" transform="rotate(-11.4091 1670.14 854.112)" fill="url(#paint45_linear_18_2)"/>
<path d="M1631.32 873.685L1656.67 853.571L1669.48 860.767L1650.82 877.577L1670.55 975.333L1650.92 970.815L1631.32 873.685Z" fill="url(#paint46_linear_18_2)"/>
<path d="M1677.85 852.557C1677.07 848.715 1681.33 844.635 1683.66 841.965C1688.51 836.404 1694.45 832.876 1699.99 828.161C1703.63 825.064 1707.79 823.899 1712.3 822.199C1713.96 821.575 1716.51 820.983 1718.28 821.066C1722.4 821.259 1730.6 826.438 1732.06 830.132C1733.34 833.386 1735.72 834.675 1736.47 838.372C1737.06 841.273 1735.06 842.086 1732.4 842.853C1729.3 843.745 1726.76 845.222 1723.45 845.964C1718.23 847.132 1713.1 850.27 1708.72 853.176C1705.34 855.413 1701.47 855.87 1697.93 857.672C1694.56 859.385 1692.07 860.774 1688.35 861.525C1684.9 862.221 1678.95 864.63 1677.96 859.709C1677.16 855.788 1676.39 852.23 1679.91 849.532" stroke="url(#paint47_linear_18_2)" stroke-width="15" stroke-linecap="round"/>
<path d="M1669.51 850.979C1666.55 849.993 1666.42 846.323 1665.53 843.74C1663.69 838.423 1662.72 832.726 1661.03 827.329C1659.33 821.911 1658.86 817.647 1654.16 813.932C1650.34 810.909 1647.51 810.509 1642.52 811.426C1639.27 812.025 1639.16 812.571 1636.88 814.377C1635.57 815.407 1636.86 819.118 1636.39 820.78C1635.62 823.513 1634.87 825.043 1635.44 827.855C1635.9 830.156 1634.31 831.797 1634.68 834.023C1635.68 840.141 1637.47 844.822 1643.95 846.861C1648.34 848.242 1652.47 849.698 1656.47 851.871C1658.79 853.13 1663.02 854.384 1665.88 852.87C1668.05 851.723 1665.74 849.822 1666.6 848.306C1667.34 846.987 1667.7 846.077 1665.8 845.857" stroke="url(#paint48_linear_18_2)" stroke-width="15" stroke-linecap="round"/>
</g>
</g>
<defs>
<filter id="filter0_f_18_2" x="1530.27" y="43.5943" width="182.143" height="183.503" filterUnits="userSpaceOnUse" color-interpolation-filters="sRGB">
<feFlood flood-opacity="0" result="BackgroundImageFix"/>
<feBlend mode="normal" in="SourceGraphic" in2="BackgroundImageFix" result="shape"/>
<feGaussianBlur stdDeviation="7.5" result="effect1_foregroundBlur_18_2"/>
</filter>
<filter id="filter1_f_18_2" x="1530.27" y="1298.59" width="182.143" height="183.503" filterUnits="userSpaceOnUse" color-interpolation-filters="sRGB">
<feFlood flood-opacity="0" result="BackgroundImageFix"/>
<feBlend mode="normal" in="SourceGraphic" in2="BackgroundImageFix" result="shape"/>
<feGaussianBlur stdDeviation="7.5" result="effect1_foregroundBlur_18_2"/>
</filter>
<filter id="filter2_f_18_2" x="815.567" y="66.8347" width="212.793" height="214.126" filterUnits="userSpaceOnUse" color-interpolation-filters="sRGB">
<feFlood flood-opacity="0" result="BackgroundImageFix"/>
<feBlend mode="normal" in="SourceGraphic" in2="BackgroundImageFix" result="shape"/>
<feGaussianBlur stdDeviation="7.5" result="effect1_foregroundBlur_18_2"/>
</filter>
<filter id="filter3_f_18_2" x="815.567" y="1321.83" width="212.793" height="214.126" filterUnits="userSpaceOnUse" color-interpolation-filters="sRGB">
<feFlood flood-opacity="0" result="BackgroundImageFix"/>
<feBlend mode="normal" in="SourceGraphic" in2="BackgroundImageFix" result="shape"/>
<feGaussianBlur stdDeviation="7.5" result="effect1_foregroundBlur_18_2"/>
</filter>
<filter id="filter4_f_18_2" x="62.8572" y="775.857" width="249.86" height="232.557" filterUnits="userSpaceOnUse" color-interpolation-filters="sRGB">
<feFlood flood-opacity="0" result="BackgroundImageFix"/>
<feBlend mode="normal" in="SourceGraphic" in2="BackgroundImageFix" result="shape"/>
<feGaussianBlur stdDeviation="7.5" result="effect1_foregroundBlur_18_2"/>
</filter>
<filter id="filter5_f_18_2" x="1159.56" y="807.58" width="183.006" height="182.969" filterUnits="userSpaceOnUse" color-interpolation-filters="sRGB">
<feFlood flood-opacity="0" result="BackgroundImageFix"/>
<feBlend mode="normal" in="SourceGraphic" in2="BackgroundImageFix" result="shape"/>
<feGaussianBlur stdDeviation="7.5" result="effect1_foregroundBlur_18_2"/>
</filter>
<filter id="filter6_f_18_2" x="107.872" y="51.9977" width="243.698" height="246.675" filterUnits="userSpaceOnUse" color-interpolation-filters="sRGB">
<feFlood flood-opacity="0" result="BackgroundImageFix"/>
<feBlend mode="normal" in="SourceGraphic" in2="BackgroundImageFix" result="shape"/>
<feGaussianBlur stdDeviation="7.5" result="effect1_foregroundBlur_18_2"/>
</filter>
<filter id="filter7_d_18_2" x="148.039" y="102.889" width="183.37" height="120.153" filterUnits="userSpaceOnUse" color-interpolation-filters="sRGB">
<feFlood flood-opacity="0" result="BackgroundImageFix"/>
<feColorMatrix in="SourceAlpha" type="matrix" values="0 0 0 0 0 0 0 0 0 0 0 0 0 0 0 0 0 0 127 0" result="hardAlpha"/>
<feOffset dy="5"/>
<feGaussianBlur stdDeviation="5"/>
<feComposite in2="hardAlpha" operator="out"/>
<feColorMatrix type="matrix" values="0 0 0 0 0 0 0 0 0 0 0 0 0 0 0 0 0 0 0.25 0"/>
<feBlend mode="normal" in2="BackgroundImageFix" result="effect1_dropShadow_18_2"/>
<feBlend mode="normal" in="SourceGraphic" in2="effect1_dropShadow_18_2" result="shape"/>
</filter>
<filter id="filter8_f_18_2" x="107.872" y="1307" width="243.698" height="246.674" filterUnits="userSpaceOnUse" color-interpolation-filters="sRGB">
<feFlood flood-opacity="0" result="BackgroundImageFix"/>
<feBlend mode="normal" in="SourceGraphic" in2="BackgroundImageFix" result="shape"/>
<feGaussianBlur stdDeviation="7.5" result="effect1_foregroundBlur_18_2"/>
</filter>
<filter id="filter9_d_18_2" x="148.039" y="1357.89" width="183.37" height="120.152" filterUnits="userSpaceOnUse" color-interpolation-filters="sRGB">
<feFlood flood-opacity="0" result="BackgroundImageFix"/>
<feColorMatrix in="SourceAlpha" type="matrix" values="0 0 0 0 0 0 0 0 0 0 0 0 0 0 0 0 0 0 127 0" result="hardAlpha"/>
<feOffset dy="5"/>
<feGaussianBlur stdDeviation="5"/>
<feComposite in2="hardAlpha" operator="out"/>
<feColorMatrix type="matrix" values="0 0 0 0 0 0 0 0 0 0 0 0 0 0 0 0 0 0 0.25 0"/>
<feBlend mode="normal" in2="BackgroundImageFix" result="effect1_dropShadow_18_2"/>
<feBlend mode="normal" in="SourceGraphic" in2="effect1_dropShadow_18_2" result="shape"/>
</filter>
<filter id="filter10_f_18_2" x="544.129" y="538.827" width="255.534" height="271.325" filterUnits="userSpaceOnUse" color-interpolation-filters="sRGB">
<feFlood flood-opacity="0" result="BackgroundImageFix"/>
<feBlend mode="normal" in="SourceGraphic" in2="BackgroundImageFix" result="shape"/>
<feGaussianBlur stdDeviation="7.5" result="effect1_foregroundBlur_18_2"/>
</filter>
<filter id="filter11_d_18_2" x="549.129" y="586.539" width="211.14" height="127.194" filterUnits="userSpaceOnUse" color-interpolation-filters="sRGB">
<feFlood flood-opacity="0" result="BackgroundImageFix"/>
<feColorMatrix in="SourceAlpha" type="matrix" values="0 0 0 0 0 0 0 0 0 0 0 0 0 0 0 0 0 0 127 0" result="hardAlpha"/>
<feOffset dy="5"/>
<feGaussianBlur stdDeviation="5"/>
<feComposite in2="hardAlpha" operator="out"/>
<feColorMatrix type="matrix" values="0 0 0 0 0 0 0 0 0 0 0 0 0 0 0 0 0 0 0.25 0"/>
<feBlend mode="normal" in2="BackgroundImageFix" result="effect1_dropShadow_18_2"/>
<feBlend mode="normal" in="SourceGraphic" in2="effect1_dropShadow_18_2" result="shape"/>
</filter>
<filter id="filter12_f_18_2" x="544.129" y="1793.83" width="255.534" height="271.325" filterUnits="userSpaceOnUse" color-interpolation-filters="sRGB">
<feFlood flood-opacity="0" result="BackgroundImageFix"/>
<feBlend mode="normal" in="SourceGraphic" in2="BackgroundImageFix" result="shape"/>
<feGaussianBlur stdDeviation="7.5" result="effect1_foregroundBlur_18_2"/>
</filter>
<filter id="filter13_d_18_2" x="549.129" y="1841.54" width="211.14" height="127.193" filterUnits="userSpaceOnUse" color-interpolation-filters="sRGB">
<feFlood flood-opacity="0" result="BackgroundImageFix"/>
<feColorMatrix in="SourceAlpha" type="matrix" values="0 0 0 0 0 0 0 0 0 0 0 0 0 0 0 0 0 0 127 0" result="hardAlpha"/>
<feOffset dy="5"/>
<feGaussianBlur stdDeviation="5"/>
<feComposite in2="hardAlpha" operator="out"/>
<feColorMatrix type="matrix" values="0 0 0 0 0 0 0 0 0 0 0 0 0 0 0 0 0 0 0.25 0"/>
<feBlend mode="normal" in2="BackgroundImageFix" result="effect1_dropShadow_18_2"/>
<feBlend mode="normal" in="SourceGraphic" in2="effect1_dropShadow_18_2" result="shape"/>
</filter>
<filter id="filter14_f_18_2" x="1469.14" y="346.896" width="196.683" height="210.401" filterUnits="userSpaceOnUse" color-interpolation-filters="sRGB">
<feFlood flood-opacity="0" result="BackgroundImageFix"/>
<feBlend mode="normal" in="SourceGraphic" in2="BackgroundImageFix" result="shape"/>
<feGaussianBlur stdDeviation="7.5" result="effect1_foregroundBlur_18_2"/>
</filter>
<filter id="filter15_d_18_2" x="1495.78" y="400.554" width="152.602" height="88.2825" filterUnits="userSpaceOnUse" color-interpolation-filters="sRGB">
<feFlood flood-opacity="0" result="BackgroundImageFix"/>
<feColorMatrix in="SourceAlpha" type="matrix" values="0 0 0 0 0 0 0 0 0 0 0 0 0 0 0 0 0 0 127 0" result="hardAlpha"/>
<feOffset dy="5"/>
<feGaussianBlur stdDeviation="5"/>
<feComposite in2="hardAlpha" operator="out"/>
<feColorMatrix type="matrix" values="0 0 0 0 0 0 0 0 0 0 0 0 0 0 0 0 0 0 0.25 0"/>
<feBlend mode="normal" in2="BackgroundImageFix" result="effect1_dropShadow_18_2"/>
<feBlend mode="normal" in="SourceGraphic" in2="effect1_dropShadow_18_2" result="shape"/>
</filter>
<filter id="filter16_f_18_2" x="1469.14" y="1601.9" width="196.683" height="210.401" filterUnits="userSpaceOnUse" color-interpolation-filters="sRGB">
<feFlood flood-opacity="0" result="BackgroundImageFix"/>
<feBlend mode="normal" in="SourceGraphic" in2="BackgroundImageFix" result="shape"/>
<feGaussianBlur stdDeviation="7.5" result="effect1_foregroundBlur_18_2"/>
</filter>
<filter id="filter17_d_18_2" x="1495.78" y="1655.55" width="152.602" height="88.2825" filterUnits="userSpaceOnUse" color-interpolation-filters="sRGB">
<feFlood flood-opacity="0" result="BackgroundImageFix"/>
<feColorMatrix in="SourceAlpha" type="matrix" values="0 0 0 0 0 0 0 0 0 0 0 0 0 0 0 0 0 0 127 0" result="hardAlpha"/>
<feOffset dy="5"/>
<feGaussianBlur stdDeviation="5"/>
<feComposite in2="hardAlpha" operator="out"/>
<feColorMatrix type="matrix" values="0 0 0 0 0 0 0 0 0 0 0 0 0 0 0 0 0 0 0.25 0"/>
<feBlend mode="normal" in2="BackgroundImageFix" result="effect1_dropShadow_18_2"/>
<feBlend mode="normal" in="SourceGraphic" in2="effect1_dropShadow_18_2" result="shape"/>
</filter>
<filter id="filter18_f_18_2" x="1591.26" y="788.492" width="176.312" height="206.703" filterUnits="userSpaceOnUse" color-interpolation-filters="sRGB">
<feFlood flood-opacity="0" result="BackgroundImageFix"/>
<feBlend mode="normal" in="SourceGraphic" in2="BackgroundImageFix" result="shape"/>
<feGaussianBlur stdDeviation="7.5" result="effect1_foregroundBlur_18_2"/>
</filter>
<filter id="filter19_d_18_2" x="1596.26" y="842.418" width="156.497" height="82.1121" filterUnits="userSpaceOnUse" color-interpolation-filters="sRGB">
<feFlood flood-opacity="0" result="BackgroundImageFix"/>
<feColorMatrix in="SourceAlpha" type="matrix" values="0 0 0 0 0 0 0 0 0 0 0 0 0 0 0 0 0 0 127 0" result="hardAlpha"/>
<feOffset dy="5"/>
<feGaussianBlur stdDeviation="5"/>
<feComposite in2="hardAlpha" operator="out"/>
<feColorMatrix type="matrix" values="0 0 0 0 0 0 0 0 0 0 0 0 0 0 0 0 0 0 0.25 0"/>
<feBlend mode="normal" in2="BackgroundImageFix" result="effect1_dropShadow_18_2"/>
<feBlend mode="normal" in="SourceGraphic" in2="effect1_dropShadow_18_2" result="shape"/>
</filter>
<linearGradient id="paint0_linear_18_2" x1="146.839" y1="156.543" x2="397.015" y2="282" gradientUnits="userSpaceOnUse">
<stop stop-color="#2BB3FF"/>
<stop offset="1" stop-color="#1A6B99"/>
</linearGradient>
<linearGradient id="paint1_linear_18_2" x1="160.859" y1="161.834" x2="389.57" y2="276.527" gradientUnits="userSpaceOnUse">
<stop stop-color="#2BB3FF"/>
<stop offset="1" stop-color="#1A6B99"/>
</linearGradient>
<linearGradient id="paint2_linear_18_2" x1="330.658" y1="259.163" x2="99.726" y2="143.357" gradientUnits="userSpaceOnUse">
<stop stop-color="#0038A6"/>
<stop offset="1" stop-color="#4B88FF"/>
</linearGradient>
<linearGradient id="paint3_linear_18_2" x1="248.744" y1="138.048" x2="248.744" y2="145.825" gradientUnits="userSpaceOnUse">
<stop stop-color="#0038A6"/>
<stop offset="1" stop-color="#4B88FF"/>
</linearGradient>
<linearGradient id="paint4_linear_18_2" x1="168.246" y1="209.907" x2="238.216" y2="244.009" gradientUnits="userSpaceOnUse">
<stop stop-color="#0038A6"/>
<stop offset="1" stop-color="#4B88FF"/>
</linearGradient>
<linearGradient id="paint5_linear_18_2" x1="233.195" y1="145.041" x2="379.001" y2="166.491" gradientUnits="userSpaceOnUse">
<stop stop-color="#0038A6"/>
<stop offset="1" stop-color="#4B88FF"/>
</linearGradient>
<linearGradient id="paint6_linear_18_2" x1="247.803" y1="84.5084" x2="242.328" y2="191.972" gradientUnits="userSpaceOnUse">
<stop stop-color="#0038A6"/>
<stop offset="1" stop-color="#4B88FF"/>
</linearGradient>
<linearGradient id="paint7_linear_18_2" x1="146.839" y1="1411.54" x2="397.015" y2="1537" gradientUnits="userSpaceOnUse">
<stop stop-color="#2BB3FF"/>
<stop offset="1" stop-color="#1A6B99"/>
</linearGradient>
<linearGradient id="paint8_linear_18_2" x1="160.859" y1="1416.83" x2="389.57" y2="1531.53" gradientUnits="userSpaceOnUse">
<stop stop-color="#2BB3FF"/>
<stop offset="1" stop-color="#1A6B99"/>
</linearGradient>
<linearGradient id="paint9_linear_18_2" x1="330.658" y1="1514.16" x2="99.726" y2="1398.36" gradientUnits="userSpaceOnUse">
<stop stop-color="#0038A6"/>
<stop offset="1" stop-color="#4B88FF"/>
</linearGradient>
<linearGradient id="paint10_linear_18_2" x1="248.744" y1="1393.05" x2="248.744" y2="1400.82" gradientUnits="userSpaceOnUse">
<stop stop-color="#0038A6"/>
<stop offset="1" stop-color="#4B88FF"/>
</linearGradient>
<linearGradient id="paint11_linear_18_2" x1="168.246" y1="1464.91" x2="238.216" y2="1499.01" gradientUnits="userSpaceOnUse">
<stop stop-color="#0038A6"/>
<stop offset="1" stop-color="#4B88FF"/>
</linearGradient>
<linearGradient id="paint12_linear_18_2" x1="233.195" y1="1400.04" x2="379.001" y2="1421.49" gradientUnits="userSpaceOnUse">
<stop stop-color="#0038A6"/>
<stop offset="1" stop-color="#4B88FF"/>
</linearGradient>
<linearGradient id="paint13_linear_18_2" x1="247.803" y1="1339.51" x2="242.328" y2="1446.97" gradientUnits="userSpaceOnUse">
<stop stop-color="#0038A6"/>
<stop offset="1" stop-color="#4B88FF"/>
</linearGradient>
<linearGradient id="paint14_linear_18_2" x1="586.008" y1="726.972" x2="879.258" y2="603.098" gradientUnits="userSpaceOnUse">
<stop stop-color="#2BB3FF"/>
<stop offset="1" stop-color="#1A6B99"/>
</linearGradient>
<linearGradient id="paint15_linear_18_2" x1="600.904" y1="718.668" x2="868.993" y2="605.422" gradientUnits="userSpaceOnUse">
<stop stop-color="#2BB3FF"/>
<stop offset="1" stop-color="#1A6B99"/>
</linearGradient>
<linearGradient id="paint16_linear_18_2" x1="810.706" y1="644.128" x2="540.014" y2="758.473" gradientUnits="userSpaceOnUse">
<stop stop-color="#0038A6"/>
<stop offset="1" stop-color="#4B88FF"/>
</linearGradient>
<linearGradient id="paint17_linear_18_2" x1="643.919" y1="622.027" x2="643.919" y2="631.295" gradientUnits="userSpaceOnUse">
<stop stop-color="#0038A6"/>
<stop offset="1" stop-color="#4B88FF"/>
</linearGradient>
<linearGradient id="paint18_linear_18_2" x1="648.794" y1="749.746" x2="729.975" y2="714.414" gradientUnits="userSpaceOnUse">
<stop stop-color="#0038A6"/>
<stop offset="1" stop-color="#4B88FF"/>
</linearGradient>
<linearGradient id="paint19_linear_18_2" x1="638.771" y1="641.305" x2="767.021" y2="532.216" gradientUnits="userSpaceOnUse">
<stop stop-color="#0038A6"/>
<stop offset="1" stop-color="#4B88FF"/>
</linearGradient>
<linearGradient id="paint20_linear_18_2" x1="595.893" y1="580.947" x2="689.867" y2="666.714" gradientUnits="userSpaceOnUse">
<stop stop-color="#0038A6"/>
<stop offset="1" stop-color="#4B88FF"/>
</linearGradient>
<linearGradient id="paint21_linear_18_2" x1="586.008" y1="1981.97" x2="879.258" y2="1858.1" gradientUnits="userSpaceOnUse">
<stop stop-color="#2BB3FF"/>
<stop offset="1" stop-color="#1A6B99"/>
</linearGradient>
<linearGradient id="paint22_linear_18_2" x1="600.904" y1="1973.67" x2="868.993" y2="1860.42" gradientUnits="userSpaceOnUse">
<stop stop-color="#2BB3FF"/>
<stop offset="1" stop-color="#1A6B99"/>
</linearGradient>
<linearGradient id="paint23_linear_18_2" x1="810.706" y1="1899.13" x2="540.014" y2="2013.47" gradientUnits="userSpaceOnUse">
<stop stop-color="#0038A6"/>
<stop offset="1" stop-color="#4B88FF"/>
</linearGradient>
<linearGradient id="paint24_linear_18_2" x1="643.919" y1="1877.03" x2="643.919" y2="1886.29" gradientUnits="userSpaceOnUse">
<stop stop-color="#0038A6"/>
<stop offset="1" stop-color="#4B88FF"/>
</linearGradient>
<linearGradient id="paint25_linear_18_2" x1="648.794" y1="2004.75" x2="729.975" y2="1969.41" gradientUnits="userSpaceOnUse">
<stop stop-color="#0038A6"/>
<stop offset="1" stop-color="#4B88FF"/>
</linearGradient>
<linearGradient id="paint26_linear_18_2" x1="638.771" y1="1896.3" x2="767.021" y2="1787.22" gradientUnits="userSpaceOnUse">
<stop stop-color="#0038A6"/>
<stop offset="1" stop-color="#4B88FF"/>
</linearGradient>
<linearGradient id="paint27_linear_18_2" x1="595.893" y1="1835.95" x2="689.867" y2="1921.71" gradientUnits="userSpaceOnUse">
<stop stop-color="#0038A6"/>
<stop offset="1" stop-color="#4B88FF"/>
</linearGradient>
<linearGradient id="paint28_linear_18_2" x1="1498.78" y1="446.229" x2="1706.41" y2="523.163" gradientUnits="userSpaceOnUse">
<stop stop-color="#2BB3FF"/>
<stop offset="1" stop-color="#1A6B99"/>
</linearGradient>
<linearGradient id="paint29_linear_18_2" x1="1510.28" y1="449.128" x2="1700.09" y2="519.46" gradientUnits="userSpaceOnUse">
<stop stop-color="#2BB3FF"/>
<stop offset="1" stop-color="#1A6B99"/>
</linearGradient>
<linearGradient id="paint30_linear_18_2" x1="1652.14" y1="511.237" x2="1460.48" y2="440.221" gradientUnits="userSpaceOnUse">
<stop stop-color="#0038A6"/>
<stop offset="1" stop-color="#4B88FF"/>
</linearGradient>
<linearGradient id="paint31_linear_18_2" x1="1577.98" y1="421.035" x2="1577.98" y2="427.428" gradientUnits="userSpaceOnUse">
<stop stop-color="#0038A6"/>
<stop offset="1" stop-color="#4B88FF"/>
</linearGradient>
<linearGradient id="paint32_linear_18_2" x1="1519.84" y1="487.438" x2="1577.81" y2="508.204" gradientUnits="userSpaceOnUse">
<stop stop-color="#0038A6"/>
<stop offset="1" stop-color="#4B88FF"/>
</linearGradient>
<linearGradient id="paint33_linear_18_2" x1="1566.21" y1="428.267" x2="1683.11" y2="433.801" gradientUnits="userSpaceOnUse">
<stop stop-color="#0038A6"/>
<stop offset="1" stop-color="#4B88FF"/>
</linearGradient>
<linearGradient id="paint34_linear_18_2" x1="1573.1" y1="377.64" x2="1579.54" y2="465.294" gradientUnits="userSpaceOnUse">
<stop stop-color="#0038A6"/>
<stop offset="1" stop-color="#4B88FF"/>
</linearGradient>
<linearGradient id="paint35_linear_18_2" x1="1498.78" y1="1701.23" x2="1706.41" y2="1778.16" gradientUnits="userSpaceOnUse">
<stop stop-color="#2BB3FF"/>
<stop offset="1" stop-color="#1A6B99"/>
</linearGradient>
<linearGradient id="paint36_linear_18_2" x1="1510.28" y1="1704.13" x2="1700.09" y2="1774.46" gradientUnits="userSpaceOnUse">
<stop stop-color="#2BB3FF"/>
<stop offset="1" stop-color="#1A6B99"/>
</linearGradient>
<linearGradient id="paint37_linear_18_2" x1="1652.14" y1="1766.24" x2="1460.48" y2="1695.22" gradientUnits="userSpaceOnUse">
<stop stop-color="#0038A6"/>
<stop offset="1" stop-color="#4B88FF"/>
</linearGradient>
<linearGradient id="paint38_linear_18_2" x1="1577.98" y1="1676.03" x2="1577.98" y2="1682.43" gradientUnits="userSpaceOnUse">
<stop stop-color="#0038A6"/>
<stop offset="1" stop-color="#4B88FF"/>
</linearGradient>
<linearGradient id="paint39_linear_18_2" x1="1519.84" y1="1742.44" x2="1577.81" y2="1763.2" gradientUnits="userSpaceOnUse">
<stop stop-color="#0038A6"/>
<stop offset="1" stop-color="#4B88FF"/>
</linearGradient>
<linearGradient id="paint40_linear_18_2" x1="1566.21" y1="1683.27" x2="1683.11" y2="1688.8" gradientUnits="userSpaceOnUse">
<stop stop-color="#0038A6"/>
<stop offset="1" stop-color="#4B88FF"/>
</linearGradient>
<linearGradient id="paint41_linear_18_2" x1="1573.1" y1="1632.64" x2="1579.54" y2="1720.29" gradientUnits="userSpaceOnUse">
<stop stop-color="#0038A6"/>
<stop offset="1" stop-color="#4B88FF"/>
</linearGradient>
<linearGradient id="paint42_linear_18_2" x1="1616.04" y1="917.202" x2="1833.09" y2="873.402" gradientUnits="userSpaceOnUse">
<stop stop-color="#2BB3FF"/>
<stop offset="1" stop-color="#1A6B99"/>
</linearGradient>
<linearGradient id="paint43_linear_18_2" x1="1627.35" y1="913.616" x2="1825.78" y2="873.574" gradientUnits="userSpaceOnUse">
<stop stop-color="#2BB3FF"/>
<stop offset="1" stop-color="#1A6B99"/>
</linearGradient>
<linearGradient id="paint44_linear_18_2" x1="1780.67" y1="891.807" x2="1580.32" y2="932.238" gradientUnits="userSpaceOnUse">
<stop stop-color="#0038A6"/>
<stop offset="1" stop-color="#4B88FF"/>
</linearGradient>
<linearGradient id="paint45_linear_18_2" x1="1670.14" y1="854.112" x2="1670.14" y2="860.505" gradientUnits="userSpaceOnUse">
<stop stop-color="#0038A6"/>
<stop offset="1" stop-color="#4B88FF"/>
</linearGradient>
<linearGradient id="paint46_linear_18_2" x1="1655.63" y1="941.169" x2="1715.86" y2="928.33" gradientUnits="userSpaceOnUse">
<stop stop-color="#0038A6"/>
<stop offset="1" stop-color="#4B88FF"/>
</linearGradient>
<linearGradient id="paint47_linear_18_2" x1="1663.94" y1="866.45" x2="1766.27" y2="809.663" gradientUnits="userSpaceOnUse">
<stop stop-color="#0038A6"/>
<stop offset="1" stop-color="#4B88FF"/>
</linearGradient>
<linearGradient id="paint48_linear_18_2" x1="1643.16" y1="819.774" x2="1694.75" y2="890.931" gradientUnits="userSpaceOnUse">
<stop stop-color="#0038A6"/>
<stop offset="1" stop-color="#4B88FF"/>
</linearGradient>
<clipPath id="clip0_18_2">
<rect width="1920" height="1920" fill="white"/>
</clipPath>
</defs>
</svg>
