<svg width="250" height="150" viewBox="0 0 250 150" fill="none" xmlns="http://www.w3.org/2000/svg">
<g clip-path="url(#clip0_8_79)">
<g filter="url(#filter0_d_8_79)">
<path d="M144.5 26L218 59.0996L186 150H31L144.5 26Z" fill="white"/>
<path d="M145.333 39C146.298 37.2843 151.683 38.1305 152.815 39.4074C154.552 41.3674 157.09 44.3727 159.852 44.6296C164.365 45.0495 169.07 43.4617 171 48.5556C172.402 52.2561 174.159 53.7484 177.463 55.6667C179.891 57.0763 182.4 57.4522 184.907 58.5556C186.683 59.3368 188.233 60.294 190.222 60.3333C193.232 60.3929 196.249 60.3333 199.259 60.3333C202.998 60.3333 201.618 63.8962 203.556 66.0926C203.921 66.507 207.514 67.6667 206.667 67.6667" stroke="black" stroke-width="3" stroke-linecap="round"/>
<path d="M133.333 56C135.444 54.1114 137.466 54.3333 140.185 54.3333C144.049 54.3333 146.145 53.9021 147.333 58.2593C148.385 62.1166 150.037 62.3814 153.796 63.0185C156.094 63.408 158.639 64.452 159.926 66.5C161.541 69.0702 161.847 72.5647 163.815 74.9259C166.127 77.7007 173.141 75.0327 176.185 75C179.897 74.9601 182.956 75.4012 186.426 76.8148C188.725 77.7515 191.629 78.8243 193.481 80.5C194.341 81.2774 196.44 84.6667 194.667 84.6667" stroke="black" stroke-width="3" stroke-linecap="round"/>
<path d="M121.333 76.6667C124.581 76.6667 127.92 76.4256 131.148 76.8148C135.705 77.3642 136.933 79.6858 138.852 83.5926C140.834 87.6298 145.23 86.1648 149.111 86.4074C151.56 86.5605 153.917 86.9688 156.148 88.0185C157.845 88.817 158.769 90.0614 160.204 91.1482C162.414 92.8226 164.486 93.3333 167.259 93.3333C169.099 93.3333 175.976 92.3199 176.611 95.0741C177.108 97.2294 177.671 100.896 179.833 102.148C181.102 102.882 181.885 102.707 180 102" stroke="black" stroke-width="3" stroke-linecap="round"/>
<path d="M99.6667 91.6667C103.942 91.6667 108.592 91.1417 112.759 92.2222C118.935 93.8233 120.755 100.012 124.889 104.111C129.114 108.3 135.41 107.335 140.759 108.333C142.416 108.643 144.506 108.71 146 109.556C147.592 110.456 148.552 111.419 150.482 111.593C152.927 111.813 160.912 110.071 161.611 113.426C162.326 116.859 162.615 118.649 165.741 120.667C168.977 122.756 172.543 122.459 176.13 123.333C177.01 123.548 177.8 123.667 178.704 123.667C179.943 123.667 176.23 123.487 175 123.333" stroke="black" stroke-width="3" stroke-linecap="round"/>
<path d="M88 143L109 118.5L144.5 135.5L131.5 163.5L88 143Z" fill="white" stroke="black"/>
<path d="M105 129.5L110 123.5L116.5 126.5L112.5 133L105 129.5Z" stroke="black"/>
<path d="M107.5 129L110 125.5L114.5 127.5L112 131.5L107.5 129Z" fill="black"/>
<path d="M95 142L100 136L106.5 139L102.5 145.5L95 142Z" stroke="black"/>
<path d="M97.5 141.5L100 138L104.5 140L102 144L97.5 141.5Z" fill="black"/>
<path d="M120 128.833C117.629 130.507 117.291 133.652 117.333 136.389C117.349 137.396 119.193 134.992 119.472 134.704C119.672 134.497 121.516 132.355 121.222 133.389C121.105 133.801 120.34 135.326 121.185 134.481C121.853 133.813 122.616 133.333 123.593 133.333C124.757 133.333 124.452 136.143 124.667 137" stroke="black" stroke-width="3" stroke-linecap="round"/>
<path d="M103.333 133.167C103.333 134.43 103.559 135.331 104.778 135.972C105.901 136.564 107.309 136.833 108.574 136.833C109.102 136.833 110.531 137 109.037 137C108.632 137 106.833 137.361 106.833 136.667" stroke="white" stroke-width="3" stroke-linecap="round"/>
<path d="M105.167 133.5C105.817 132.036 109.39 137.084 109.778 137.5C110.612 138.395 112.166 139.764 113.426 140.093C114.178 140.289 115.072 140.133 115.676 140.694C116.648 141.597 117.822 142.181 118.889 142.963C121.012 144.518 121.954 148.167 125 148.167" stroke="white" stroke-width="3" stroke-linecap="round"/>
<path d="M128 140L133 134L139.5 137L135.5 143.5L128 140Z" stroke="black"/>
<path d="M130.5 139.5L133 136L137.5 138L135 142L130.5 139.5Z" fill="black"/>
<path d="M103.333 133.833C104.901 133.833 106.347 133.735 107.704 134.639C108.767 135.347 108.886 136.411 109.63 137.407C110.131 138.079 110.73 138.343 111.528 138.509C112.046 138.617 113.015 138.733 113.426 139.111C113.923 139.569 113.786 141.158 113.935 141.769C114.432 143.808 116.167 143.333 117.852 143.537C118.999 143.676 119.817 145.294 120.676 145.972C121.597 146.699 123.245 146.749 124.37 147.111C125.737 147.551 126.936 147.333 128.333 147.333" stroke="black" stroke-width="3" stroke-linecap="round"/>
<path d="M112.167 147.667C112.519 147.442 112.931 147.721 113.241 147.907C113.828 148.26 114.424 148.173 115 148.444C115.604 148.729 116.111 149.296 116.667 149.667" stroke="black" stroke-width="3" stroke-linecap="round"/>
<path d="M132.667 148.667C132.667 147.986 133.717 148.333 134.333 148.333" stroke="black" stroke-width="3" stroke-linecap="round"/>
<path d="M106 145.667C107.794 145.504 106.802 143.438 108 142.87C109.535 142.143 109.486 144.712 110.333 144.5" stroke="black" stroke-width="3" stroke-linecap="round"/>
</g>
</g>
<defs>
<filter id="filter0_d_8_79" x="16" y="11" width="217" height="168.167" filterUnits="userSpaceOnUse" color-interpolation-filters="sRGB">
<feFlood flood-opacity="0" result="BackgroundImageFix"/>
<feColorMatrix in="SourceAlpha" type="matrix" values="0 0 0 0 0 0 0 0 0 0 0 0 0 0 0 0 0 0 127 0" result="hardAlpha"/>
<feOffset/>
<feGaussianBlur stdDeviation="7.5"/>
<feComposite in2="hardAlpha" operator="out"/>
<feColorMatrix type="matrix" values="0 0 0 0 0 0 0 0 0 0 0 0 0 0 0 0 0 0 0.25 0"/>
<feBlend mode="normal" in2="BackgroundImageFix" result="effect1_dropShadow_8_79"/>
<feBlend mode="normal" in="SourceGraphic" in2="effect1_dropShadow_8_79" result="shape"/>
</filter>
<clipPath id="clip0_8_79">
<rect width="250" height="150" fill="white"/>
</clipPath>
</defs>
</svg>
