<svg width="250" height="150" viewBox="0 0 250 150" fill="none" xmlns="http://www.w3.org/2000/svg">
<g clip-path="url(#clip0_12_206)">
<path d="M0 10C0 4.47715 4.47715 0 10 0H140C145.523 0 150 4.47715 150 10V24.7222C150 30.2451 145.523 34.7222 140 34.7222H73.2H23.6163C19.5043 34.7222 15.8115 37.2393 14.3083 41.0667L12.4002 45.9253C11.4349 48.3834 9.06322 50 6.42236 50C2.87539 50 0 47.1246 0 43.5776V34.7222V10Z" fill="#C1C1C1"/>
<path d="M0 65C0 59.4772 4.47715 55 10 55H140C145.523 55 150 59.4772 150 65V79.7222C150 85.2451 145.523 89.7222 140 89.7222H73.2H23.6163C19.5043 89.7222 15.8115 92.2393 14.3083 96.0667L12.4002 100.925C11.4349 103.383 9.06322 105 6.42236 105C2.87539 105 0 102.125 0 98.5776V89.7222V65Z" fill="#C1C1C1"/>
<path d="M250 110C250 104.477 245.523 100 240 100H110C104.477 100 100 104.477 100 110V124.722C100 130.245 104.477 134.722 110 134.722H176.8H226.384C230.496 134.722 234.189 137.239 235.692 141.067L237.6 145.925C238.565 148.383 240.937 150 243.578 150C247.125 150 250 147.125 250 143.578V134.722V110Z" fill="#31B5FF"/>
<path d="M16.344 21.096C15.912 21.096 15.5093 21.0267 15.136 20.888C14.768 20.744 14.448 20.5413 14.176 20.28C13.904 20.0187 13.6907 19.712 13.536 19.36C13.3867 19.008 13.312 18.6213 13.312 18.2C13.312 17.7787 13.3867 17.392 13.536 17.04C13.6907 16.688 13.904 16.3813 14.176 16.12C14.4533 15.8587 14.776 15.6587 15.144 15.52C15.512 15.376 15.9147 15.304 16.352 15.304C16.8373 15.304 17.2747 15.3893 17.664 15.56C18.0587 15.7253 18.3893 15.9707 18.656 16.296L17.824 17.064C17.632 16.8453 17.4187 16.6827 17.184 16.576C16.9493 16.464 16.6933 16.408 16.416 16.408C16.1547 16.408 15.9147 16.4507 15.696 16.536C15.4773 16.6213 15.288 16.744 15.128 16.904C14.968 17.064 14.8427 17.2533 14.752 17.472C14.6667 17.6907 14.624 17.9333 14.624 18.2C14.624 18.4667 14.6667 18.7093 14.752 18.928C14.8427 19.1467 14.968 19.336 15.128 19.496C15.288 19.656 15.4773 19.7787 15.696 19.864C15.9147 19.9493 16.1547 19.992 16.416 19.992C16.6933 19.992 16.9493 19.9387 17.184 19.832C17.4187 19.72 17.632 19.552 17.824 19.328L18.656 20.096C18.3893 20.4213 18.0587 20.6693 17.664 20.84C17.2747 21.0107 16.8347 21.096 16.344 21.096ZM19.4047 21V16.696H23.6847V21H22.4367V17.44L22.7167 17.72H20.3647L20.6447 17.44V21H19.4047ZM27.4573 21V20.16L27.3773 19.976V18.472C27.3773 18.2053 27.2946 17.9973 27.1293 17.848C26.9693 17.6987 26.7213 17.624 26.3853 17.624C26.1559 17.624 25.9293 17.6613 25.7053 17.736C25.4866 17.8053 25.2999 17.9013 25.1453 18.024L24.6973 17.152C24.9319 16.9867 25.2146 16.8587 25.5453 16.768C25.8759 16.6773 26.2119 16.632 26.5533 16.632C27.2093 16.632 27.7186 16.7867 28.0813 17.096C28.4439 17.4053 28.6253 17.888 28.6253 18.544V21H27.4573ZM26.1453 21.064C25.8093 21.064 25.5213 21.008 25.2812 20.896C25.0413 20.7787 24.8573 20.6213 24.7293 20.424C24.6013 20.2267 24.5373 20.0053 24.5373 19.76C24.5373 19.504 24.5986 19.28 24.7213 19.088C24.8493 18.896 25.0493 18.7467 25.3213 18.64C25.5933 18.528 25.9479 18.472 26.3853 18.472H27.5293V19.2H26.5213C26.2279 19.2 26.0253 19.248 25.9133 19.344C25.8066 19.44 25.7533 19.56 25.7533 19.704C25.7533 19.864 25.8146 19.992 25.9373 20.088C26.0653 20.1787 26.2386 20.224 26.4573 20.224C26.6653 20.224 26.8519 20.176 27.0173 20.08C27.1826 19.9787 27.3026 19.832 27.3773 19.64L27.5693 20.216C27.4786 20.4933 27.3133 20.704 27.0733 20.848C26.8333 20.992 26.5239 21.064 26.1453 21.064ZM31.7574 21.064C31.2934 21.064 30.88 20.9707 30.5174 20.784C30.1547 20.592 29.8694 20.328 29.6614 19.992C29.4587 19.656 29.3574 19.2747 29.3574 18.848C29.3574 18.416 29.4587 18.0347 29.6614 17.704C29.8694 17.368 30.1547 17.1067 30.5174 16.92C30.88 16.728 31.2934 16.632 31.7574 16.632C32.2107 16.632 32.6054 16.728 32.9414 16.92C33.2774 17.1067 33.5254 17.376 33.6854 17.728L32.7174 18.248C32.6054 18.0453 32.464 17.896 32.2934 17.8C32.128 17.704 31.9467 17.656 31.7494 17.656C31.536 17.656 31.344 17.704 31.1734 17.8C31.0027 17.896 30.8667 18.032 30.7654 18.208C30.6694 18.384 30.6214 18.5973 30.6214 18.848C30.6214 19.0987 30.6694 19.312 30.7654 19.488C30.8667 19.664 31.0027 19.8 31.1734 19.896C31.344 19.992 31.536 20.04 31.7494 20.04C31.9467 20.04 32.128 19.9947 32.2934 19.904C32.464 19.808 32.6054 19.656 32.7174 19.448L33.6854 19.976C33.5254 20.3227 33.2774 20.592 32.9414 20.784C32.6054 20.9707 32.2107 21.064 31.7574 21.064ZM34.4438 21V16.696H35.6838V19.256L37.7798 16.696H38.9238V21H37.6838V18.44L35.5958 21H34.4438ZM42.2594 21.096C41.9074 21.096 41.5874 21.0453 41.2994 20.944C41.0114 20.8373 40.7608 20.6747 40.5474 20.456C40.3394 20.232 40.1768 19.9467 40.0594 19.6C39.9474 19.2533 39.8914 18.84 39.8914 18.36C39.8914 18.0187 39.9208 17.7067 39.9794 17.424C40.0381 17.1413 40.1261 16.8853 40.2434 16.656C40.3608 16.4213 40.5101 16.216 40.6914 16.04C40.8781 15.8587 41.0941 15.7093 41.3394 15.592C41.5901 15.4693 41.8728 15.376 42.1874 15.312L44.2354 14.904L44.4034 15.976L42.5954 16.336C42.4888 16.3573 42.3661 16.3867 42.2274 16.424C42.0941 16.456 41.9581 16.5067 41.8194 16.576C41.6861 16.6453 41.5608 16.744 41.4434 16.872C41.3314 16.9947 41.2408 17.1573 41.1714 17.36C41.1021 17.5573 41.0674 17.8027 41.0674 18.096C41.0674 18.1867 41.0701 18.256 41.0754 18.304C41.0861 18.352 41.0941 18.4027 41.0994 18.456C41.1101 18.5093 41.1154 18.592 41.1154 18.704L40.7154 18.312C40.8328 18.0613 40.9821 17.848 41.1634 17.672C41.3501 17.496 41.5634 17.3627 41.8034 17.272C42.0488 17.176 42.3208 17.128 42.6194 17.128C43.0248 17.128 43.3794 17.2107 43.6834 17.376C43.9928 17.536 44.2328 17.7627 44.4034 18.056C44.5741 18.3493 44.6594 18.6827 44.6594 19.056C44.6594 19.4613 44.5581 19.8187 44.3554 20.128C44.1528 20.432 43.8701 20.6693 43.5074 20.84C43.1501 21.0107 42.7341 21.096 42.2594 21.096ZM42.3234 20.128C42.5314 20.128 42.7154 20.0827 42.8754 19.992C43.0354 19.896 43.1581 19.7707 43.2434 19.616C43.3341 19.456 43.3794 19.2773 43.3794 19.08C43.3794 18.888 43.3341 18.7173 43.2434 18.568C43.1581 18.4187 43.0354 18.3013 42.8754 18.216C42.7154 18.1307 42.5288 18.088 42.3154 18.088C42.1074 18.088 41.9208 18.1307 41.7554 18.216C41.5901 18.296 41.4621 18.408 41.3714 18.552C41.2808 18.696 41.2354 18.864 41.2354 19.056C41.2354 19.2533 41.2808 19.4347 41.3714 19.6C41.4674 19.76 41.5954 19.888 41.7554 19.984C41.9208 20.08 42.1101 20.128 42.3234 20.128ZM47.5223 21.064C47.0636 21.064 46.6556 20.968 46.2983 20.776C45.9463 20.584 45.6663 20.3227 45.4583 19.992C45.2556 19.656 45.1543 19.2747 45.1543 18.848C45.1543 18.416 45.2556 18.0347 45.4583 17.704C45.6663 17.368 45.9463 17.1067 46.2983 16.92C46.6556 16.728 47.0636 16.632 47.5223 16.632C47.9756 16.632 48.3809 16.728 48.7383 16.92C49.0956 17.1067 49.3756 17.3653 49.5783 17.696C49.7809 18.0267 49.8823 18.4107 49.8823 18.848C49.8823 19.2747 49.7809 19.656 49.5783 19.992C49.3756 20.3227 49.0956 20.584 48.7383 20.776C48.3809 20.968 47.9756 21.064 47.5223 21.064ZM47.5223 20.04C47.7303 20.04 47.9169 19.992 48.0823 19.896C48.2476 19.8 48.3783 19.664 48.4743 19.488C48.5703 19.3067 48.6183 19.0933 48.6183 18.848C48.6183 18.5973 48.5703 18.384 48.4743 18.208C48.3783 18.032 48.2476 17.896 48.0823 17.8C47.9169 17.704 47.7303 17.656 47.5223 17.656C47.3143 17.656 47.1276 17.704 46.9622 17.8C46.7969 17.896 46.6636 18.032 46.5623 18.208C46.4663 18.384 46.4183 18.5973 46.4183 18.848C46.4183 19.0933 46.4663 19.3067 46.5623 19.488C46.6636 19.664 46.7969 19.8 46.9622 19.896C47.1276 19.992 47.3143 20.04 47.5223 20.04ZM50.4538 22.232L50.9818 20.312L51.1578 21.032C50.9284 21.032 50.7391 20.9653 50.5898 20.832C50.4458 20.6987 50.3738 20.5147 50.3738 20.28C50.3738 20.0453 50.4484 19.8587 50.5978 19.72C50.7471 19.5813 50.9311 19.512 51.1497 19.512C51.3738 19.512 51.5578 19.584 51.7018 19.728C51.8458 19.8667 51.9178 20.0507 51.9178 20.28C51.9178 20.3493 51.9124 20.4187 51.9018 20.488C51.8911 20.552 51.8698 20.632 51.8378 20.728C51.8111 20.8187 51.7658 20.936 51.7018 21.08L51.2458 22.232H50.4538ZM57.7651 19.352C57.5891 19.448 57.3945 19.5253 57.1811 19.584C56.9678 19.6427 56.7331 19.672 56.4771 19.672C55.9118 19.672 55.4771 19.544 55.1731 19.288C54.8691 19.0267 54.7171 18.6133 54.7171 18.048V16.696H55.9651V17.968C55.9651 18.2347 56.0345 18.4267 56.1731 18.544C56.3118 18.656 56.5065 18.712 56.7571 18.712C56.9385 18.712 57.1118 18.6907 57.2771 18.648C57.4478 18.6053 57.6105 18.544 57.7651 18.464V19.352ZM57.6771 21V16.696H58.9251V21H57.6771ZM61.0434 21V17.432L61.3234 17.72H59.5874V16.696H63.7394V17.72H62.0034L62.2834 17.432V21H61.0434ZM66.241 21.064C65.7823 21.064 65.3743 20.968 65.017 20.776C64.665 20.584 64.385 20.3227 64.177 19.992C63.9743 19.656 63.873 19.2747 63.873 18.848C63.873 18.416 63.9743 18.0347 64.177 17.704C64.385 17.368 64.665 17.1067 65.017 16.92C65.3743 16.728 65.7823 16.632 66.241 16.632C66.6943 16.632 67.0997 16.728 67.457 16.92C67.8143 17.1067 68.0943 17.3653 68.297 17.696C68.4997 18.0267 68.601 18.4107 68.601 18.848C68.601 19.2747 68.4997 19.656 68.297 19.992C68.0943 20.3227 67.8143 20.584 67.457 20.776C67.0997 20.968 66.6943 21.064 66.241 21.064ZM66.241 20.04C66.449 20.04 66.6357 19.992 66.801 19.896C66.9663 19.8 67.097 19.664 67.193 19.488C67.289 19.3067 67.337 19.0933 67.337 18.848C67.337 18.5973 67.289 18.384 67.193 18.208C67.097 18.032 66.9663 17.896 66.801 17.8C66.6357 17.704 66.449 17.656 66.241 17.656C66.033 17.656 65.8463 17.704 65.681 17.8C65.5157 17.896 65.3823 18.032 65.281 18.208C65.185 18.384 65.137 18.5973 65.137 18.848C65.137 19.0933 65.185 19.3067 65.281 19.488C65.3823 19.664 65.5157 19.8 65.681 19.896C65.8463 19.992 66.033 20.04 66.241 20.04ZM71.725 21V16.696H76.005V21H74.757V17.44L75.037 17.72H72.685L72.965 17.44V21H71.725ZM79.7376 21.064C79.3749 21.064 79.0576 20.984 78.7856 20.824C78.5136 20.664 78.3002 20.4213 78.1456 20.096C77.9962 19.7653 77.9216 19.3493 77.9216 18.848C77.9216 18.3413 77.9936 17.9253 78.1376 17.6C78.2816 17.2747 78.4896 17.032 78.7616 16.872C79.0336 16.712 79.3589 16.632 79.7376 16.632C80.1429 16.632 80.5056 16.7253 80.8256 16.912C81.1509 17.0933 81.4069 17.3493 81.5936 17.68C81.7856 18.0107 81.8816 18.4 81.8816 18.848C81.8816 19.3013 81.7856 19.6933 81.5936 20.024C81.4069 20.3547 81.1509 20.6107 80.8256 20.792C80.5056 20.9733 80.1429 21.064 79.7376 21.064ZM77.1936 22.552V16.696H78.3856V17.576L78.3616 18.856L78.4416 20.128V22.552H77.1936ZM79.5216 20.04C79.7296 20.04 79.9136 19.992 80.0736 19.896C80.2389 19.8 80.3696 19.664 80.4656 19.488C80.5669 19.3067 80.6176 19.0933 80.6176 18.848C80.6176 18.5973 80.5669 18.384 80.4656 18.208C80.3696 18.032 80.2389 17.896 80.0736 17.8C79.9136 17.704 79.7296 17.656 79.5216 17.656C79.3136 17.656 79.1269 17.704 78.9616 17.8C78.7962 17.896 78.6656 18.032 78.5696 18.208C78.4736 18.384 78.4256 18.5973 78.4256 18.848C78.4256 19.0933 78.4736 19.3067 78.5696 19.488C78.6656 19.664 78.7962 19.8 78.9616 19.896C79.1269 19.992 79.3136 20.04 79.5216 20.04ZM82.7563 21V16.696H83.9963V19.256L86.0923 16.696H87.2363V21H85.9963V18.44L83.9083 21H82.7563ZM91.3719 19.976L91.0999 20.264V16.696H92.3479V20.264L92.0599 19.976H94.0439L93.7639 20.264V16.696H95.0039V21H88.4359V16.696H89.6759V20.264L89.3959 19.976H91.3719ZM95.6576 20.992L95.7216 19.968C95.7536 19.9733 95.7856 19.9787 95.8176 19.984C95.8496 19.984 95.8789 19.984 95.9056 19.984C96.0549 19.984 96.1722 19.9413 96.2576 19.856C96.3429 19.7707 96.4069 19.656 96.4496 19.512C96.4922 19.3627 96.5216 19.1947 96.5376 19.008C96.5589 18.8213 96.5749 18.6267 96.5856 18.424L96.6496 16.696H100.33V21H99.0816V17.416L99.3616 17.72H97.4736L97.7376 17.4L97.6816 18.48C97.6656 18.864 97.6336 19.216 97.5856 19.536C97.5429 19.856 97.4709 20.1333 97.3696 20.368C97.2682 20.5973 97.1322 20.776 96.9616 20.904C96.7909 21.0267 96.5722 21.088 96.3056 21.088C96.2096 21.088 96.1082 21.08 96.0016 21.064C95.8949 21.048 95.7802 21.024 95.6576 20.992ZM101.53 21V16.696H102.77V19.256L104.866 16.696H106.01V21H104.77V18.44L102.682 21H101.53ZM112.523 21L111.083 18.96L112.099 18.36L113.995 21H112.523ZM109.475 21V16.696H110.723V21H109.475ZM110.355 19.368V18.368H111.859V19.368H110.355ZM112.219 18.992L111.051 18.864L112.563 16.696H113.891L112.219 18.992ZM116.873 21V16.696H118.113V18.376H119.985V16.696H121.233V21H119.985V19.392H118.113V21H116.873ZM125.004 21V20.16L124.924 19.976V18.472C124.924 18.2053 124.841 17.9973 124.676 17.848C124.516 17.6987 124.268 17.624 123.932 17.624C123.703 17.624 123.476 17.6613 123.252 17.736C123.033 17.8053 122.847 17.9013 122.692 18.024L122.244 17.152C122.479 16.9867 122.761 16.8587 123.092 16.768C123.423 16.6773 123.759 16.632 124.1 16.632C124.756 16.632 125.265 16.7867 125.628 17.096C125.991 17.4053 126.172 17.888 126.172 18.544V21H125.004ZM123.692 21.064C123.356 21.064 123.068 21.008 122.828 20.896C122.588 20.7787 122.404 20.6213 122.276 20.424C122.148 20.2267 122.084 20.0053 122.084 19.76C122.084 19.504 122.145 19.28 122.268 19.088C122.396 18.896 122.596 18.7467 122.868 18.64C123.14 18.528 123.495 18.472 123.932 18.472H125.076V19.2H124.068C123.775 19.2 123.572 19.248 123.46 19.344C123.353 19.44 123.3 19.56 123.3 19.704C123.3 19.864 123.361 19.992 123.484 20.088C123.612 20.1787 123.785 20.224 124.004 20.224C124.212 20.224 124.399 20.176 124.564 20.08C124.729 19.9787 124.849 19.832 124.924 19.64L125.116 20.216C125.025 20.4933 124.86 20.704 124.62 20.848C124.38 20.992 124.071 21.064 123.692 21.064ZM127.256 21V16.696H128.56L130.184 19.64H129.664L131.4 16.696H132.568L132.584 21H131.456V17.976L131.648 18.104L130.168 20.584H129.64L128.152 18.016L128.384 17.96V21H127.256ZM133.844 19.056L133.596 15.4H135.084L134.836 19.056H133.844ZM134.34 21.064C134.116 21.064 133.932 20.992 133.788 20.848C133.644 20.704 133.572 20.5333 133.572 20.336C133.572 20.1333 133.644 19.9653 133.788 19.832C133.932 19.6933 134.116 19.624 134.34 19.624C134.569 19.624 134.753 19.6933 134.892 19.832C135.036 19.9653 135.108 20.1333 135.108 20.336C135.108 20.5333 135.036 20.704 134.892 20.848C134.753 20.992 134.569 21.064 134.34 21.064Z" fill="white"/>
<path d="M14.888 66.656H17.584V67.664H14.888V66.656ZM14.984 68.96H18.032V70H13.696V64.4H17.928V65.44H14.984V68.96ZM21.0074 70.064C20.5434 70.064 20.13 69.9707 19.7674 69.784C19.4047 69.592 19.1194 69.328 18.9114 68.992C18.7087 68.656 18.6074 68.2747 18.6074 67.848C18.6074 67.416 18.7087 67.0347 18.9114 66.704C19.1194 66.368 19.4047 66.1067 19.7674 65.92C20.13 65.728 20.5434 65.632 21.0074 65.632C21.4607 65.632 21.8554 65.728 22.1914 65.92C22.5274 66.1067 22.7754 66.376 22.9354 66.728L21.9674 67.248C21.8554 67.0453 21.714 66.896 21.5434 66.8C21.378 66.704 21.1967 66.656 20.9994 66.656C20.786 66.656 20.594 66.704 20.4234 66.8C20.2527 66.896 20.1167 67.032 20.0154 67.208C19.9194 67.384 19.8714 67.5973 19.8714 67.848C19.8714 68.0987 19.9194 68.312 20.0154 68.488C20.1167 68.664 20.2527 68.8 20.4234 68.896C20.594 68.992 20.786 69.04 20.9994 69.04C21.1967 69.04 21.378 68.9947 21.5434 68.904C21.714 68.808 21.8554 68.656 21.9674 68.448L22.9354 68.976C22.7754 69.3227 22.5274 69.592 22.1914 69.784C21.8554 69.9707 21.4607 70.064 21.0074 70.064ZM23.0794 69.992L23.1434 68.968C23.1754 68.9733 23.2074 68.9787 23.2394 68.984C23.2714 68.984 23.3008 68.984 23.3274 68.984C23.4768 68.984 23.5941 68.9413 23.6794 68.856C23.7648 68.7707 23.8288 68.656 23.8714 68.512C23.9141 68.3627 23.9434 68.1947 23.9594 68.008C23.9808 67.8213 23.9968 67.6267 24.0074 67.424L24.0714 65.696H27.7514V70H26.5034V66.416L26.7834 66.72H24.8954L25.1594 66.4L25.1034 67.48C25.0874 67.864 25.0554 68.216 25.0074 68.536C24.9648 68.856 24.8928 69.1333 24.7914 69.368C24.6901 69.5973 24.5541 69.776 24.3834 69.904C24.2128 70.0267 23.9941 70.088 23.7274 70.088C23.6314 70.088 23.5301 70.08 23.4234 70.064C23.3168 70.048 23.2021 70.024 23.0794 69.992ZM28.9516 70V65.696H30.1916V68.256L32.2876 65.696H33.4316V70H32.1916V67.44L30.1036 70H28.9516ZM36.3209 70L38.2489 67.472L38.2249 68.16L36.3769 65.696H37.7769L38.9449 67.304L38.4169 67.32L39.6249 65.696H40.9529L39.0969 68.136V67.464L41.0169 70H39.6009L38.3769 68.288L38.8969 68.36L37.6809 70H36.3209ZM43.5144 70.064C43.0558 70.064 42.6478 69.968 42.2904 69.776C41.9384 69.584 41.6584 69.3227 41.4504 68.992C41.2478 68.656 41.1464 68.2747 41.1464 67.848C41.1464 67.416 41.2478 67.0347 41.4504 66.704C41.6584 66.368 41.9384 66.1067 42.2904 65.92C42.6478 65.728 43.0558 65.632 43.5144 65.632C43.9678 65.632 44.3731 65.728 44.7304 65.92C45.0878 66.1067 45.3678 66.3653 45.5704 66.696C45.7731 67.0267 45.8744 67.4107 45.8744 67.848C45.8744 68.2747 45.7731 68.656 45.5704 68.992C45.3678 69.3227 45.0878 69.584 44.7304 69.776C44.3731 69.968 43.9678 70.064 43.5144 70.064ZM43.5144 69.04C43.7224 69.04 43.9091 68.992 44.0744 68.896C44.2398 68.8 44.3704 68.664 44.4664 68.488C44.5624 68.3067 44.6104 68.0933 44.6104 67.848C44.6104 67.5973 44.5624 67.384 44.4664 67.208C44.3704 67.032 44.2398 66.896 44.0744 66.8C43.9091 66.704 43.7224 66.656 43.5144 66.656C43.3064 66.656 43.1198 66.704 42.9544 66.8C42.7891 66.896 42.6558 67.032 42.5544 67.208C42.4584 67.384 42.4104 67.5973 42.4104 67.848C42.4104 68.0933 42.4584 68.3067 42.5544 68.488C42.6558 68.664 42.7891 68.8 42.9544 68.896C43.1198 68.992 43.3064 69.04 43.5144 69.04ZM47.4966 70V66.432L47.7766 66.72H46.0406V65.696H50.1926V66.72H48.4566L48.7366 66.432V70H47.4966ZM50.8578 70V65.696H52.0978V68.256L54.1938 65.696H55.3378V70H54.0978V67.44L52.0098 70H50.8578ZM57.4575 70V66.432L57.7375 66.72H56.0015V65.696H60.1535V66.72H58.4175L58.6975 66.432V70H57.4575ZM62.7431 70.064C62.2524 70.064 61.8204 69.968 61.4471 69.776C61.0791 69.584 60.7937 69.3227 60.5911 68.992C60.3884 68.656 60.2871 68.2747 60.2871 67.848C60.2871 67.416 60.3857 67.0347 60.5831 66.704C60.7857 66.368 61.0604 66.1067 61.4071 65.92C61.7537 65.728 62.1457 65.632 62.5831 65.632C63.0044 65.632 63.3831 65.7227 63.7191 65.904C64.0604 66.08 64.3297 66.336 64.5271 66.672C64.7244 67.0027 64.8231 67.4 64.8231 67.864C64.8231 67.912 64.8204 67.968 64.8151 68.032C64.8097 68.0907 64.8044 68.1467 64.7991 68.2H61.3031V67.472H64.1431L63.6631 67.688C63.6631 67.464 63.6177 67.2693 63.5271 67.104C63.4364 66.9387 63.3111 66.8107 63.1511 66.72C62.9911 66.624 62.8044 66.576 62.5911 66.576C62.3777 66.576 62.1884 66.624 62.0231 66.72C61.8631 66.8107 61.7377 66.9413 61.6471 67.112C61.5564 67.2773 61.5111 67.4747 61.5111 67.704V67.896C61.5111 68.1307 61.5617 68.3387 61.6631 68.52C61.7697 68.696 61.9164 68.832 62.1031 68.928C62.2951 69.0187 62.5191 69.064 62.7751 69.064C63.0044 69.064 63.2044 69.0293 63.3751 68.96C63.5511 68.8907 63.7111 68.7867 63.8551 68.648L64.5191 69.368C64.3217 69.592 64.0737 69.7653 63.7751 69.888C63.4764 70.0053 63.1324 70.064 62.7431 70.064ZM65.5397 71.232L66.0677 69.312L66.2437 70.032C66.0144 70.032 65.825 69.9653 65.6757 69.832C65.5317 69.6987 65.4597 69.5147 65.4597 69.28C65.4597 69.0453 65.5344 68.8587 65.6837 68.72C65.833 68.5813 66.017 68.512 66.2357 68.512C66.4597 68.512 66.6437 68.584 66.7877 68.728C66.9317 68.8667 67.0037 69.0507 67.0037 69.28C67.0037 69.3493 66.9984 69.4187 66.9877 69.488C66.977 69.552 66.9557 69.632 66.9237 69.728C66.897 69.8187 66.8517 69.936 66.7877 70.08L66.3317 71.232H65.5397ZM70.1391 70V65.696H71.4431L73.0671 68.64H72.5471L74.2831 65.696H75.4511L75.4671 70H74.3391V66.976L74.5311 67.104L73.0511 69.584H72.5231L71.0351 67.016L71.2671 66.96V70H70.1391ZM78.6785 70.064C78.2198 70.064 77.8118 69.968 77.4545 69.776C77.1025 69.584 76.8225 69.3227 76.6145 68.992C76.4118 68.656 76.3105 68.2747 76.3105 67.848C76.3105 67.416 76.4118 67.0347 76.6145 66.704C76.8225 66.368 77.1025 66.1067 77.4545 65.92C77.8118 65.728 78.2198 65.632 78.6785 65.632C79.1318 65.632 79.5372 65.728 79.8945 65.92C80.2518 66.1067 80.5318 66.3653 80.7345 66.696C80.9372 67.0267 81.0385 67.4107 81.0385 67.848C81.0385 68.2747 80.9372 68.656 80.7345 68.992C80.5318 69.3227 80.2518 69.584 79.8945 69.776C79.5372 69.968 79.1318 70.064 78.6785 70.064ZM78.6785 69.04C78.8865 69.04 79.0732 68.992 79.2385 68.896C79.4038 68.8 79.5345 68.664 79.6305 68.488C79.7265 68.3067 79.7745 68.0933 79.7745 67.848C79.7745 67.5973 79.7265 67.384 79.6305 67.208C79.5345 67.032 79.4038 66.896 79.2385 66.8C79.0732 66.704 78.8865 66.656 78.6785 66.656C78.4705 66.656 78.2838 66.704 78.1185 66.8C77.9532 66.896 77.8198 67.032 77.7185 67.208C77.6225 67.384 77.5745 67.5973 77.5745 67.848C77.5745 68.0933 77.6225 68.3067 77.7185 68.488C77.8198 68.664 77.9532 68.8 78.1185 68.896C78.2838 68.992 78.4705 69.04 78.6785 69.04ZM86.9401 70L85.7961 67.96L86.8041 67.36L88.4201 70H86.9401ZM85.0601 68.368V67.368H86.5561V68.368H85.0601ZM86.9321 67.992L85.7561 67.864L86.9961 65.696H88.3161L86.9321 67.992ZM82.6841 70H81.2121L82.8201 67.36L83.8281 67.96L82.6841 70ZM85.4281 70H84.1961V65.696H85.4281V70ZM84.5641 68.368H83.0761V67.368H84.5641V68.368ZM82.6921 67.992L81.3081 65.696H82.6281L83.8601 67.864L82.6921 67.992ZM91.0399 70.064C90.5493 70.064 90.1173 69.968 89.7439 69.776C89.3759 69.584 89.0906 69.3227 88.8879 68.992C88.6853 68.656 88.5839 68.2747 88.5839 67.848C88.5839 67.416 88.6826 67.0347 88.8799 66.704C89.0826 66.368 89.3573 66.1067 89.7039 65.92C90.0506 65.728 90.4426 65.632 90.8799 65.632C91.3013 65.632 91.6799 65.7227 92.0159 65.904C92.3573 66.08 92.6266 66.336 92.8239 66.672C93.0213 67.0027 93.1199 67.4 93.1199 67.864C93.1199 67.912 93.1173 67.968 93.1119 68.032C93.1066 68.0907 93.1013 68.1467 93.0959 68.2H89.5999V67.472H92.4399L91.9599 67.688C91.9599 67.464 91.9146 67.2693 91.8239 67.104C91.7333 66.9387 91.6079 66.8107 91.4479 66.72C91.2879 66.624 91.1013 66.576 90.8879 66.576C90.6746 66.576 90.4853 66.624 90.3199 66.72C90.1599 66.8107 90.0346 66.9413 89.9439 67.112C89.8533 67.2773 89.8079 67.4747 89.8079 67.704V67.896C89.8079 68.1307 89.8586 68.3387 89.9599 68.52C90.0666 68.696 90.2133 68.832 90.3999 68.928C90.5919 69.0187 90.8159 69.064 91.0719 69.064C91.3013 69.064 91.5013 69.0293 91.6719 68.96C91.8479 68.8907 92.0079 68.7867 92.1519 68.648L92.8159 69.368C92.6186 69.592 92.3706 69.7653 92.0719 69.888C91.7733 70.0053 91.4293 70.064 91.0399 70.064ZM94.8481 70V66.432L95.1281 66.72H93.3921V65.696H97.5441V66.72H95.8081L96.0881 66.432V70H94.8481ZM100.134 70.064C99.643 70.064 99.211 69.968 98.8377 69.776C98.4697 69.584 98.1844 69.3227 97.9817 68.992C97.779 68.656 97.6777 68.2747 97.6777 67.848C97.6777 67.416 97.7764 67.0347 97.9737 66.704C98.1764 66.368 98.451 66.1067 98.7977 65.92C99.1444 65.728 99.5364 65.632 99.9737 65.632C100.395 65.632 100.774 65.7227 101.11 65.904C101.451 66.08 101.72 66.336 101.918 66.672C102.115 67.0027 102.214 67.4 102.214 67.864C102.214 67.912 102.211 67.968 102.206 68.032C102.2 68.0907 102.195 68.1467 102.19 68.2H98.6937V67.472H101.534L101.054 67.688C101.054 67.464 101.008 67.2693 100.918 67.104C100.827 66.9387 100.702 66.8107 100.542 66.72C100.382 66.624 100.195 66.576 99.9817 66.576C99.7684 66.576 99.579 66.624 99.4137 66.72C99.2537 66.8107 99.1284 66.9413 99.0377 67.112C98.947 67.2773 98.9017 67.4747 98.9017 67.704V67.896C98.9017 68.1307 98.9524 68.3387 99.0537 68.52C99.1604 68.696 99.307 68.832 99.4937 68.928C99.6857 69.0187 99.9097 69.064 100.166 69.064C100.395 69.064 100.595 69.0293 100.766 68.96C100.942 68.8907 101.102 68.7867 101.246 68.648L101.91 69.368C101.712 69.592 101.464 69.7653 101.166 69.888C100.867 70.0053 100.523 70.064 100.134 70.064ZM15.616 80.064C15.1573 80.064 14.7493 79.968 14.392 79.776C14.04 79.584 13.76 79.3227 13.552 78.992C13.3493 78.656 13.248 78.2747 13.248 77.848C13.248 77.416 13.3493 77.0347 13.552 76.704C13.76 76.368 14.04 76.1067 14.392 75.92C14.7493 75.728 15.1573 75.632 15.616 75.632C16.0693 75.632 16.4747 75.728 16.832 75.92C17.1893 76.1067 17.4693 76.3653 17.672 76.696C17.8747 77.0267 17.976 77.4107 17.976 77.848C17.976 78.2747 17.8747 78.656 17.672 78.992C17.4693 79.3227 17.1893 79.584 16.832 79.776C16.4747 79.968 16.0693 80.064 15.616 80.064ZM15.616 79.04C15.824 79.04 16.0107 78.992 16.176 78.896C16.3413 78.8 16.472 78.664 16.568 78.488C16.664 78.3067 16.712 78.0933 16.712 77.848C16.712 77.5973 16.664 77.384 16.568 77.208C16.472 77.032 16.3413 76.896 16.176 76.8C16.0107 76.704 15.824 76.656 15.616 76.656C15.408 76.656 15.2213 76.704 15.056 76.8C14.8907 76.896 14.7573 77.032 14.656 77.208C14.56 77.384 14.512 77.5973 14.512 77.848C14.512 78.0933 14.56 78.3067 14.656 78.488C14.7573 78.664 14.8907 78.8 15.056 78.896C15.2213 78.992 15.408 79.04 15.616 79.04ZM20.8824 80.064C20.4184 80.064 20.005 79.9707 19.6424 79.784C19.2797 79.592 18.9944 79.328 18.7864 78.992C18.5837 78.656 18.4824 78.2747 18.4824 77.848C18.4824 77.416 18.5837 77.0347 18.7864 76.704C18.9944 76.368 19.2797 76.1067 19.6424 75.92C20.005 75.728 20.4184 75.632 20.8824 75.632C21.3357 75.632 21.7304 75.728 22.0664 75.92C22.4024 76.1067 22.6504 76.376 22.8104 76.728L21.8424 77.248C21.7304 77.0453 21.589 76.896 21.4184 76.8C21.253 76.704 21.0717 76.656 20.8744 76.656C20.661 76.656 20.469 76.704 20.2984 76.8C20.1277 76.896 19.9917 77.032 19.8904 77.208C19.7944 77.384 19.7464 77.5973 19.7464 77.848C19.7464 78.0987 19.7944 78.312 19.8904 78.488C19.9917 78.664 20.1277 78.8 20.2984 78.896C20.469 78.992 20.661 79.04 20.8744 79.04C21.0717 79.04 21.253 78.9947 21.4184 78.904C21.589 78.808 21.7304 78.656 21.8424 78.448L22.8104 78.976C22.6504 79.3227 22.4024 79.592 22.0664 79.784C21.7304 79.9707 21.3357 80.064 20.8824 80.064ZM24.4809 80V76.432L24.7609 76.72H23.0249V75.696H27.1769V76.72H25.4409L25.7209 76.432V80H24.4809ZM30.4182 80V79.16L30.3382 78.976V77.472C30.3382 77.2053 30.2555 76.9973 30.0902 76.848C29.9302 76.6987 29.6822 76.624 29.3462 76.624C29.1169 76.624 28.8902 76.6613 28.6662 76.736C28.4475 76.8053 28.2609 76.9013 28.1062 77.024L27.6582 76.152C27.8929 75.9867 28.1755 75.8587 28.5062 75.768C28.8369 75.6773 29.1729 75.632 29.5142 75.632C30.1702 75.632 30.6795 75.7867 31.0422 76.096C31.4049 76.4053 31.5862 76.888 31.5862 77.544V80H30.4182ZM29.1062 80.064C28.7702 80.064 28.4822 80.008 28.2422 79.896C28.0022 79.7787 27.8182 79.6213 27.6902 79.424C27.5622 79.2267 27.4982 79.0053 27.4982 78.76C27.4982 78.504 27.5595 78.28 27.6822 78.088C27.8102 77.896 28.0102 77.7467 28.2822 77.64C28.5542 77.528 28.9089 77.472 29.3462 77.472H30.4902V78.2H29.4822C29.1889 78.2 28.9862 78.248 28.8742 78.344C28.7675 78.44 28.7142 78.56 28.7142 78.704C28.7142 78.864 28.7755 78.992 28.8982 79.088C29.0262 79.1787 29.1995 79.224 29.4182 79.224C29.6262 79.224 29.8129 79.176 29.9782 79.08C30.1435 78.9787 30.2635 78.832 30.3382 78.64L30.5302 79.216C30.4395 79.4933 30.2742 79.704 30.0342 79.848C29.7942 79.992 29.4849 80.064 29.1062 80.064ZM32.6703 80V75.696H34.8703C35.409 75.696 35.8303 75.7947 36.1343 75.992C36.4383 76.184 36.5903 76.456 36.5903 76.808C36.5903 77.16 36.4463 77.4373 36.1583 77.64C35.8756 77.8373 35.4996 77.936 35.0303 77.936L35.1583 77.648C35.681 77.648 36.0703 77.744 36.3263 77.936C36.5876 78.128 36.7183 78.408 36.7183 78.776C36.7183 79.1547 36.5743 79.4533 36.2863 79.672C35.9983 79.8907 35.5583 80 34.9663 80H32.6703ZM33.8143 79.152H34.8623C35.0916 79.152 35.2623 79.1147 35.3743 79.04C35.4916 78.96 35.5503 78.84 35.5503 78.68C35.5503 78.5147 35.497 78.3947 35.3903 78.32C35.2836 78.24 35.1156 78.2 34.8863 78.2H33.8143V79.152ZM33.8143 77.464H34.7583C34.977 77.464 35.1396 77.424 35.2463 77.344C35.3583 77.264 35.4143 77.1493 35.4143 77C35.4143 76.8453 35.3583 76.7307 35.2463 76.656C35.1396 76.5813 34.977 76.544 34.7583 76.544H33.8143V77.464ZM37.6469 80V75.696H38.8869V78.256L40.9829 75.696H42.1269V80H40.8869V77.44L38.7989 80H37.6469ZM44.2466 80V76.432L44.5266 76.72H42.7906V75.696H46.9426V76.72H45.2066L45.4866 76.432V80H44.2466ZM49.9358 77.072C50.5011 77.0773 50.9305 77.2053 51.2238 77.456C51.5225 77.7013 51.6718 78.0507 51.6718 78.504C51.6718 78.9787 51.5038 79.3493 51.1678 79.616C50.8318 79.8773 50.3651 80.008 49.7678 80.008L47.6078 80V75.696H48.8478V77.072H49.9358ZM49.6558 79.12C49.8958 79.1253 50.0798 79.0747 50.2078 78.968C50.3358 78.8613 50.3998 78.7013 50.3998 78.488C50.3998 78.2747 50.3358 78.1227 50.2078 78.032C50.0798 77.936 49.8958 77.8853 49.6558 77.88L48.8478 77.872V79.12H49.6558ZM57.4292 78.352C57.2532 78.448 57.0585 78.5253 56.8452 78.584C56.6319 78.6427 56.3972 78.672 56.1412 78.672C55.5759 78.672 55.1412 78.544 54.8372 78.288C54.5332 78.0267 54.3812 77.6133 54.3812 77.048V75.696H55.6292V76.968C55.6292 77.2347 55.6985 77.4267 55.8372 77.544C55.9759 77.656 56.1705 77.712 56.4212 77.712C56.6025 77.712 56.7759 77.6907 56.9412 77.648C57.1119 77.6053 57.2745 77.544 57.4292 77.464V78.352ZM57.3412 80V75.696H58.5892V80H57.3412ZM62.3635 80V79.16L62.2835 78.976V77.472C62.2835 77.2053 62.2008 76.9973 62.0355 76.848C61.8755 76.6987 61.6275 76.624 61.2915 76.624C61.0622 76.624 60.8355 76.6613 60.6115 76.736C60.3928 76.8053 60.2062 76.9013 60.0515 77.024L59.6035 76.152C59.8382 75.9867 60.1208 75.8587 60.4515 75.768C60.7822 75.6773 61.1182 75.632 61.4595 75.632C62.1155 75.632 62.6248 75.7867 62.9875 76.096C63.3502 76.4053 63.5315 76.888 63.5315 77.544V80H62.3635ZM61.0515 80.064C60.7155 80.064 60.4275 80.008 60.1875 79.896C59.9475 79.7787 59.7635 79.6213 59.6355 79.424C59.5075 79.2267 59.4435 79.0053 59.4435 78.76C59.4435 78.504 59.5048 78.28 59.6275 78.088C59.7555 77.896 59.9555 77.7467 60.2275 77.64C60.4995 77.528 60.8542 77.472 61.2915 77.472H62.4355V78.2H61.4275C61.1342 78.2 60.9315 78.248 60.8195 78.344C60.7128 78.44 60.6595 78.56 60.6595 78.704C60.6595 78.864 60.7208 78.992 60.8435 79.088C60.9715 79.1787 61.1448 79.224 61.3635 79.224C61.5715 79.224 61.7582 79.176 61.9235 79.08C62.0888 78.9787 62.2088 78.832 62.2835 78.64L62.4755 79.216C62.3848 79.4933 62.2195 79.704 61.9795 79.848C61.7395 79.992 61.4302 80.064 61.0515 80.064ZM66.7196 80.064C66.229 80.064 65.797 79.968 65.4236 79.776C65.0556 79.584 64.7703 79.3227 64.5676 78.992C64.365 78.656 64.2636 78.2747 64.2636 77.848C64.2636 77.416 64.3623 77.0347 64.5596 76.704C64.7623 76.368 65.037 76.1067 65.3836 75.92C65.7303 75.728 66.1223 75.632 66.5596 75.632C66.981 75.632 67.3596 75.7227 67.6956 75.904C68.037 76.08 68.3063 76.336 68.5036 76.672C68.701 77.0027 68.7996 77.4 68.7996 77.864C68.7996 77.912 68.797 77.968 68.7916 78.032C68.7863 78.0907 68.781 78.1467 68.7756 78.2H65.2796V77.472H68.1196L67.6396 77.688C67.6396 77.464 67.5943 77.2693 67.5036 77.104C67.413 76.9387 67.2876 76.8107 67.1276 76.72C66.9676 76.624 66.781 76.576 66.5676 76.576C66.3543 76.576 66.165 76.624 65.9996 76.72C65.8396 76.8107 65.7143 76.9413 65.6236 77.112C65.533 77.2773 65.4876 77.4747 65.4876 77.704V77.896C65.4876 78.1307 65.5383 78.3387 65.6396 78.52C65.7463 78.696 65.893 78.832 66.0796 78.928C66.2716 79.0187 66.4956 79.064 66.7516 79.064C66.981 79.064 67.181 79.0293 67.3516 78.96C67.5276 78.8907 67.6876 78.7867 67.8316 78.648L68.4956 79.368C68.2983 79.592 68.0503 79.7653 67.7516 79.888C67.453 80.0053 67.109 80.064 66.7196 80.064ZM69.7563 80V75.696H71.9563C72.4949 75.696 72.9163 75.7947 73.2203 75.992C73.5243 76.184 73.6762 76.456 73.6762 76.808C73.6762 77.16 73.5323 77.4373 73.2443 77.64C72.9616 77.8373 72.5856 77.936 72.1163 77.936L72.2443 77.648C72.7669 77.648 73.1563 77.744 73.4123 77.936C73.6736 78.128 73.8043 78.408 73.8043 78.776C73.8043 79.1547 73.6603 79.4533 73.3723 79.672C73.0843 79.8907 72.6443 80 72.0523 80H69.7563ZM70.9003 79.152H71.9483C72.1776 79.152 72.3483 79.1147 72.4603 79.04C72.5776 78.96 72.6363 78.84 72.6363 78.68C72.6363 78.5147 72.5829 78.3947 72.4763 78.32C72.3696 78.24 72.2016 78.2 71.9723 78.2H70.9003V79.152ZM70.9003 77.464H71.8443C72.0629 77.464 72.2256 77.424 72.3323 77.344C72.4443 77.264 72.5003 77.1493 72.5003 77C72.5003 76.8453 72.4443 76.7307 72.3323 76.656C72.2256 76.5813 72.0629 76.544 71.8443 76.544H70.9003V77.464ZM79.1648 80V75.696H80.4048V80H79.1648ZM76.9968 77.072C77.5621 77.0773 77.9861 77.2053 78.2688 77.456C78.5568 77.7013 78.7008 78.0507 78.7008 78.504C78.7008 78.9787 78.5381 79.3493 78.2128 79.616C77.8875 79.8773 77.4261 80.008 76.8288 80.008L74.7328 80V75.696H75.9728V77.072H76.9968ZM76.7168 79.12C76.9568 79.1253 77.1408 79.0747 77.2688 78.968C77.3968 78.8613 77.4608 78.7013 77.4608 78.488C77.4608 78.2747 77.3968 78.1227 77.2688 78.032C77.1408 77.936 76.9568 77.8853 76.7168 77.88L75.9728 77.872V79.12H76.7168ZM83.7118 80.064C83.2211 80.064 82.7891 79.968 82.4158 79.776C82.0478 79.584 81.7625 79.3227 81.5598 78.992C81.3571 78.656 81.2558 78.2747 81.2558 77.848C81.2558 77.416 81.3545 77.0347 81.5518 76.704C81.7545 76.368 82.0291 76.1067 82.3758 75.92C82.7225 75.728 83.1145 75.632 83.5518 75.632C83.9731 75.632 84.3518 75.7227 84.6878 75.904C85.0291 76.08 85.2985 76.336 85.4958 76.672C85.6931 77.0027 85.7918 77.4 85.7918 77.864C85.7918 77.912 85.7891 77.968 85.7838 78.032C85.7785 78.0907 85.7731 78.1467 85.7678 78.2H82.2718V77.472H85.1118L84.6318 77.688C84.6318 77.464 84.5865 77.2693 84.4958 77.104C84.4051 76.9387 84.2798 76.8107 84.1198 76.72C83.9598 76.624 83.7731 76.576 83.5598 76.576C83.3465 76.576 83.1571 76.624 82.9918 76.72C82.8318 76.8107 82.7065 76.9413 82.6158 77.112C82.5251 77.2773 82.4798 77.4747 82.4798 77.704V77.896C82.4798 78.1307 82.5305 78.3387 82.6318 78.52C82.7385 78.696 82.8851 78.832 83.0718 78.928C83.2638 79.0187 83.4878 79.064 83.7438 79.064C83.9731 79.064 84.1731 79.0293 84.3438 78.96C84.5198 78.8907 84.6798 78.7867 84.8238 78.648L85.4878 79.368C85.2905 79.592 85.0425 79.7653 84.7438 79.888C84.4451 80.0053 84.1011 80.064 83.7118 80.064ZM134.196 80.064C133.983 80.064 133.799 79.992 133.644 79.848C133.495 79.6987 133.42 79.5093 133.42 79.28C133.42 79.0507 133.495 78.8667 133.644 78.728C133.799 78.584 133.983 78.512 134.196 78.512C134.415 78.512 134.599 78.584 134.748 78.728C134.898 78.8667 134.972 79.0507 134.972 79.28C134.972 79.5093 134.898 79.6987 134.748 79.848C134.599 79.992 134.415 80.064 134.196 80.064Z" fill="white"/>
<path d="M89.0141 80V75.696H93.2941V80H92.0461V76.44L92.3261 76.72H89.9741L90.2541 76.44V80H89.0141ZM96.5066 80.064C96.048 80.064 95.64 79.968 95.2826 79.776C94.9306 79.584 94.6506 79.3227 94.4426 78.992C94.24 78.656 94.1386 78.2747 94.1386 77.848C94.1386 77.416 94.24 77.0347 94.4426 76.704C94.6506 76.368 94.9306 76.1067 95.2826 75.92C95.64 75.728 96.048 75.632 96.5066 75.632C96.96 75.632 97.3653 75.728 97.7226 75.92C98.08 76.1067 98.36 76.3653 98.5626 76.696C98.7653 77.0267 98.8666 77.4107 98.8666 77.848C98.8666 78.2747 98.7653 78.656 98.5626 78.992C98.36 79.3227 98.08 79.584 97.7226 79.776C97.3653 79.968 96.96 80.064 96.5066 80.064ZM96.5066 79.04C96.7146 79.04 96.9013 78.992 97.0666 78.896C97.232 78.8 97.3626 78.664 97.4586 78.488C97.5546 78.3067 97.6026 78.0933 97.6026 77.848C97.6026 77.5973 97.5546 77.384 97.4586 77.208C97.3626 77.032 97.232 76.896 97.0666 76.8C96.9013 76.704 96.7146 76.656 96.5066 76.656C96.2986 76.656 96.112 76.704 95.9466 76.8C95.7813 76.896 95.648 77.032 95.5466 77.208C95.4506 77.384 95.4026 77.5973 95.4026 77.848C95.4026 78.0933 95.4506 78.3067 95.5466 78.488C95.648 78.664 95.7813 78.8 95.9466 78.896C96.112 78.992 96.2986 79.04 96.5066 79.04ZM104.039 80.064C103.575 80.064 103.161 79.9707 102.799 79.784C102.436 79.592 102.151 79.328 101.943 78.992C101.74 78.656 101.639 78.2747 101.639 77.848C101.639 77.416 101.74 77.0347 101.943 76.704C102.151 76.368 102.436 76.1067 102.799 75.92C103.161 75.728 103.575 75.632 104.039 75.632C104.492 75.632 104.887 75.728 105.223 75.92C105.559 76.1067 105.807 76.376 105.967 76.728L104.999 77.248C104.887 77.0453 104.745 76.896 104.575 76.8C104.409 76.704 104.228 76.656 104.031 76.656C103.817 76.656 103.625 76.704 103.455 76.8C103.284 76.896 103.148 77.032 103.047 77.208C102.951 77.384 102.903 77.5973 102.903 77.848C102.903 78.0987 102.951 78.312 103.047 78.488C103.148 78.664 103.284 78.8 103.455 78.896C103.625 78.992 103.817 79.04 104.031 79.04C104.228 79.04 104.409 78.9947 104.575 78.904C104.745 78.808 104.887 78.656 104.999 78.448L105.967 78.976C105.807 79.3227 105.559 79.592 105.223 79.784C104.887 79.9707 104.492 80.064 104.039 80.064ZM108.718 80.064C108.254 80.064 107.841 79.9707 107.478 79.784C107.116 79.592 106.83 79.328 106.622 78.992C106.42 78.656 106.318 78.2747 106.318 77.848C106.318 77.416 106.42 77.0347 106.622 76.704C106.83 76.368 107.116 76.1067 107.478 75.92C107.841 75.728 108.254 75.632 108.718 75.632C109.172 75.632 109.566 75.728 109.902 75.92C110.238 76.1067 110.486 76.376 110.646 76.728L109.678 77.248C109.566 77.0453 109.425 76.896 109.254 76.8C109.089 76.704 108.908 76.656 108.71 76.656C108.497 76.656 108.305 76.704 108.134 76.8C107.964 76.896 107.828 77.032 107.726 77.208C107.63 77.384 107.582 77.5973 107.582 77.848C107.582 78.0987 107.63 78.312 107.726 78.488C107.828 78.664 107.964 78.8 108.134 78.896C108.305 78.992 108.497 79.04 108.71 79.04C108.908 79.04 109.089 78.9947 109.254 78.904C109.425 78.808 109.566 78.656 109.678 78.448L110.646 78.976C110.486 79.3227 110.238 79.592 109.902 79.784C109.566 79.9707 109.172 80.064 108.718 80.064ZM115.837 80V75.696H117.077V80H115.837ZM113.669 77.072C114.234 77.0773 114.658 77.2053 114.941 77.456C115.229 77.7013 115.373 78.0507 115.373 78.504C115.373 78.9787 115.21 79.3493 114.885 79.616C114.559 79.8773 114.098 80.008 113.501 80.008L111.405 80V75.696H112.645V77.072H113.669ZM113.389 79.12C113.629 79.1253 113.813 79.0747 113.941 78.968C114.069 78.8613 114.133 78.7013 114.133 78.488C114.133 78.2747 114.069 78.1227 113.941 78.032C113.813 77.936 113.629 77.8853 113.389 77.88L112.645 77.872V79.12H113.389ZM117.736 79.992L117.8 78.968C117.832 78.9733 117.864 78.9787 117.896 78.984C117.928 78.984 117.957 78.984 117.984 78.984C118.133 78.984 118.25 78.9413 118.336 78.856C118.421 78.7707 118.485 78.656 118.528 78.512C118.57 78.3627 118.6 78.1947 118.616 78.008C118.637 77.8213 118.653 77.6267 118.664 77.424L118.728 75.696H122.408V80H121.16V76.416L121.44 76.72H119.552L119.816 76.4L119.76 77.48C119.744 77.864 119.712 78.216 119.664 78.536C119.621 78.856 119.549 79.1333 119.448 79.368C119.346 79.5973 119.21 79.776 119.04 79.904C118.869 80.0267 118.65 80.088 118.384 80.088C118.288 80.088 118.186 80.08 118.08 80.064C117.973 80.048 117.858 80.024 117.736 79.992ZM126.656 80L125.216 77.96L126.232 77.36L128.128 80H126.656ZM123.608 80V75.696H124.856V80H123.608ZM124.488 78.368V77.368H125.992V78.368H124.488ZM126.352 77.992L125.184 77.864L126.696 75.696H128.024L126.352 77.992ZM130.712 80.064C130.221 80.064 129.789 79.968 129.416 79.776C129.048 79.584 128.762 79.3227 128.56 78.992C128.357 78.656 128.256 78.2747 128.256 77.848C128.256 77.416 128.354 77.0347 128.552 76.704C128.754 76.368 129.029 76.1067 129.376 75.92C129.722 75.728 130.114 75.632 130.552 75.632C130.973 75.632 131.352 75.7227 131.688 75.904C132.029 76.08 132.298 76.336 132.496 76.672C132.693 77.0027 132.792 77.4 132.792 77.864C132.792 77.912 132.789 77.968 132.784 78.032C132.778 78.0907 132.773 78.1467 132.768 78.2H129.272V77.472H132.112L131.632 77.688C131.632 77.464 131.586 77.2693 131.496 77.104C131.405 76.9387 131.28 76.8107 131.12 76.72C130.96 76.624 130.773 76.576 130.56 76.576C130.346 76.576 130.157 76.624 129.992 76.72C129.832 76.8107 129.706 76.9413 129.616 77.112C129.525 77.2773 129.48 77.4747 129.48 77.704V77.896C129.48 78.1307 129.53 78.3387 129.632 78.52C129.738 78.696 129.885 78.832 130.072 78.928C130.264 79.0187 130.488 79.064 130.744 79.064C130.973 79.064 131.173 79.0293 131.344 78.96C131.52 78.8907 131.68 78.7867 131.824 78.648L132.488 79.368C132.29 79.592 132.042 79.7653 131.744 79.888C131.445 80.0053 131.101 80.064 130.712 80.064Z" fill="#FDFFAD"/>
<path d="M141.752 123.192C140.867 123.192 140.045 123.048 139.288 122.76C138.541 122.472 137.891 122.067 137.336 121.544C136.792 121.021 136.365 120.408 136.056 119.704C135.757 119 135.608 118.232 135.608 117.4C135.608 116.568 135.757 115.8 136.056 115.096C136.365 114.392 136.797 113.779 137.352 113.256C137.907 112.733 138.557 112.328 139.304 112.04C140.051 111.752 140.861 111.608 141.736 111.608C142.621 111.608 143.432 111.752 144.168 112.04C144.915 112.328 145.56 112.733 146.104 113.256C146.659 113.779 147.091 114.392 147.4 115.096C147.709 115.789 147.864 116.557 147.864 117.4C147.864 118.232 147.709 119.005 147.4 119.72C147.091 120.424 146.659 121.037 146.104 121.56C145.56 122.072 144.915 122.472 144.168 122.76C143.432 123.048 142.627 123.192 141.752 123.192ZM141.736 120.984C142.237 120.984 142.696 120.899 143.112 120.728C143.539 120.557 143.912 120.312 144.232 119.992C144.552 119.672 144.797 119.293 144.968 118.856C145.149 118.419 145.24 117.933 145.24 117.4C145.24 116.867 145.149 116.381 144.968 115.944C144.797 115.507 144.552 115.128 144.232 114.808C143.923 114.488 143.555 114.243 143.128 114.072C142.701 113.901 142.237 113.816 141.736 113.816C141.235 113.816 140.771 113.901 140.344 114.072C139.928 114.243 139.56 114.488 139.24 114.808C138.92 115.128 138.669 115.507 138.488 115.944C138.317 116.381 138.232 116.867 138.232 117.4C138.232 117.923 138.317 118.408 138.488 118.856C138.669 119.293 138.915 119.672 139.224 119.992C139.544 120.312 139.917 120.557 140.344 120.728C140.771 120.899 141.235 120.984 141.736 120.984ZM151.415 123V115.864L151.975 116.44H148.503V114.392H156.807V116.44H153.335L153.895 115.864V123H151.415ZM156.425 122.984L156.553 120.936C156.617 120.947 156.681 120.957 156.745 120.968C156.809 120.968 156.867 120.968 156.921 120.968C157.219 120.968 157.454 120.883 157.625 120.712C157.795 120.541 157.923 120.312 158.009 120.024C158.094 119.725 158.153 119.389 158.185 119.016C158.227 118.643 158.259 118.253 158.281 117.848L158.409 114.392H165.769V123H163.273V115.832L163.833 116.44H160.057L160.585 115.8L160.473 117.96C160.441 118.728 160.377 119.432 160.281 120.072C160.195 120.712 160.051 121.267 159.849 121.736C159.646 122.195 159.374 122.552 159.033 122.808C158.691 123.053 158.254 123.176 157.721 123.176C157.529 123.176 157.326 123.16 157.113 123.128C156.899 123.096 156.67 123.048 156.425 122.984ZM168.169 123V114.392H170.649V119.512L174.841 114.392H177.129V123H174.649V117.88L170.473 123H168.169ZM184.952 119.704C184.6 119.896 184.211 120.051 183.784 120.168C183.357 120.285 182.888 120.344 182.376 120.344C181.245 120.344 180.376 120.088 179.768 119.576C179.16 119.053 178.856 118.227 178.856 117.096V114.392H181.352V116.936C181.352 117.469 181.491 117.853 181.768 118.088C182.045 118.312 182.435 118.424 182.936 118.424C183.299 118.424 183.645 118.381 183.976 118.296C184.317 118.211 184.643 118.088 184.952 117.928V119.704ZM184.776 123V114.392H187.272V123H184.776ZM189.669 123V114.392H192.149V117.752H195.893V114.392H198.389V123H195.893V119.784H192.149V123H189.669ZM204.81 123.128C203.893 123.128 203.077 122.936 202.362 122.552C201.658 122.168 201.098 121.645 200.682 120.984C200.277 120.312 200.074 119.549 200.074 118.696C200.074 117.832 200.277 117.069 200.682 116.408C201.098 115.736 201.658 115.213 202.362 114.84C203.077 114.456 203.893 114.264 204.81 114.264C205.717 114.264 206.527 114.456 207.242 114.84C207.957 115.213 208.517 115.731 208.922 116.392C209.327 117.053 209.53 117.821 209.53 118.696C209.53 119.549 209.327 120.312 208.922 120.984C208.517 121.645 207.957 122.168 207.242 122.552C206.527 122.936 205.717 123.128 204.81 123.128ZM204.81 121.08C205.226 121.08 205.599 120.984 205.93 120.792C206.261 120.6 206.522 120.328 206.714 119.976C206.906 119.613 207.002 119.187 207.002 118.696C207.002 118.195 206.906 117.768 206.714 117.416C206.522 117.064 206.261 116.792 205.93 116.6C205.599 116.408 205.226 116.312 204.81 116.312C204.394 116.312 204.021 116.408 203.69 116.6C203.359 116.792 203.093 117.064 202.89 117.416C202.698 117.768 202.602 118.195 202.602 118.696C202.602 119.187 202.698 119.613 202.89 119.976C203.093 120.328 203.359 120.6 203.69 120.792C204.021 120.984 204.394 121.08 204.81 121.08ZM211.375 119.112L210.879 111.8H213.855L213.359 119.112H211.375ZM212.367 123.128C211.919 123.128 211.551 122.984 211.263 122.696C210.975 122.408 210.831 122.067 210.831 121.672C210.831 121.267 210.975 120.931 211.263 120.664C211.551 120.387 211.919 120.248 212.367 120.248C212.826 120.248 213.194 120.387 213.471 120.664C213.759 120.931 213.903 121.267 213.903 121.672C213.903 122.067 213.759 122.408 213.471 122.696C213.194 122.984 212.826 123.128 212.367 123.128Z" fill="white"/>
</g>
<defs>
<clipPath id="clip0_12_206">
<rect width="250" height="150" fill="white"/>
</clipPath>
</defs>
</svg>
