<svg width="325" height="410" viewBox="0 0 325 410" fill="none" xmlns="http://www.w3.org/2000/svg">
<g clip-path="url(#clip0_6_133)">
<g filter="url(#filter0_d_6_133)">
<circle cx="163" cy="205" r="160" fill="#92D8FF"/>
</g>
<rect x="58" width="210" height="410" rx="10" fill="#0077AA"/>
<rect x="68" y="10" width="190" height="390" rx="10" fill="white"/>
<path d="M107.609 43.24C106.297 43.24 105.089 43.024 103.985 42.592C102.881 42.16 101.921 41.56 101.105 40.792C100.289 40.008 99.657 39.096 99.209 38.056C98.761 37 98.537 35.848 98.537 34.6C98.537 33.352 98.761 32.208 99.209 31.168C99.657 30.112 100.289 29.2 101.105 28.432C101.921 27.648 102.881 27.04 103.985 26.608C105.089 26.176 106.289 25.96 107.585 25.96C108.897 25.96 110.097 26.176 111.185 26.608C112.289 27.04 113.249 27.648 114.065 28.432C114.881 29.2 115.513 30.112 115.961 31.168C116.409 32.208 116.633 33.352 116.633 34.6C116.633 35.848 116.409 37 115.961 38.056C115.513 39.112 114.881 40.024 114.065 40.792C113.249 41.56 112.289 42.16 111.185 42.592C110.097 43.024 108.905 43.24 107.609 43.24ZM107.585 40.504C108.433 40.504 109.217 40.36 109.937 40.072C110.657 39.784 111.281 39.376 111.809 38.848C112.337 38.304 112.745 37.68 113.033 36.976C113.337 36.256 113.489 35.464 113.489 34.6C113.489 33.736 113.337 32.952 113.033 32.248C112.745 31.528 112.337 30.904 111.809 30.376C111.281 29.832 110.657 29.416 109.937 29.128C109.217 28.84 108.433 28.696 107.585 28.696C106.737 28.696 105.953 28.84 105.233 29.128C104.529 29.416 103.905 29.832 103.361 30.376C102.833 30.904 102.417 31.528 102.113 32.248C101.825 32.952 101.681 33.736 101.681 34.6C101.681 35.448 101.825 36.232 102.113 36.952C102.417 37.672 102.833 38.304 103.361 38.848C103.889 39.376 104.513 39.784 105.233 40.072C105.953 40.36 106.737 40.504 107.585 40.504ZM119.746 43V30.184H132.034V43H129.058V32.032L129.754 32.728H122.05L122.746 32.032V43H119.746ZM142.058 43.168C140.634 43.168 139.386 42.888 138.314 42.328C137.258 41.752 136.434 40.968 135.842 39.976C135.266 38.984 134.978 37.856 134.978 36.592C134.978 35.312 135.258 34.184 135.818 33.208C136.394 32.216 137.178 31.44 138.17 30.88C139.178 30.32 140.322 30.04 141.602 30.04C142.85 30.04 143.962 30.312 144.938 30.856C145.914 31.4 146.682 32.168 147.242 33.16C147.802 34.152 148.082 35.32 148.082 36.664C148.082 36.792 148.074 36.936 148.058 37.096C148.058 37.256 148.05 37.408 148.034 37.552H137.354V35.56H146.45L145.274 36.184C145.29 35.448 145.138 34.8 144.818 34.24C144.498 33.68 144.058 33.24 143.498 32.92C142.954 32.6 142.322 32.44 141.602 32.44C140.866 32.44 140.218 32.6 139.658 32.92C139.114 33.24 138.682 33.688 138.362 34.264C138.058 34.824 137.906 35.488 137.906 36.256V36.736C137.906 37.504 138.082 38.184 138.434 38.776C138.786 39.368 139.282 39.824 139.922 40.144C140.562 40.464 141.298 40.624 142.13 40.624C142.85 40.624 143.498 40.512 144.074 40.288C144.65 40.064 145.162 39.712 145.61 39.232L147.218 41.08C146.642 41.752 145.914 42.272 145.034 42.64C144.17 42.992 143.178 43.168 142.058 43.168ZM158.468 43.168C157.428 43.168 156.476 42.928 155.612 42.448C154.764 41.968 154.084 41.248 153.572 40.288C153.076 39.312 152.828 38.08 152.828 36.592C152.828 35.088 153.068 33.856 153.548 32.896C154.044 31.936 154.716 31.224 155.564 30.76C156.412 30.28 157.38 30.04 158.468 30.04C159.732 30.04 160.844 30.312 161.804 30.856C162.78 31.4 163.548 32.16 164.108 33.136C164.684 34.112 164.972 35.264 164.972 36.592C164.972 37.92 164.684 39.08 164.108 40.072C163.548 41.048 162.78 41.808 161.804 42.352C160.844 42.896 159.732 43.168 158.468 43.168ZM151.364 47.656V30.184H154.22V33.208L154.124 36.616L154.364 40.024V47.656H151.364ZM158.132 40.6C158.852 40.6 159.492 40.44 160.052 40.12C160.628 39.8 161.084 39.336 161.42 38.728C161.756 38.12 161.924 37.408 161.924 36.592C161.924 35.76 161.756 35.048 161.42 34.456C161.084 33.848 160.628 33.384 160.052 33.064C159.492 32.744 158.852 32.584 158.132 32.584C157.412 32.584 156.764 32.744 156.188 33.064C155.612 33.384 155.156 33.848 154.82 34.456C154.484 35.048 154.316 35.76 154.316 36.592C154.316 37.408 154.484 38.12 154.82 38.728C155.156 39.336 155.612 39.8 156.188 40.12C156.764 40.44 157.412 40.6 158.132 40.6ZM175.569 43V40.408L175.401 39.856V35.32C175.401 34.44 175.137 33.76 174.609 33.28C174.081 32.784 173.281 32.536 172.209 32.536C171.489 32.536 170.777 32.648 170.073 32.872C169.385 33.096 168.801 33.408 168.321 33.808L167.145 31.624C167.833 31.096 168.649 30.704 169.593 30.448C170.553 30.176 171.545 30.04 172.569 30.04C174.425 30.04 175.857 30.488 176.865 31.384C177.889 32.264 178.401 33.632 178.401 35.488V43H175.569ZM171.537 43.168C170.577 43.168 169.737 43.008 169.017 42.688C168.297 42.352 167.737 41.896 167.337 41.32C166.953 40.728 166.761 40.064 166.761 39.328C166.761 38.608 166.929 37.96 167.265 37.384C167.617 36.808 168.185 36.352 168.969 36.016C169.753 35.68 170.793 35.512 172.089 35.512H175.809V37.504H172.305C171.281 37.504 170.593 37.672 170.241 38.008C169.889 38.328 169.713 38.728 169.713 39.208C169.713 39.752 169.929 40.184 170.361 40.504C170.793 40.824 171.393 40.984 172.161 40.984C172.897 40.984 173.553 40.816 174.129 40.48C174.721 40.144 175.145 39.648 175.401 38.992L175.905 40.792C175.617 41.544 175.097 42.128 174.345 42.544C173.609 42.96 172.673 43.168 171.537 43.168ZM182.114 43V30.184H185.114V40.456H191.234V30.184H194.234V43H182.114ZM193.37 45.856V42.928L194.066 43H191.234V40.456H196.178V45.856H193.37ZM198.848 43V30.184H201.848V38.632L208.928 30.184H211.664V43H208.664V34.552L201.608 43H198.848ZM223.836 43V38.632L224.268 39.136H220.428C218.668 39.136 217.284 38.768 216.276 38.032C215.284 37.28 214.788 36.2 214.788 34.792C214.788 33.288 215.316 32.144 216.372 31.36C217.444 30.576 218.868 30.184 220.644 30.184H226.524V43H223.836ZM214.62 43L218.076 38.104H221.148L217.836 43H214.62ZM223.836 37.672V31.912L224.268 32.704H220.74C219.812 32.704 219.092 32.88 218.58 33.232C218.084 33.568 217.836 34.12 217.836 34.888C217.836 36.328 218.772 37.048 220.644 37.048H224.268L223.836 37.672ZM92.641 72V59.184H98.905C100.457 59.184 101.673 59.472 102.553 60.048C103.449 60.624 103.897 61.44 103.897 62.496C103.897 63.536 103.481 64.352 102.649 64.944C101.817 65.52 100.713 65.808 99.337 65.808L99.697 65.064C101.249 65.064 102.401 65.352 103.153 65.928C103.921 66.488 104.305 67.312 104.305 68.4C104.305 69.536 103.881 70.424 103.033 71.064C102.185 71.688 100.897 72 99.169 72H92.641ZM95.497 69.816H98.929C99.745 69.816 100.361 69.688 100.777 69.432C101.193 69.16 101.401 68.752 101.401 68.208C101.401 67.632 101.209 67.208 100.825 66.936C100.441 66.664 99.841 66.528 99.025 66.528H95.497V69.816ZM95.497 64.536H98.641C99.409 64.536 99.985 64.4 100.369 64.128C100.769 63.84 100.969 63.44 100.969 62.928C100.969 62.4 100.769 62.008 100.369 61.752C99.985 61.496 99.409 61.368 98.641 61.368H95.497V64.536ZM120.436 72V59.184H123.436V72H120.436ZM113.74 63.408C115.388 63.408 116.636 63.776 117.484 64.512C118.348 65.248 118.78 66.288 118.78 67.632C118.78 69.024 118.3 70.112 117.34 70.896C116.396 71.664 115.052 72.04 113.308 72.024L107.5 72V59.184H110.5V63.384L113.74 63.408ZM113.044 69.816C113.924 69.832 114.596 69.648 115.06 69.264C115.524 68.88 115.756 68.32 115.756 67.584C115.756 66.848 115.524 66.32 115.06 66C114.612 65.664 113.94 65.488 113.044 65.472L110.5 65.448V69.792L113.044 69.816ZM127.469 72V59.184H139.757V72H136.781V61.032L137.477 61.728H129.773L130.469 61.032V72H127.469ZM149.517 72.168C148.205 72.168 147.037 71.888 146.013 71.328C144.989 70.752 144.181 69.968 143.589 68.976C142.997 67.984 142.701 66.856 142.701 65.592C142.701 64.312 142.997 63.184 143.589 62.208C144.181 61.216 144.989 60.44 146.013 59.88C147.037 59.32 148.205 59.04 149.517 59.04C150.845 59.04 152.021 59.32 153.045 59.88C154.085 60.44 154.893 61.208 155.469 62.184C156.061 63.16 156.357 64.296 156.357 65.592C156.357 66.856 156.061 67.984 155.469 68.976C154.893 69.968 154.085 70.752 153.045 71.328C152.021 71.888 150.845 72.168 149.517 72.168ZM149.517 69.6C150.253 69.6 150.909 69.44 151.485 69.12C152.061 68.8 152.509 68.336 152.829 67.728C153.165 67.12 153.333 66.408 153.333 65.592C153.333 64.76 153.165 64.048 152.829 63.456C152.509 62.848 152.061 62.384 151.485 62.064C150.909 61.744 150.261 61.584 149.541 61.584C148.805 61.584 148.149 61.744 147.573 62.064C147.013 62.384 146.565 62.848 146.229 63.456C145.893 64.048 145.725 64.76 145.725 65.592C145.725 66.408 145.893 67.12 146.229 67.728C146.565 68.336 147.013 68.8 147.573 69.12C148.149 69.44 148.797 69.6 149.517 69.6ZM157.308 71.976L157.452 69.456C157.564 69.472 157.668 69.488 157.764 69.504C157.86 69.52 157.948 69.528 158.028 69.528C158.524 69.528 158.908 69.376 159.18 69.072C159.452 68.768 159.652 68.36 159.78 67.848C159.924 67.32 160.02 66.736 160.068 66.096C160.132 65.44 160.18 64.784 160.212 64.128L160.428 59.184H170.796V72H167.796V60.912L168.492 61.728H162.396L163.044 60.888L162.876 64.272C162.828 65.408 162.732 66.464 162.588 67.44C162.46 68.4 162.252 69.24 161.964 69.96C161.692 70.68 161.308 71.24 160.812 71.64C160.332 72.04 159.716 72.24 158.964 72.24C158.724 72.24 158.46 72.216 158.172 72.168C157.9 72.12 157.612 72.056 157.308 71.976ZM174.836 72V59.184H177.836V64.392H184.292V59.184H187.292V72H184.292V66.936H177.836V72H174.836ZM197.289 72.168C195.865 72.168 194.617 71.888 193.545 71.328C192.489 70.752 191.665 69.968 191.073 68.976C190.497 67.984 190.209 66.856 190.209 65.592C190.209 64.312 190.489 63.184 191.049 62.208C191.625 61.216 192.409 60.44 193.401 59.88C194.409 59.32 195.553 59.04 196.833 59.04C198.081 59.04 199.193 59.312 200.169 59.856C201.145 60.4 201.913 61.168 202.473 62.16C203.033 63.152 203.313 64.32 203.313 65.664C203.313 65.792 203.305 65.936 203.289 66.096C203.289 66.256 203.281 66.408 203.265 66.552H192.585V64.56H201.681L200.505 65.184C200.521 64.448 200.369 63.8 200.049 63.24C199.729 62.68 199.289 62.24 198.729 61.92C198.185 61.6 197.553 61.44 196.833 61.44C196.097 61.44 195.449 61.6 194.889 61.92C194.345 62.24 193.913 62.688 193.593 63.264C193.289 63.824 193.137 64.488 193.137 65.256V65.736C193.137 66.504 193.313 67.184 193.665 67.776C194.017 68.368 194.513 68.824 195.153 69.144C195.793 69.464 196.529 69.624 197.361 69.624C198.081 69.624 198.729 69.512 199.305 69.288C199.881 69.064 200.393 68.712 200.841 68.232L202.449 70.08C201.873 70.752 201.145 71.272 200.265 71.64C199.401 71.992 198.409 72.168 197.289 72.168ZM206.594 72V59.184H209.594V64.392H216.05V59.184H219.05V72H216.05V66.936H209.594V72H206.594ZM230.847 72V69.408L230.679 68.856V64.32C230.679 63.44 230.415 62.76 229.887 62.28C229.359 61.784 228.559 61.536 227.487 61.536C226.767 61.536 226.055 61.648 225.351 61.872C224.663 62.096 224.079 62.408 223.599 62.808L222.423 60.624C223.111 60.096 223.927 59.704 224.871 59.448C225.831 59.176 226.823 59.04 227.847 59.04C229.703 59.04 231.135 59.488 232.143 60.384C233.167 61.264 233.679 62.632 233.679 64.488V72H230.847ZM226.815 72.168C225.855 72.168 225.015 72.008 224.295 71.688C223.575 71.352 223.015 70.896 222.615 70.32C222.231 69.728 222.039 69.064 222.039 68.328C222.039 67.608 222.207 66.96 222.543 66.384C222.895 65.808 223.463 65.352 224.247 65.016C225.031 64.68 226.071 64.512 227.367 64.512H231.087V66.504H227.583C226.559 66.504 225.871 66.672 225.519 67.008C225.167 67.328 224.991 67.728 224.991 68.208C224.991 68.752 225.207 69.184 225.639 69.504C226.071 69.824 226.671 69.984 227.439 69.984C228.175 69.984 228.831 69.816 229.407 69.48C229.999 69.144 230.423 68.648 230.679 67.992L231.183 69.792C230.895 70.544 230.375 71.128 229.623 71.544C228.887 71.96 227.951 72.168 226.815 72.168Z" fill="black"/>
<circle cx="163" cy="160" r="60" fill="#31B5FF"/>
<rect x="78" y="365" width="170" height="25" rx="10" fill="#009FE3"/>
<path d="M100.748 373.6V382H98.804V378.556H94.988V382H93.044V373.6H94.988V376.912H98.804V373.6H100.748ZM105.217 375.448C106.217 375.448 106.985 375.688 107.521 376.168C108.057 376.64 108.325 377.356 108.325 378.316V382H106.573V381.196C106.221 381.796 105.565 382.096 104.605 382.096C104.109 382.096 103.677 382.012 103.309 381.844C102.949 381.676 102.673 381.444 102.481 381.148C102.289 380.852 102.193 380.516 102.193 380.14C102.193 379.54 102.417 379.068 102.865 378.724C103.321 378.38 104.021 378.208 104.965 378.208H106.453C106.453 377.8 106.329 377.488 106.081 377.272C105.833 377.048 105.461 376.936 104.965 376.936C104.621 376.936 104.281 376.992 103.945 377.104C103.617 377.208 103.337 377.352 103.105 377.536L102.433 376.228C102.785 375.98 103.205 375.788 103.693 375.652C104.189 375.516 104.697 375.448 105.217 375.448ZM105.073 380.836C105.393 380.836 105.677 380.764 105.925 380.62C106.173 380.468 106.349 380.248 106.453 379.96V379.3H105.169C104.401 379.3 104.017 379.552 104.017 380.056C104.017 380.296 104.109 380.488 104.293 380.632C104.485 380.768 104.745 380.836 105.073 380.836ZM118.521 377.08H115.209V382H113.349V375.544H118.521V377.08ZM125.237 375.544V382H123.365V377.08H121.325L121.265 378.22C121.233 379.068 121.153 379.772 121.025 380.332C120.897 380.892 120.689 381.332 120.401 381.652C120.113 381.972 119.713 382.132 119.201 382.132C118.929 382.132 118.605 382.084 118.229 381.988L118.325 380.452C118.453 380.468 118.545 380.476 118.601 380.476C118.881 380.476 119.089 380.376 119.225 380.176C119.369 379.968 119.465 379.708 119.513 379.396C119.561 379.076 119.597 378.656 119.621 378.136L119.717 375.544H125.237ZM129.545 375.448C130.545 375.448 131.313 375.688 131.849 376.168C132.385 376.64 132.653 377.356 132.653 378.316V382H130.901V381.196C130.549 381.796 129.893 382.096 128.933 382.096C128.437 382.096 128.005 382.012 127.637 381.844C127.277 381.676 127.001 381.444 126.809 381.148C126.617 380.852 126.521 380.516 126.521 380.14C126.521 379.54 126.745 379.068 127.193 378.724C127.649 378.38 128.349 378.208 129.293 378.208H130.781C130.781 377.8 130.657 377.488 130.409 377.272C130.161 377.048 129.789 376.936 129.293 376.936C128.949 376.936 128.609 376.992 128.273 377.104C127.945 377.208 127.665 377.352 127.433 377.536L126.761 376.228C127.113 375.98 127.533 375.788 128.021 375.652C128.517 375.516 129.025 375.448 129.545 375.448ZM129.401 380.836C129.721 380.836 130.005 380.764 130.253 380.62C130.501 380.468 130.677 380.248 130.781 379.96V379.3H129.497C128.729 379.3 128.345 379.552 128.345 380.056C128.345 380.296 128.437 380.488 128.621 380.632C128.813 380.768 129.073 380.836 129.401 380.836ZM139.211 378.628C139.971 378.884 140.351 379.396 140.351 380.164C140.351 380.748 140.131 381.2 139.691 381.52C139.251 381.84 138.595 382 137.723 382H134.279V375.544H137.579C138.387 375.544 139.019 375.692 139.475 375.988C139.931 376.276 140.159 376.684 140.159 377.212C140.159 377.532 140.075 377.816 139.907 378.064C139.747 378.304 139.515 378.492 139.211 378.628ZM135.995 378.196H137.411C138.067 378.196 138.395 377.964 138.395 377.5C138.395 377.044 138.067 376.816 137.411 376.816H135.995V378.196ZM137.567 380.728C138.255 380.728 138.599 380.492 138.599 380.02C138.599 379.772 138.519 379.592 138.359 379.48C138.199 379.36 137.947 379.3 137.603 379.3H135.995V380.728H137.567ZM141.744 375.544H143.604V378.064H146.412V375.544H148.284V382H146.412V379.588H143.604V382H141.744V375.544ZM156.544 375.544L153.628 382.396C153.332 383.14 152.964 383.664 152.524 383.968C152.092 384.272 151.568 384.424 150.952 384.424C150.616 384.424 150.284 384.372 149.956 384.268C149.628 384.164 149.36 384.02 149.152 383.836L149.836 382.504C149.98 382.632 150.144 382.732 150.328 382.804C150.52 382.876 150.708 382.912 150.892 382.912C151.148 382.912 151.356 382.848 151.516 382.72C151.676 382.6 151.82 382.396 151.948 382.108L151.972 382.048L149.176 375.544H151.108L152.92 379.924L154.744 375.544H156.544ZM163.555 375.448C164.211 375.448 164.799 375.592 165.319 375.88C165.839 376.16 166.247 376.552 166.543 377.056C166.839 377.56 166.987 378.132 166.987 378.772C166.987 379.412 166.839 379.984 166.543 380.488C166.247 380.992 165.839 381.388 165.319 381.676C164.799 381.956 164.211 382.096 163.555 382.096C162.987 382.096 162.467 381.992 161.995 381.784C161.523 381.568 161.131 381.268 160.819 380.884C160.507 380.492 160.299 380.044 160.195 379.54H159.307V382H157.447V375.544H159.307V377.92H160.207C160.391 377.168 160.783 376.568 161.383 376.12C161.983 375.672 162.707 375.448 163.555 375.448ZM163.555 380.56C164.011 380.56 164.387 380.4 164.683 380.08C164.987 379.752 165.139 379.316 165.139 378.772C165.139 378.22 164.987 377.784 164.683 377.464C164.387 377.144 164.011 376.984 163.555 376.984C163.091 376.984 162.707 377.144 162.403 377.464C162.107 377.784 161.959 378.22 161.959 378.772C161.959 379.316 162.107 379.752 162.403 380.08C162.707 380.4 163.091 380.56 163.555 380.56ZM174.757 382.096C174.069 382.096 173.449 381.956 172.897 381.676C172.353 381.388 171.925 380.992 171.613 380.488C171.309 379.984 171.157 379.412 171.157 378.772C171.157 378.132 171.309 377.56 171.613 377.056C171.925 376.552 172.353 376.16 172.897 375.88C173.449 375.592 174.069 375.448 174.757 375.448C175.437 375.448 176.029 375.592 176.533 375.88C177.045 376.16 177.417 376.564 177.649 377.092L176.197 377.872C175.861 377.28 175.377 376.984 174.745 376.984C174.257 376.984 173.853 377.144 173.533 377.464C173.213 377.784 173.053 378.22 173.053 378.772C173.053 379.324 173.213 379.76 173.533 380.08C173.853 380.4 174.257 380.56 174.745 380.56C175.385 380.56 175.869 380.264 176.197 379.672L177.649 380.464C177.417 380.976 177.045 381.376 176.533 381.664C176.029 381.952 175.437 382.096 174.757 382.096ZM184.187 377.08H182.003V382H180.143V377.08H177.959V375.544H184.187V377.08ZM188.989 375.448C189.589 375.448 190.133 375.588 190.621 375.868C191.117 376.14 191.505 376.528 191.785 377.032C192.065 377.528 192.205 378.108 192.205 378.772C192.205 379.436 192.065 380.02 191.785 380.524C191.505 381.02 191.117 381.408 190.621 381.688C190.133 381.96 189.589 382.096 188.989 382.096C188.165 382.096 187.517 381.836 187.045 381.316V384.328H185.173V375.544H186.961V376.288C187.425 375.728 188.101 375.448 188.989 375.448ZM188.665 380.56C189.145 380.56 189.537 380.4 189.841 380.08C190.153 379.752 190.309 379.316 190.309 378.772C190.309 378.228 190.153 377.796 189.841 377.476C189.537 377.148 189.145 376.984 188.665 376.984C188.185 376.984 187.789 377.148 187.477 377.476C187.173 377.796 187.021 378.228 187.021 378.772C187.021 379.316 187.173 379.752 187.477 380.08C187.789 380.4 188.185 380.56 188.665 380.56ZM195.92 375.448C196.92 375.448 197.688 375.688 198.224 376.168C198.76 376.64 199.028 377.356 199.028 378.316V382H197.276V381.196C196.924 381.796 196.268 382.096 195.308 382.096C194.812 382.096 194.38 382.012 194.012 381.844C193.652 381.676 193.376 381.444 193.184 381.148C192.992 380.852 192.896 380.516 192.896 380.14C192.896 379.54 193.12 379.068 193.568 378.724C194.024 378.38 194.724 378.208 195.668 378.208H197.156C197.156 377.8 197.032 377.488 196.784 377.272C196.536 377.048 196.164 376.936 195.668 376.936C195.324 376.936 194.984 376.992 194.648 377.104C194.32 377.208 194.04 377.352 193.808 377.536L193.136 376.228C193.488 375.98 193.908 375.788 194.396 375.652C194.892 375.516 195.4 375.448 195.92 375.448ZM195.776 380.836C196.096 380.836 196.38 380.764 196.628 380.62C196.876 380.468 197.052 380.248 197.156 379.96V379.3H195.872C195.104 379.3 194.72 379.552 194.72 380.056C194.72 380.296 194.812 380.488 194.996 380.632C195.188 380.768 195.448 380.836 195.776 380.836ZM200.654 375.544H202.514V378.064H205.322V375.544H207.194V382H205.322V379.588H202.514V382H200.654V375.544ZM208.986 375.544H210.846V379.384L213.99 375.544H215.706V382H213.846V378.16L210.714 382H208.986V375.544ZM224.777 380.464V383.416H223.037V382H217.505V375.544H219.365V380.464H221.969V375.544H223.841V380.464H224.777ZM232.423 375.544L229.507 382.396C229.211 383.14 228.843 383.664 228.403 383.968C227.971 384.272 227.447 384.424 226.831 384.424C226.495 384.424 226.163 384.372 225.835 384.268C225.507 384.164 225.239 384.02 225.031 383.836L225.715 382.504C225.859 382.632 226.023 382.732 226.207 382.804C226.399 382.876 226.587 382.912 226.771 382.912C227.027 382.912 227.235 382.848 227.395 382.72C227.555 382.6 227.699 382.396 227.827 382.108L227.851 382.048L225.055 375.544H226.987L228.799 379.924L230.623 375.544H232.423Z" fill="white"/>
<path d="M134 156L150.496 186.635C152.404 190.179 157.504 190.131 159.345 186.552L191 125" stroke="white" stroke-width="10"/>
<path d="M125.871 243.088C128.303 243.088 130.071 243.528 131.175 244.408C132.295 245.272 132.855 246.488 132.855 248.056C132.855 249.032 132.623 249.904 132.159 250.672C131.711 251.44 131.031 252.048 130.119 252.496C129.207 252.928 128.087 253.144 126.759 253.144C125.559 253.144 124.415 252.952 123.327 252.568C122.255 252.168 121.391 251.64 120.735 250.984L121.575 249.616C122.135 250.192 122.871 250.664 123.783 251.032C124.695 251.384 125.679 251.56 126.735 251.56C128.127 251.56 129.199 251.248 129.951 250.624C130.719 250 131.103 249.168 131.103 248.128C131.103 246.976 130.671 246.104 129.807 245.512C128.959 244.92 127.519 244.624 125.487 244.624H121.911L122.775 236.2H131.967V237.736H124.287L123.711 243.088H125.871ZM141.745 253.144C140.449 253.144 139.289 252.8 138.265 252.112C137.257 251.424 136.465 250.44 135.889 249.16C135.329 247.864 135.049 246.344 135.049 244.6C135.049 242.856 135.329 241.344 135.889 240.064C136.465 238.768 137.257 237.776 138.265 237.088C139.289 236.4 140.449 236.056 141.745 236.056C143.041 236.056 144.193 236.4 145.201 237.088C146.225 237.776 147.025 238.768 147.601 240.064C148.177 241.344 148.465 242.856 148.465 244.6C148.465 246.344 148.177 247.864 147.601 249.16C147.025 250.44 146.225 251.424 145.201 252.112C144.193 252.8 143.041 253.144 141.745 253.144ZM141.745 251.56C142.721 251.56 143.577 251.288 144.313 250.744C145.065 250.2 145.649 249.408 146.065 248.368C146.481 247.328 146.689 246.072 146.689 244.6C146.689 243.128 146.481 241.872 146.065 240.832C145.649 239.792 145.065 239 144.313 238.456C143.577 237.912 142.721 237.64 141.745 237.64C140.769 237.64 139.905 237.912 139.153 238.456C138.417 239 137.841 239.792 137.425 240.832C137.009 241.872 136.801 243.128 136.801 244.6C136.801 246.072 137.009 247.328 137.425 248.368C137.841 249.408 138.417 250.2 139.153 250.744C139.905 251.288 140.769 251.56 141.745 251.56ZM157.635 253.144C156.339 253.144 155.179 252.8 154.155 252.112C153.147 251.424 152.355 250.44 151.779 249.16C151.219 247.864 150.939 246.344 150.939 244.6C150.939 242.856 151.219 241.344 151.779 240.064C152.355 238.768 153.147 237.776 154.155 237.088C155.179 236.4 156.339 236.056 157.635 236.056C158.931 236.056 160.083 236.4 161.091 237.088C162.115 237.776 162.915 238.768 163.491 240.064C164.067 241.344 164.355 242.856 164.355 244.6C164.355 246.344 164.067 247.864 163.491 249.16C162.915 250.44 162.115 251.424 161.091 252.112C160.083 252.8 158.931 253.144 157.635 253.144ZM157.635 251.56C158.611 251.56 159.467 251.288 160.203 250.744C160.955 250.2 161.539 249.408 161.955 248.368C162.371 247.328 162.579 246.072 162.579 244.6C162.579 243.128 162.371 241.872 161.955 240.832C161.539 239.792 160.955 239 160.203 238.456C159.467 237.912 158.611 237.64 157.635 237.64C156.659 237.64 155.795 237.912 155.043 238.456C154.307 239 153.731 239.792 153.315 240.832C152.899 241.872 152.691 243.128 152.691 244.6C152.691 246.072 152.899 247.328 153.315 248.368C153.731 249.408 154.307 250.2 155.043 250.744C155.795 251.288 156.659 251.56 157.635 251.56ZM173.526 253.144C172.23 253.144 171.07 252.8 170.046 252.112C169.038 251.424 168.246 250.44 167.67 249.16C167.11 247.864 166.83 246.344 166.83 244.6C166.83 242.856 167.11 241.344 167.67 240.064C168.246 238.768 169.038 237.776 170.046 237.088C171.07 236.4 172.23 236.056 173.526 236.056C174.822 236.056 175.974 236.4 176.982 237.088C178.006 237.776 178.806 238.768 179.382 240.064C179.958 241.344 180.246 242.856 180.246 244.6C180.246 246.344 179.958 247.864 179.382 249.16C178.806 250.44 178.006 251.424 176.982 252.112C175.974 252.8 174.822 253.144 173.526 253.144ZM173.526 251.56C174.502 251.56 175.358 251.288 176.094 250.744C176.846 250.2 177.43 249.408 177.846 248.368C178.262 247.328 178.47 246.072 178.47 244.6C178.47 243.128 178.262 241.872 177.846 240.832C177.43 239.792 176.846 239 176.094 238.456C175.358 237.912 174.502 237.64 173.526 237.64C172.55 237.64 171.686 237.912 170.934 238.456C170.198 239 169.622 239.792 169.206 240.832C168.79 241.872 168.582 243.128 168.582 244.6C168.582 246.072 168.79 247.328 169.206 248.368C169.622 249.408 170.198 250.2 170.934 250.744C171.686 251.288 172.55 251.56 173.526 251.56ZM196.874 236.2C199.018 236.2 200.698 236.712 201.914 237.736C203.13 238.76 203.738 240.168 203.738 241.96C203.738 243.752 203.13 245.16 201.914 246.184C200.698 247.192 199.018 247.696 196.874 247.696H192.362V253H190.586V236.2H196.874ZM196.826 246.136C198.49 246.136 199.762 245.776 200.642 245.056C201.522 244.32 201.962 243.288 201.962 241.96C201.962 240.6 201.522 239.56 200.642 238.84C199.762 238.104 198.49 237.736 196.826 237.736H192.362V246.136H196.826Z" fill="#666666"/>
</g>
<defs>
<filter id="filter0_d_6_133" x="-1" y="45" width="328" height="328" filterUnits="userSpaceOnUse" color-interpolation-filters="sRGB">
<feFlood flood-opacity="0" result="BackgroundImageFix"/>
<feColorMatrix in="SourceAlpha" type="matrix" values="0 0 0 0 0 0 0 0 0 0 0 0 0 0 0 0 0 0 127 0" result="hardAlpha"/>
<feOffset dy="4"/>
<feGaussianBlur stdDeviation="2"/>
<feComposite in2="hardAlpha" operator="out"/>
<feColorMatrix type="matrix" values="0 0 0 0 0 0 0 0 0 0 0 0 0 0 0 0 0 0 0.25 0"/>
<feBlend mode="normal" in2="BackgroundImageFix" result="effect1_dropShadow_6_133"/>
<feBlend mode="normal" in="SourceGraphic" in2="effect1_dropShadow_6_133" result="shape"/>
</filter>
<clipPath id="clip0_6_133">
<rect width="325" height="410" fill="white"/>
</clipPath>
</defs>
</svg>
