<svg width="325" height="410" viewBox="0 0 325 410" fill="none" xmlns="http://www.w3.org/2000/svg">
<g clip-path="url(#clip0_2_2)">
<g filter="url(#filter0_d_2_2)">
<circle cx="163" cy="205" r="160" fill="#92D8FF"/>
</g>
<rect x="58" width="210" height="410" rx="10" fill="#0077AA"/>
<rect x="68" y="10" width="190" height="390" rx="10" fill="white"/>
<path d="M84.656 34.224C83.4827 34.224 82.4267 33.9787 81.488 33.488C80.56 32.9867 79.8293 32.2933 79.296 31.408C78.7627 30.5227 78.496 29.52 78.496 28.4C78.496 27.28 78.7627 26.2773 79.296 25.392C79.8293 24.5067 80.56 23.8187 81.488 23.328C82.4267 22.8267 83.4827 22.576 84.656 22.576C85.68 22.576 86.6027 22.7573 87.424 23.12C88.2453 23.4827 88.928 24.0053 89.472 24.688L87.456 26.512C86.7307 25.6373 85.8507 25.2 84.816 25.2C84.208 25.2 83.664 25.3333 83.184 25.6C82.7147 25.8667 82.3467 26.2453 82.08 26.736C81.824 27.216 81.696 27.7707 81.696 28.4C81.696 29.0293 81.824 29.5893 82.08 30.08C82.3467 30.56 82.7147 30.9333 83.184 31.2C83.664 31.4667 84.208 31.6 84.816 31.6C85.8507 31.6 86.7307 31.1627 87.456 30.288L89.472 32.112C88.928 32.7947 88.2453 33.3173 87.424 33.68C86.6027 34.0427 85.68 34.224 84.656 34.224ZM94.7335 34.144C93.8055 34.144 92.9682 33.952 92.2215 33.568C91.4748 33.184 90.8882 32.6507 90.4615 31.968C90.0455 31.2853 89.8375 30.512 89.8375 29.648C89.8375 28.7947 90.0455 28.0267 90.4615 27.344C90.8882 26.6613 91.4695 26.1333 92.2055 25.76C92.9522 25.376 93.7948 25.184 94.7335 25.184C95.6722 25.184 96.5148 25.376 97.2615 25.76C98.0082 26.1333 98.5895 26.6613 99.0055 27.344C99.4215 28.016 99.6295 28.784 99.6295 29.648C99.6295 30.512 99.4215 31.2853 99.0055 31.968C98.5895 32.6507 98.0082 33.184 97.2615 33.568C96.5148 33.952 95.6722 34.144 94.7335 34.144ZM94.7335 31.728C95.2668 31.728 95.7042 31.5467 96.0455 31.184C96.3868 30.8107 96.5575 30.2987 96.5575 29.648C96.5575 29.008 96.3868 28.5067 96.0455 28.144C95.7042 27.7813 95.2668 27.6 94.7335 27.6C94.2002 27.6 93.7628 27.7813 93.4215 28.144C93.0802 28.5067 92.9095 29.008 92.9095 29.648C92.9095 30.2987 93.0802 30.8107 93.4215 31.184C93.7628 31.5467 94.2002 31.728 94.7335 31.728ZM106.964 29.504C107.465 29.664 107.849 29.9093 108.116 30.24C108.393 30.56 108.532 30.944 108.532 31.392C108.532 31.968 108.329 32.4693 107.924 32.896C107.529 33.312 106.985 33.632 106.292 33.856C105.609 34.0693 104.841 34.176 103.988 34.176C102.516 34.176 101.204 33.9253 100.052 33.424L100.836 31.376C101.753 31.76 102.772 31.952 103.892 31.952C104.372 31.952 104.751 31.8827 105.028 31.744C105.316 31.6053 105.46 31.408 105.46 31.152C105.46 30.9173 105.375 30.7467 105.204 30.64C105.033 30.5333 104.772 30.48 104.42 30.48H102.548V28.704H104.148C104.863 28.704 105.22 28.4853 105.22 28.048C105.22 27.5893 104.745 27.36 103.796 27.36C102.975 27.36 102.057 27.552 101.044 27.936L100.324 25.936C101.583 25.4133 102.825 25.152 104.052 25.152C105.279 25.152 106.292 25.3707 107.092 25.808C107.892 26.2347 108.292 26.8373 108.292 27.616C108.292 28.0107 108.175 28.3733 107.94 28.704C107.705 29.0347 107.38 29.3013 106.964 29.504ZM120.28 31.568V35.792H117.464V34H112.008V35.792H109.176V31.568H109.496C110.019 31.5573 110.381 31.2747 110.584 30.72C110.787 30.1547 110.909 29.3653 110.952 28.352L111.064 25.328H119.08V31.568H120.28ZM113.688 28.576C113.656 29.3547 113.597 29.9787 113.512 30.448C113.427 30.9173 113.267 31.2907 113.032 31.568H116.04V27.744H113.72L113.688 28.576ZM125.123 25.184C126.563 25.184 127.661 25.5147 128.419 26.176C129.176 26.8267 129.555 27.8293 129.555 29.184V34H126.723V32.88C126.285 33.7227 125.432 34.144 124.163 34.144C123.491 34.144 122.909 34.0267 122.419 33.792C121.928 33.5573 121.555 33.2427 121.299 32.848C121.053 32.4427 120.931 31.984 120.931 31.472C120.931 30.6507 121.245 30.016 121.875 29.568C122.504 29.1093 123.475 28.88 124.786 28.88H126.515C126.461 27.9627 125.848 27.504 124.674 27.504C124.259 27.504 123.837 27.5733 123.411 27.712C122.984 27.84 122.621 28.0213 122.323 28.256L121.299 26.192C121.779 25.872 122.36 25.6267 123.043 25.456C123.736 25.2747 124.429 25.184 125.123 25.184ZM125.011 32.224C125.363 32.224 125.672 32.1387 125.939 31.968C126.205 31.7973 126.397 31.5467 126.515 31.216V30.464H125.203C124.317 30.464 123.875 30.7573 123.875 31.344C123.875 31.6107 123.976 31.824 124.179 31.984C124.381 32.144 124.659 32.224 125.011 32.224ZM131.383 25.328H134.407V28.544H137.527V25.328H140.567V34H137.527V30.96H134.407V34H131.383V25.328ZM142.618 25.328H145.642V29.872L149.274 25.328H152.074V34H149.034V29.44L145.434 34H142.618V25.328ZM162.902 29.68C162.902 29.7013 162.886 29.952 162.854 30.432H156.55C156.678 30.88 156.923 31.2267 157.286 31.472C157.659 31.7067 158.123 31.824 158.678 31.824C159.094 31.824 159.451 31.7653 159.75 31.648C160.059 31.5307 160.368 31.3387 160.678 31.072L162.278 32.736C161.435 33.6747 160.203 34.144 158.582 34.144C157.568 34.144 156.678 33.952 155.91 33.568C155.142 33.184 154.544 32.6507 154.118 31.968C153.702 31.2853 153.494 30.512 153.494 29.648C153.494 28.7947 153.696 28.032 154.102 27.36C154.518 26.6773 155.088 26.144 155.814 25.76C156.539 25.376 157.355 25.184 158.262 25.184C159.126 25.184 159.91 25.3653 160.614 25.728C161.318 26.08 161.872 26.5973 162.278 27.28C162.694 27.952 162.902 28.752 162.902 29.68ZM158.278 27.344C157.808 27.344 157.414 27.4773 157.094 27.744C156.784 28.0107 156.587 28.3733 156.502 28.832H160.054C159.968 28.3733 159.766 28.0107 159.446 27.744C159.136 27.4773 158.747 27.344 158.278 27.344ZM178.125 25.328V34H175.101V27.744H172.189V34H169.165V25.328H178.125ZM185.652 25.184C186.441 25.184 187.156 25.3707 187.796 25.744C188.447 26.1067 188.959 26.6293 189.332 27.312C189.716 27.984 189.908 28.768 189.908 29.664C189.908 30.56 189.716 31.3493 189.332 32.032C188.959 32.704 188.447 33.2267 187.796 33.6C187.156 33.9627 186.441 34.144 185.652 34.144C184.639 34.144 183.833 33.84 183.236 33.232V37.104H180.196V25.328H183.092V26.192C183.657 25.52 184.511 25.184 185.652 25.184ZM185.012 31.728C185.545 31.728 185.983 31.5467 186.324 31.184C186.665 30.8107 186.836 30.304 186.836 29.664C186.836 29.024 186.665 28.5227 186.324 28.16C185.983 27.7867 185.545 27.6 185.012 27.6C184.479 27.6 184.041 27.7867 183.7 28.16C183.359 28.5227 183.188 29.024 183.188 29.664C183.188 30.304 183.359 30.8107 183.7 31.184C184.041 31.5467 184.479 31.728 185.012 31.728ZM195.64 34.144C194.712 34.144 193.874 33.952 193.128 33.568C192.381 33.184 191.794 32.6507 191.368 31.968C190.952 31.2853 190.744 30.512 190.744 29.648C190.744 28.7947 190.952 28.0267 191.368 27.344C191.794 26.6613 192.376 26.1333 193.112 25.76C193.858 25.376 194.701 25.184 195.64 25.184C196.578 25.184 197.421 25.376 198.168 25.76C198.914 26.1333 199.496 26.6613 199.912 27.344C200.328 28.016 200.536 28.784 200.536 29.648C200.536 30.512 200.328 31.2853 199.912 31.968C199.496 32.6507 198.914 33.184 198.168 33.568C197.421 33.952 196.578 34.144 195.64 34.144ZM195.64 31.728C196.173 31.728 196.61 31.5467 196.952 31.184C197.293 30.8107 197.464 30.2987 197.464 29.648C197.464 29.008 197.293 28.5067 196.952 28.144C196.61 27.7813 196.173 27.6 195.64 27.6C195.106 27.6 194.669 27.7813 194.328 28.144C193.986 28.5067 193.816 29.008 193.816 29.648C193.816 30.2987 193.986 30.8107 194.328 31.184C194.669 31.5467 195.106 31.728 195.64 31.728ZM214.522 29.632C214.522 30.9867 214.068 32.0533 213.162 32.832C212.255 33.6 210.959 34.048 209.274 34.176V37.104H206.586V34.192C204.89 34.0533 203.588 33.6 202.682 32.832C201.786 32.0533 201.338 30.9867 201.338 29.632C201.338 28.288 201.78 27.2427 202.666 26.496C203.562 25.7493 204.868 25.312 206.586 25.184V22.128H209.274V25.184C210.97 25.3227 212.266 25.7653 213.162 26.512C214.068 27.2587 214.522 28.2987 214.522 29.632ZM204.234 29.632C204.234 30.336 204.415 30.8747 204.778 31.248C205.151 31.6107 205.754 31.8453 206.586 31.952V27.408C205.743 27.5147 205.14 27.744 204.778 28.096C204.415 28.448 204.234 28.96 204.234 29.632ZM209.274 31.952C210.116 31.8453 210.719 31.6107 211.082 31.248C211.455 30.8747 211.642 30.336 211.642 29.632C211.642 28.96 211.455 28.448 211.082 28.096C210.719 27.744 210.116 27.52 209.274 27.424V31.952ZM215.946 25.328H218.97V29.872L222.602 25.328H225.402V34H222.362V29.44L218.762 34H215.946V25.328ZM236.278 25.328V34H233.238V27.744H231.046L230.982 29.072C230.939 30.2027 230.827 31.136 230.646 31.872C230.465 32.608 230.166 33.184 229.75 33.6C229.334 34.0053 228.763 34.208 228.038 34.208C227.665 34.208 227.174 34.1387 226.566 34L226.694 31.52C226.886 31.5413 227.014 31.552 227.078 31.552C227.409 31.552 227.659 31.4453 227.83 31.232C228.001 31.0187 228.118 30.736 228.182 30.384C228.246 30.0213 228.289 29.5413 228.31 28.944L228.438 25.328H236.278ZM246.481 25.328V34H243.777V31.648H242.401L240.865 34H237.649L239.569 31.232C238.993 30.976 238.55 30.6293 238.241 30.192C237.942 29.744 237.793 29.2107 237.793 28.592C237.793 27.5573 238.177 26.7573 238.945 26.192C239.713 25.616 240.769 25.328 242.113 25.328H246.481ZM242.177 27.728C241.324 27.728 240.897 28.0533 240.897 28.704C240.897 29.0453 240.998 29.296 241.201 29.456C241.414 29.616 241.734 29.696 242.161 29.696H243.777V27.728H242.177Z" fill="black"/>
<rect x="78.5" y="50.5" width="169" height="24" rx="9.5" fill="white" stroke="#666666"/>
<path d="M91.308 66.232V67H85.368V58.6H91.128V59.368H86.256V62.356H90.6V63.112H86.256V66.232H91.308ZM92.513 63.376H95.657V64.12H92.513V63.376ZM105.435 60.64C106.227 60.64 106.847 60.868 107.295 61.324C107.751 61.78 107.979 62.452 107.979 63.34V67H107.127V63.424C107.127 62.768 106.967 62.268 106.647 61.924C106.335 61.58 105.891 61.408 105.315 61.408C104.659 61.408 104.143 61.612 103.767 62.02C103.391 62.42 103.203 62.976 103.203 63.688V67H102.351V63.424C102.351 62.768 102.191 62.268 101.871 61.924C101.559 61.58 101.111 61.408 100.527 61.408C99.879 61.408 99.363 61.612 98.979 62.02C98.603 62.42 98.415 62.976 98.415 63.688V67H97.563V60.688H98.379V61.84C98.603 61.456 98.915 61.16 99.315 60.952C99.715 60.744 100.175 60.64 100.695 60.64C101.223 60.64 101.679 60.752 102.063 60.976C102.455 61.2 102.747 61.532 102.939 61.972C103.171 61.556 103.503 61.232 103.935 61C104.375 60.76 104.875 60.64 105.435 60.64ZM112.498 60.64C113.322 60.64 113.954 60.848 114.394 61.264C114.834 61.672 115.054 62.28 115.054 63.088V67H114.238V66.016C114.046 66.344 113.762 66.6 113.386 66.784C113.018 66.968 112.578 67.06 112.066 67.06C111.362 67.06 110.802 66.892 110.386 66.556C109.97 66.22 109.762 65.776 109.762 65.224C109.762 64.688 109.954 64.256 110.338 63.928C110.73 63.6 111.35 63.436 112.198 63.436H114.202V63.052C114.202 62.508 114.05 62.096 113.746 61.816C113.442 61.528 112.998 61.384 112.414 61.384C112.014 61.384 111.63 61.452 111.262 61.588C110.894 61.716 110.578 61.896 110.314 62.128L109.93 61.492C110.25 61.22 110.634 61.012 111.082 60.868C111.53 60.716 112.002 60.64 112.498 60.64ZM112.198 66.388C112.678 66.388 113.09 66.28 113.434 66.064C113.778 65.84 114.034 65.52 114.202 65.104V64.072H112.222C111.142 64.072 110.602 64.448 110.602 65.2C110.602 65.568 110.742 65.86 111.022 66.076C111.302 66.284 111.694 66.388 112.198 66.388ZM117.368 60.688H118.22V67H117.368V60.688ZM117.8 59.308C117.624 59.308 117.476 59.248 117.356 59.128C117.236 59.008 117.176 58.864 117.176 58.696C117.176 58.536 117.236 58.396 117.356 58.276C117.476 58.156 117.624 58.096 117.8 58.096C117.976 58.096 118.124 58.156 118.244 58.276C118.364 58.388 118.424 58.524 118.424 58.684C118.424 58.86 118.364 59.008 118.244 59.128C118.124 59.248 117.976 59.308 117.8 59.308ZM120.59 58.096H121.442V67H120.59V58.096Z" fill="#666666"/>
<rect x="78.5" y="87.5" width="169" height="24" rx="9.5" fill="white" stroke="#666666"/>
<path d="M94.404 99.788C94.404 100.9 94.008 101.776 93.216 102.416C92.432 103.048 91.332 103.384 89.916 103.424V104.288H89.088V103.424C87.672 103.376 86.568 103.036 85.776 102.404C84.992 101.772 84.6 100.9 84.6 99.788C84.6 98.676 84.992 97.804 85.776 97.172C86.568 96.54 87.672 96.2 89.088 96.152V95.312H89.916V96.152C91.324 96.2 92.424 96.544 93.216 97.184C94.008 97.816 94.404 98.684 94.404 99.788ZM89.916 102.716C91.076 102.668 91.972 102.392 92.604 101.888C93.236 101.384 93.552 100.684 93.552 99.788C93.552 98.892 93.232 98.192 92.592 97.688C91.96 97.184 91.068 96.912 89.916 96.872V102.716ZM85.452 99.788C85.452 100.684 85.768 101.384 86.4 101.888C87.04 102.384 87.936 102.66 89.088 102.716V96.872C87.92 96.92 87.02 97.196 86.388 97.7C85.764 98.196 85.452 98.892 85.452 99.788ZM96.4199 95.6H97.2959V102.56L102.672 95.6H103.476V104H102.6V97.052L97.2239 104H96.4199V95.6ZM109.995 104.072C109.163 104.072 108.407 103.888 107.727 103.52C107.055 103.144 106.527 102.632 106.143 101.984C105.767 101.336 105.579 100.608 105.579 99.8C105.579 98.992 105.767 98.264 106.143 97.616C106.527 96.968 107.055 96.46 107.727 96.092C108.407 95.716 109.163 95.528 109.995 95.528C110.827 95.528 111.575 95.712 112.239 96.08C112.911 96.448 113.439 96.96 113.823 97.616C114.207 98.264 114.399 98.992 114.399 99.8C114.399 100.608 114.207 101.34 113.823 101.996C113.439 102.644 112.911 103.152 112.239 103.52C111.575 103.888 110.827 104.072 109.995 104.072ZM109.995 103.28C110.659 103.28 111.259 103.132 111.795 102.836C112.331 102.532 112.751 102.116 113.055 101.588C113.359 101.052 113.511 100.456 113.511 99.8C113.511 99.144 113.359 98.552 113.055 98.024C112.751 97.488 112.331 97.072 111.795 96.776C111.259 96.472 110.659 96.32 109.995 96.32C109.331 96.32 108.727 96.472 108.183 96.776C107.647 97.072 107.223 97.488 106.911 98.024C106.607 98.552 106.455 99.144 106.455 99.8C106.455 100.456 106.607 101.052 106.911 101.588C107.223 102.116 107.647 102.532 108.183 102.836C108.727 103.132 109.331 103.28 109.995 103.28Z" fill="#666666"/>
<rect x="78.5" y="198.5" width="169" height="24" rx="9.5" fill="white" stroke="#666666"/>
<path d="M92.436 206.6V215H91.56V211.124H86.304V215H85.416V206.6H86.304V210.344H91.56V206.6H92.436ZM97.6715 215.06C97.0635 215.06 96.5155 214.924 96.0275 214.652C95.5395 214.372 95.1555 213.988 94.8755 213.5C94.5955 213.012 94.4555 212.46 94.4555 211.844C94.4555 211.228 94.5955 210.676 94.8755 210.188C95.1555 209.7 95.5395 209.32 96.0275 209.048C96.5155 208.776 97.0635 208.64 97.6715 208.64C98.2795 208.64 98.8275 208.776 99.3155 209.048C99.8035 209.32 100.183 209.7 100.455 210.188C100.735 210.676 100.875 211.228 100.875 211.844C100.875 212.46 100.735 213.012 100.455 213.5C100.183 213.988 99.8035 214.372 99.3155 214.652C98.8275 214.924 98.2795 215.06 97.6715 215.06ZM97.6715 214.304C98.1195 214.304 98.5195 214.204 98.8715 214.004C99.2315 213.796 99.5115 213.504 99.7115 213.128C99.9115 212.752 100.011 212.324 100.011 211.844C100.011 211.364 99.9115 210.936 99.7115 210.56C99.5115 210.184 99.2315 209.896 98.8715 209.696C98.5195 209.488 98.1195 209.384 97.6715 209.384C97.2235 209.384 96.8195 209.488 96.4595 209.696C96.1075 209.896 95.8275 210.184 95.6195 210.56C95.4195 210.936 95.3195 211.364 95.3195 211.844C95.3195 212.324 95.4195 212.752 95.6195 213.128C95.8275 213.504 96.1075 213.796 96.4595 214.004C96.8195 214.204 97.2235 214.304 97.6715 214.304ZM109.752 208.688V215H108.972V210.008L106.416 214.232H106.032L103.476 209.996V215H102.696V208.688H103.56L106.236 213.236L108.96 208.688H109.752ZM117.697 212.108H112.417C112.465 212.764 112.717 213.296 113.173 213.704C113.629 214.104 114.205 214.304 114.901 214.304C115.293 214.304 115.653 214.236 115.981 214.1C116.309 213.956 116.593 213.748 116.833 213.476L117.313 214.028C117.033 214.364 116.681 214.62 116.257 214.796C115.841 214.972 115.381 215.06 114.877 215.06C114.229 215.06 113.653 214.924 113.149 214.652C112.653 214.372 112.265 213.988 111.985 213.5C111.705 213.012 111.565 212.46 111.565 211.844C111.565 211.228 111.697 210.676 111.961 210.188C112.233 209.7 112.601 209.32 113.065 209.048C113.537 208.776 114.065 208.64 114.649 208.64C115.233 208.64 115.757 208.776 116.221 209.048C116.685 209.32 117.049 209.7 117.313 210.188C117.577 210.668 117.709 211.22 117.709 211.844L117.697 212.108ZM114.649 209.372C114.041 209.372 113.529 209.568 113.113 209.96C112.705 210.344 112.473 210.848 112.417 211.472H116.893C116.837 210.848 116.601 210.344 116.185 209.96C115.777 209.568 115.265 209.372 114.649 209.372ZM122.847 208.64C123.439 208.64 123.975 208.776 124.455 209.048C124.935 209.312 125.311 209.688 125.583 210.176C125.855 210.664 125.991 211.22 125.991 211.844C125.991 212.476 125.855 213.036 125.583 213.524C125.311 214.012 124.935 214.392 124.455 214.664C123.983 214.928 123.447 215.06 122.847 215.06C122.335 215.06 121.871 214.956 121.455 214.748C121.047 214.532 120.711 214.22 120.447 213.812V217.328H119.595V208.688H120.411V209.936C120.667 209.52 121.003 209.2 121.419 208.976C121.843 208.752 122.319 208.64 122.847 208.64ZM122.787 214.304C123.227 214.304 123.627 214.204 123.987 214.004C124.347 213.796 124.627 213.504 124.827 213.128C125.035 212.752 125.139 212.324 125.139 211.844C125.139 211.364 125.035 210.94 124.827 210.572C124.627 210.196 124.347 209.904 123.987 209.696C123.627 209.488 123.227 209.384 122.787 209.384C122.339 209.384 121.935 209.488 121.575 209.696C121.223 209.904 120.943 210.196 120.735 210.572C120.535 210.94 120.435 211.364 120.435 211.844C120.435 212.324 120.535 212.752 120.735 213.128C120.943 213.504 121.223 213.796 121.575 214.004C121.935 214.204 122.339 214.304 122.787 214.304ZM133.602 215.06C132.978 215.06 132.418 214.924 131.922 214.652C131.434 214.38 131.05 214 130.77 213.512C130.49 213.016 130.35 212.46 130.35 211.844C130.35 211.228 130.49 210.676 130.77 210.188C131.05 209.7 131.434 209.32 131.922 209.048C132.418 208.776 132.978 208.64 133.602 208.64C134.146 208.64 134.63 208.748 135.054 208.964C135.486 209.172 135.826 209.48 136.074 209.888L135.438 210.32C135.23 210.008 134.966 209.776 134.646 209.624C134.326 209.464 133.978 209.384 133.602 209.384C133.146 209.384 132.734 209.488 132.366 209.696C132.006 209.896 131.722 210.184 131.514 210.56C131.314 210.936 131.214 211.364 131.214 211.844C131.214 212.332 131.314 212.764 131.514 213.14C131.722 213.508 132.006 213.796 132.366 214.004C132.734 214.204 133.146 214.304 133.602 214.304C133.978 214.304 134.326 214.228 134.646 214.076C134.966 213.924 135.23 213.692 135.438 213.38L136.074 213.812C135.826 214.22 135.486 214.532 135.054 214.748C134.622 214.956 134.138 215.06 133.602 215.06ZM142.488 208.688V215H141.636V212.372C140.908 212.692 140.192 212.852 139.488 212.852C138.728 212.852 138.136 212.68 137.712 212.336C137.288 211.984 137.076 211.46 137.076 210.764V208.688H137.928V210.716C137.928 211.188 138.08 211.548 138.384 211.796C138.688 212.036 139.108 212.156 139.644 212.156C140.236 212.156 140.9 212 141.636 211.688V208.688H142.488ZM150.427 212.108H145.147C145.195 212.764 145.447 213.296 145.903 213.704C146.359 214.104 146.935 214.304 147.631 214.304C148.023 214.304 148.383 214.236 148.711 214.1C149.039 213.956 149.323 213.748 149.563 213.476L150.043 214.028C149.763 214.364 149.411 214.62 148.987 214.796C148.571 214.972 148.111 215.06 147.607 215.06C146.959 215.06 146.383 214.924 145.879 214.652C145.383 214.372 144.995 213.988 144.715 213.5C144.435 213.012 144.295 212.46 144.295 211.844C144.295 211.228 144.427 210.676 144.691 210.188C144.963 209.7 145.331 209.32 145.795 209.048C146.267 208.776 146.795 208.64 147.379 208.64C147.963 208.64 148.487 208.776 148.951 209.048C149.415 209.32 149.779 209.7 150.043 210.188C150.307 210.668 150.439 211.22 150.439 211.844L150.427 212.108ZM147.379 209.372C146.771 209.372 146.259 209.568 145.843 209.96C145.435 210.344 145.203 210.848 145.147 211.472H149.623C149.567 210.848 149.331 210.344 148.915 209.96C148.507 209.568 147.995 209.372 147.379 209.372ZM146.311 207.428C146.167 207.428 146.043 207.38 145.939 207.284C145.843 207.188 145.795 207.064 145.795 206.912C145.795 206.768 145.843 206.648 145.939 206.552C146.043 206.448 146.167 206.396 146.311 206.396C146.447 206.396 146.567 206.448 146.671 206.552C146.775 206.648 146.827 206.768 146.827 206.912C146.827 207.056 146.775 207.18 146.671 207.284C146.575 207.38 146.455 207.428 146.311 207.428ZM148.447 207.428C148.303 207.428 148.179 207.38 148.075 207.284C147.979 207.18 147.931 207.056 147.931 206.912C147.931 206.768 147.983 206.648 148.087 206.552C148.191 206.448 148.311 206.396 148.447 206.396C148.591 206.396 148.711 206.448 148.807 206.552C148.911 206.648 148.963 206.768 148.963 206.912C148.963 207.064 148.911 207.188 148.807 207.284C148.711 207.38 148.591 207.428 148.447 207.428ZM156.484 209.444H154.096V215H153.244V209.444H150.856V208.688H156.484V209.444ZM159.888 208.64C160.712 208.64 161.344 208.848 161.784 209.264C162.224 209.672 162.444 210.28 162.444 211.088V215H161.628V214.016C161.436 214.344 161.152 214.6 160.776 214.784C160.408 214.968 159.968 215.06 159.456 215.06C158.752 215.06 158.192 214.892 157.776 214.556C157.36 214.22 157.152 213.776 157.152 213.224C157.152 212.688 157.344 212.256 157.728 211.928C158.12 211.6 158.74 211.436 159.588 211.436H161.592V211.052C161.592 210.508 161.44 210.096 161.136 209.816C160.832 209.528 160.388 209.384 159.804 209.384C159.404 209.384 159.02 209.452 158.652 209.588C158.284 209.716 157.968 209.896 157.704 210.128L157.32 209.492C157.64 209.22 158.024 209.012 158.472 208.868C158.92 208.716 159.392 208.64 159.888 208.64ZM159.588 214.388C160.068 214.388 160.48 214.28 160.824 214.064C161.168 213.84 161.424 213.52 161.592 213.104V212.072H159.612C158.532 212.072 157.992 212.448 157.992 213.2C157.992 213.568 158.132 213.86 158.412 214.076C158.692 214.284 159.084 214.388 159.588 214.388Z" fill="#666666"/>
<rect x="78.5" y="235.5" width="169" height="24" rx="9.5" fill="white" stroke="#666666"/>
<path d="M112.56 243.6C113.632 243.6 114.472 243.856 115.08 244.368C115.688 244.88 115.992 245.584 115.992 246.48C115.992 247.376 115.688 248.08 115.08 248.592C114.472 249.096 113.632 249.348 112.56 249.348H110.304V252H109.416V243.6H112.56ZM112.536 248.568C113.368 248.568 114.004 248.388 114.444 248.028C114.884 247.66 115.104 247.144 115.104 246.48C115.104 245.8 114.884 245.28 114.444 244.92C114.004 244.552 113.368 244.368 112.536 244.368H110.304V248.568H112.536ZM126.924 247.788C126.924 248.9 126.528 249.776 125.736 250.416C124.952 251.048 123.852 251.384 122.436 251.424V252.288H121.608V251.424C120.192 251.376 119.088 251.036 118.296 250.404C117.512 249.772 117.12 248.9 117.12 247.788C117.12 246.676 117.512 245.804 118.296 245.172C119.088 244.54 120.192 244.2 121.608 244.152V243.312H122.436V244.152C123.844 244.2 124.944 244.544 125.736 245.184C126.528 245.816 126.924 246.684 126.924 247.788ZM122.436 250.716C123.596 250.668 124.492 250.392 125.124 249.888C125.756 249.384 126.072 248.684 126.072 247.788C126.072 246.892 125.752 246.192 125.112 245.688C124.48 245.184 123.588 244.912 122.436 244.872V250.716ZM117.972 247.788C117.972 248.684 118.288 249.384 118.92 249.888C119.56 250.384 120.456 250.66 121.608 250.716V244.872C120.44 244.92 119.54 245.196 118.908 245.7C118.284 246.196 117.972 246.892 117.972 247.788Z" fill="#666666"/>
<path d="M85.55 245H100.45L100.9 246.5L101 248L100.9 249.5L100.5 251H85.5L85.1 249.5L85 248L85.1 246.5L85.55 245Z" fill="#31B5FF"/>
<path d="M86 244L86.7 243L87.65 242L89 241L90 240.5L92 240H94L96 240.5L97 241L98.45 242L99.3 243L100 244L100.5 245H85.5L86 244Z" fill="white"/>
<path d="M85.5 251H100.5L100 252L99 253.3L98 254.3L97 255L96 255.5L95 255.8L94 256H92L91.1 255.8L90 255.5L89 255L88 254.3L87 253.3L86 252L85.5 251Z" fill="#FF4848"/>
<circle cx="93" cy="248" r="8.5" stroke="#666666"/>
<rect x="78.5" y="161.5" width="169" height="24" rx="9.5" fill="white" stroke="#666666"/>
<path d="M92.484 169.6V178H91.608V170.368H86.292V178H85.416V169.6H92.484ZM97.7183 178.06C97.1103 178.06 96.5623 177.924 96.0743 177.652C95.5863 177.372 95.2023 176.988 94.9223 176.5C94.6423 176.012 94.5023 175.46 94.5023 174.844C94.5023 174.228 94.6423 173.676 94.9223 173.188C95.2023 172.7 95.5863 172.32 96.0743 172.048C96.5623 171.776 97.1103 171.64 97.7183 171.64C98.3263 171.64 98.8743 171.776 99.3623 172.048C99.8503 172.32 100.23 172.7 100.502 173.188C100.782 173.676 100.922 174.228 100.922 174.844C100.922 175.46 100.782 176.012 100.502 176.5C100.23 176.988 99.8503 177.372 99.3623 177.652C98.8743 177.924 98.3263 178.06 97.7183 178.06ZM97.7183 177.304C98.1663 177.304 98.5663 177.204 98.9183 177.004C99.2783 176.796 99.5583 176.504 99.7583 176.128C99.9583 175.752 100.058 175.324 100.058 174.844C100.058 174.364 99.9583 173.936 99.7583 173.56C99.5583 173.184 99.2783 172.896 98.9183 172.696C98.5663 172.488 98.1663 172.384 97.7183 172.384C97.2703 172.384 96.8663 172.488 96.5063 172.696C96.1543 172.896 95.8743 173.184 95.6663 173.56C95.4663 173.936 95.3663 174.364 95.3663 174.844C95.3663 175.324 95.4663 175.752 95.6663 176.128C95.8743 176.504 96.1543 176.796 96.5063 177.004C96.8663 177.204 97.2703 177.304 97.7183 177.304ZM106.763 174.736C107.619 174.936 108.047 175.452 108.047 176.284C108.047 176.836 107.843 177.26 107.435 177.556C107.027 177.852 106.419 178 105.611 178H102.743V171.688H105.527C106.247 171.688 106.811 171.828 107.219 172.108C107.627 172.388 107.831 172.788 107.831 173.308C107.831 173.652 107.735 173.948 107.543 174.196C107.359 174.436 107.099 174.616 106.763 174.736ZM103.571 174.496H105.467C105.955 174.496 106.327 174.404 106.583 174.22C106.847 174.036 106.979 173.768 106.979 173.416C106.979 173.064 106.847 172.8 106.583 172.624C106.327 172.448 105.955 172.36 105.467 172.36H103.571V174.496ZM105.575 177.328C106.119 177.328 106.527 177.24 106.799 177.064C107.071 176.888 107.207 176.612 107.207 176.236C107.207 175.86 107.083 175.584 106.835 175.408C106.587 175.224 106.195 175.132 105.659 175.132H103.571V177.328H105.575ZM114.484 172.444H112.096V178H111.244V172.444H108.856V171.688H114.484V172.444ZM118.027 178.06C117.419 178.06 116.871 177.924 116.383 177.652C115.895 177.372 115.511 176.988 115.231 176.5C114.951 176.012 114.811 175.46 114.811 174.844C114.811 174.228 114.951 173.676 115.231 173.188C115.511 172.7 115.895 172.32 116.383 172.048C116.871 171.776 117.419 171.64 118.027 171.64C118.635 171.64 119.183 171.776 119.671 172.048C120.159 172.32 120.539 172.7 120.811 173.188C121.091 173.676 121.231 174.228 121.231 174.844C121.231 175.46 121.091 176.012 120.811 176.5C120.539 176.988 120.159 177.372 119.671 177.652C119.183 177.924 118.635 178.06 118.027 178.06ZM118.027 177.304C118.475 177.304 118.875 177.204 119.227 177.004C119.587 176.796 119.867 176.504 120.067 176.128C120.267 175.752 120.367 175.324 120.367 174.844C120.367 174.364 120.267 173.936 120.067 173.56C119.867 173.184 119.587 172.896 119.227 172.696C118.875 172.488 118.475 172.384 118.027 172.384C117.579 172.384 117.175 172.488 116.815 172.696C116.463 172.896 116.183 173.184 115.975 173.56C115.775 173.936 115.675 174.364 115.675 174.844C115.675 175.324 115.775 175.752 115.975 176.128C116.183 176.504 116.463 176.796 116.815 177.004C117.175 177.204 117.579 177.304 118.027 177.304ZM126.304 171.64C126.896 171.64 127.432 171.776 127.912 172.048C128.392 172.312 128.768 172.688 129.04 173.176C129.312 173.664 129.448 174.22 129.448 174.844C129.448 175.476 129.312 176.036 129.04 176.524C128.768 177.012 128.392 177.392 127.912 177.664C127.44 177.928 126.904 178.06 126.304 178.06C125.792 178.06 125.328 177.956 124.912 177.748C124.504 177.532 124.168 177.22 123.904 176.812V180.328H123.052V171.688H123.868V172.936C124.124 172.52 124.46 172.2 124.876 171.976C125.3 171.752 125.776 171.64 126.304 171.64ZM126.244 177.304C126.684 177.304 127.084 177.204 127.444 177.004C127.804 176.796 128.084 176.504 128.284 176.128C128.492 175.752 128.596 175.324 128.596 174.844C128.596 174.364 128.492 173.94 128.284 173.572C128.084 173.196 127.804 172.904 127.444 172.696C127.084 172.488 126.684 172.384 126.244 172.384C125.796 172.384 125.392 172.488 125.032 172.696C124.68 172.904 124.4 173.196 124.192 173.572C123.992 173.94 123.892 174.364 123.892 174.844C123.892 175.324 123.992 175.752 124.192 176.128C124.4 176.504 124.68 176.796 125.032 177.004C125.392 177.204 125.796 177.304 126.244 177.304ZM131.278 171.688H132.13V176.704L136.342 171.688H137.098V178H136.246V172.984L132.046 178H131.278V171.688ZM143.98 172.444H141.592V178H140.74V172.444H138.352V171.688H143.98V172.444ZM150.439 175.108H145.159C145.207 175.764 145.459 176.296 145.915 176.704C146.371 177.104 146.947 177.304 147.643 177.304C148.035 177.304 148.395 177.236 148.723 177.1C149.051 176.956 149.335 176.748 149.575 176.476L150.055 177.028C149.775 177.364 149.423 177.62 148.999 177.796C148.583 177.972 148.123 178.06 147.619 178.06C146.971 178.06 146.395 177.924 145.891 177.652C145.395 177.372 145.007 176.988 144.727 176.5C144.447 176.012 144.307 175.46 144.307 174.844C144.307 174.228 144.439 173.676 144.703 173.188C144.975 172.7 145.343 172.32 145.807 172.048C146.279 171.776 146.807 171.64 147.391 171.64C147.975 171.64 148.499 171.776 148.963 172.048C149.427 172.32 149.791 172.7 150.055 173.188C150.319 173.668 150.451 174.22 150.451 174.844L150.439 175.108ZM147.391 172.372C146.783 172.372 146.271 172.568 145.855 172.96C145.447 173.344 145.215 173.848 145.159 174.472H149.635C149.579 173.848 149.343 173.344 148.927 172.96C148.519 172.568 148.007 172.372 147.391 172.372ZM161.142 171.688V178H160.29V172.444H156.33V178H155.478V171.688H161.142ZM165.736 171.64C166.56 171.64 167.192 171.848 167.632 172.264C168.072 172.672 168.292 173.28 168.292 174.088V178H167.476V177.016C167.284 177.344 167 177.6 166.624 177.784C166.256 177.968 165.816 178.06 165.304 178.06C164.6 178.06 164.04 177.892 163.624 177.556C163.208 177.22 163 176.776 163 176.224C163 175.688 163.192 175.256 163.576 174.928C163.968 174.6 164.588 174.436 165.436 174.436H167.44V174.052C167.44 173.508 167.288 173.096 166.984 172.816C166.68 172.528 166.236 172.384 165.652 172.384C165.252 172.384 164.868 172.452 164.5 172.588C164.132 172.716 163.816 172.896 163.552 173.128L163.168 172.492C163.488 172.22 163.872 172.012 164.32 171.868C164.768 171.716 165.24 171.64 165.736 171.64ZM165.436 177.388C165.916 177.388 166.328 177.28 166.672 177.064C167.016 176.84 167.272 176.52 167.44 176.104V175.072H165.46C164.38 175.072 163.84 175.448 163.84 176.2C163.84 176.568 163.98 176.86 164.26 177.076C164.54 177.284 164.932 177.388 165.436 177.388ZM173.812 171.64C174.404 171.64 174.94 171.776 175.42 172.048C175.9 172.312 176.276 172.688 176.548 173.176C176.82 173.664 176.956 174.22 176.956 174.844C176.956 175.476 176.82 176.036 176.548 176.524C176.276 177.012 175.9 177.392 175.42 177.664C174.948 177.928 174.412 178.06 173.812 178.06C173.3 178.06 172.836 177.956 172.42 177.748C172.012 177.532 171.676 177.22 171.412 176.812V180.328H170.56V171.688H171.376V172.936C171.632 172.52 171.968 172.2 172.384 171.976C172.808 171.752 173.284 171.64 173.812 171.64ZM173.752 177.304C174.192 177.304 174.592 177.204 174.952 177.004C175.312 176.796 175.592 176.504 175.792 176.128C176 175.752 176.104 175.324 176.104 174.844C176.104 174.364 176 173.94 175.792 173.572C175.592 173.196 175.312 172.904 174.952 172.696C174.592 172.488 174.192 172.384 173.752 172.384C173.304 172.384 172.9 172.488 172.54 172.696C172.188 172.904 171.908 173.196 171.7 173.572C171.5 173.94 171.4 174.364 171.4 174.844C171.4 175.324 171.5 175.752 171.7 176.128C171.908 176.504 172.188 176.796 172.54 177.004C172.9 177.204 173.304 177.304 173.752 177.304ZM181.39 178.06C180.782 178.06 180.234 177.924 179.746 177.652C179.258 177.372 178.874 176.988 178.594 176.5C178.314 176.012 178.174 175.46 178.174 174.844C178.174 174.228 178.314 173.676 178.594 173.188C178.874 172.7 179.258 172.32 179.746 172.048C180.234 171.776 180.782 171.64 181.39 171.64C181.998 171.64 182.546 171.776 183.034 172.048C183.522 172.32 183.902 172.7 184.174 173.188C184.454 173.676 184.594 174.228 184.594 174.844C184.594 175.46 184.454 176.012 184.174 176.5C183.902 176.988 183.522 177.372 183.034 177.652C182.546 177.924 181.998 178.06 181.39 178.06ZM181.39 177.304C181.838 177.304 182.238 177.204 182.59 177.004C182.95 176.796 183.23 176.504 183.43 176.128C183.63 175.752 183.73 175.324 183.73 174.844C183.73 174.364 183.63 173.936 183.43 173.56C183.23 173.184 182.95 172.896 182.59 172.696C182.238 172.488 181.838 172.384 181.39 172.384C180.942 172.384 180.538 172.488 180.178 172.696C179.826 172.896 179.546 173.184 179.338 173.56C179.138 173.936 179.038 174.364 179.038 174.844C179.038 175.324 179.138 175.752 179.338 176.128C179.546 176.504 179.826 176.796 180.178 177.004C180.538 177.204 180.942 177.304 181.39 177.304ZM191.54 171.688V178H190.688V172.444H187.664L187.58 174.004C187.516 175.316 187.364 176.324 187.124 177.028C186.884 177.732 186.456 178.084 185.84 178.084C185.672 178.084 185.468 178.052 185.228 177.988L185.288 177.256C185.432 177.288 185.532 177.304 185.588 177.304C185.916 177.304 186.164 177.152 186.332 176.848C186.5 176.544 186.612 176.168 186.668 175.72C186.724 175.272 186.772 174.68 186.812 173.944L186.92 171.688H191.54ZM196.674 173.92C197.466 173.928 198.066 174.104 198.474 174.448C198.89 174.792 199.098 175.288 199.098 175.936C199.098 176.608 198.874 177.124 198.426 177.484C197.986 177.844 197.346 178.02 196.506 178.012L193.962 178V171.688H194.814V173.896L196.674 173.92ZM196.458 177.364C197.042 177.372 197.482 177.256 197.778 177.016C198.082 176.768 198.234 176.408 198.234 175.936C198.234 175.472 198.086 175.128 197.79 174.904C197.494 174.68 197.05 174.564 196.458 174.556L194.814 174.532V177.34L196.458 177.364Z" fill="#666666"/>
<path d="M240.5 173.5C240.5 175.326 239.264 177.065 237.082 178.375C234.91 179.678 231.877 180.5 228.5 180.5C225.123 180.5 222.09 179.678 219.918 178.375C217.736 177.065 216.5 175.326 216.5 173.5C216.5 171.674 217.736 169.935 219.918 168.625C222.09 167.322 225.123 166.5 228.5 166.5C231.877 166.5 234.91 167.322 237.082 168.625C239.264 169.935 240.5 171.674 240.5 173.5Z" stroke="#666666"/>
<circle cx="228.5" cy="173.5" r="3" stroke="#666666"/>
<rect x="78.5" y="124.5" width="169" height="24" rx="9.5" fill="white" stroke="#666666"/>
<path d="M92.484 132.6V141H91.608V133.368H86.292V141H85.416V132.6H92.484ZM97.2863 134.64C98.1103 134.64 98.7423 134.848 99.1823 135.264C99.6223 135.672 99.8423 136.28 99.8423 137.088V141H99.0263V140.016C98.8343 140.344 98.5503 140.6 98.1743 140.784C97.8063 140.968 97.3663 141.06 96.8543 141.06C96.1503 141.06 95.5903 140.892 95.1743 140.556C94.7583 140.22 94.5503 139.776 94.5503 139.224C94.5503 138.688 94.7423 138.256 95.1263 137.928C95.5183 137.6 96.1383 137.436 96.9863 137.436H98.9903V137.052C98.9903 136.508 98.8383 136.096 98.5343 135.816C98.2303 135.528 97.7863 135.384 97.2023 135.384C96.8023 135.384 96.4183 135.452 96.0503 135.588C95.6823 135.716 95.3663 135.896 95.1023 136.128L94.7183 135.492C95.0383 135.22 95.4223 135.012 95.8703 134.868C96.3183 134.716 96.7903 134.64 97.2863 134.64ZM96.9863 140.388C97.4663 140.388 97.8783 140.28 98.2223 140.064C98.5663 139.84 98.8223 139.52 98.9903 139.104V138.072H97.0103C95.9303 138.072 95.3903 138.448 95.3903 139.2C95.3903 139.568 95.5303 139.86 95.8103 140.076C96.0903 140.284 96.4823 140.388 96.9863 140.388ZM105.362 134.64C105.954 134.64 106.49 134.776 106.97 135.048C107.45 135.312 107.826 135.688 108.098 136.176C108.37 136.664 108.506 137.22 108.506 137.844C108.506 138.476 108.37 139.036 108.098 139.524C107.826 140.012 107.45 140.392 106.97 140.664C106.498 140.928 105.962 141.06 105.362 141.06C104.85 141.06 104.386 140.956 103.97 140.748C103.562 140.532 103.226 140.22 102.962 139.812V143.328H102.11V134.688H102.926V135.936C103.182 135.52 103.518 135.2 103.934 134.976C104.358 134.752 104.834 134.64 105.362 134.64ZM105.302 140.304C105.742 140.304 106.142 140.204 106.502 140.004C106.862 139.796 107.142 139.504 107.342 139.128C107.55 138.752 107.654 138.324 107.654 137.844C107.654 137.364 107.55 136.94 107.342 136.572C107.142 136.196 106.862 135.904 106.502 135.696C106.142 135.488 105.742 135.384 105.302 135.384C104.854 135.384 104.45 135.488 104.09 135.696C103.738 135.904 103.458 136.196 103.25 136.572C103.05 136.94 102.95 137.364 102.95 137.844C102.95 138.324 103.05 138.752 103.25 139.128C103.458 139.504 103.738 139.796 104.09 140.004C104.45 140.204 104.854 140.304 105.302 140.304ZM112.941 141.06C112.333 141.06 111.785 140.924 111.297 140.652C110.809 140.372 110.425 139.988 110.145 139.5C109.865 139.012 109.725 138.46 109.725 137.844C109.725 137.228 109.865 136.676 110.145 136.188C110.425 135.7 110.809 135.32 111.297 135.048C111.785 134.776 112.333 134.64 112.941 134.64C113.549 134.64 114.097 134.776 114.585 135.048C115.073 135.32 115.453 135.7 115.725 136.188C116.005 136.676 116.145 137.228 116.145 137.844C116.145 138.46 116.005 139.012 115.725 139.5C115.453 139.988 115.073 140.372 114.585 140.652C114.097 140.924 113.549 141.06 112.941 141.06ZM112.941 140.304C113.389 140.304 113.789 140.204 114.141 140.004C114.501 139.796 114.781 139.504 114.981 139.128C115.181 138.752 115.281 138.324 115.281 137.844C115.281 137.364 115.181 136.936 114.981 136.56C114.781 136.184 114.501 135.896 114.141 135.696C113.789 135.488 113.389 135.384 112.941 135.384C112.493 135.384 112.089 135.488 111.729 135.696C111.377 135.896 111.097 136.184 110.889 136.56C110.689 136.936 110.589 137.364 110.589 137.844C110.589 138.324 110.689 138.752 110.889 139.128C111.097 139.504 111.377 139.796 111.729 140.004C112.089 140.204 112.493 140.304 112.941 140.304ZM123.091 134.688V141H122.239V135.444H119.215L119.131 137.004C119.067 138.316 118.915 139.324 118.675 140.028C118.435 140.732 118.007 141.084 117.391 141.084C117.223 141.084 117.019 141.052 116.779 140.988L116.839 140.256C116.983 140.288 117.083 140.304 117.139 140.304C117.467 140.304 117.715 140.152 117.883 139.848C118.051 139.544 118.163 139.168 118.219 138.72C118.275 138.272 118.323 137.68 118.363 136.944L118.471 134.688H123.091ZM128.225 136.92C129.017 136.928 129.617 137.104 130.025 137.448C130.441 137.792 130.649 138.288 130.649 138.936C130.649 139.608 130.425 140.124 129.977 140.484C129.537 140.844 128.897 141.02 128.057 141.012L125.513 141V134.688H126.365V136.896L128.225 136.92ZM128.009 140.364C128.593 140.372 129.033 140.256 129.329 140.016C129.633 139.768 129.785 139.408 129.785 138.936C129.785 138.472 129.637 138.128 129.341 137.904C129.045 137.68 128.601 137.564 128.009 137.556L126.365 137.532V140.34L128.009 140.364Z" fill="#666666"/>
<path d="M240.5 136.5C240.5 138.326 239.264 140.065 237.082 141.375C234.91 142.678 231.877 143.5 228.5 143.5C225.123 143.5 222.09 142.678 219.918 141.375C217.736 140.065 216.5 138.326 216.5 136.5C216.5 134.674 217.736 132.935 219.918 131.625C222.09 130.322 225.123 129.5 228.5 129.5C231.877 129.5 234.91 130.322 237.082 131.625C239.264 132.935 240.5 134.674 240.5 136.5Z" stroke="#666666"/>
<circle cx="228.5" cy="136.5" r="3" stroke="#666666"/>
<rect x="78.5" y="278.5" width="19" height="19" rx="1.5" stroke="#666666"/>
<path d="M110.14 273V280H109.41V277.88H107.32C107.227 277.88 107.093 277.873 106.92 277.86L105.45 280H104.66L106.25 277.73C105.737 277.577 105.343 277.307 105.07 276.92C104.797 276.527 104.66 276.047 104.66 275.48C104.66 274.693 104.907 274.083 105.4 273.65C105.9 273.217 106.573 273 107.42 273H110.14ZM105.4 275.46C105.4 276.033 105.567 276.477 105.9 276.79C106.24 277.097 106.733 277.25 107.38 277.25H109.41V273.64H107.45C106.797 273.64 106.29 273.797 105.93 274.11C105.577 274.417 105.4 274.867 105.4 275.46ZM127.82 280.05C127.313 280.05 126.857 279.937 126.45 279.71C126.043 279.477 125.723 279.157 125.49 278.75C125.257 278.343 125.14 277.883 125.14 277.37C125.14 276.857 125.257 276.397 125.49 275.99C125.723 275.583 126.043 275.267 126.45 275.04C126.857 274.813 127.313 274.7 127.82 274.7C128.327 274.7 128.783 274.813 129.19 275.04C129.597 275.267 129.913 275.583 130.14 275.99C130.373 276.397 130.49 276.857 130.49 277.37C130.49 277.883 130.373 278.343 130.14 278.75C129.913 279.157 129.597 279.477 129.19 279.71C128.783 279.937 128.327 280.05 127.82 280.05ZM127.82 279.42C128.193 279.42 128.527 279.337 128.82 279.17C129.12 278.997 129.353 278.753 129.52 278.44C129.687 278.127 129.77 277.77 129.77 277.37C129.77 276.97 129.687 276.613 129.52 276.3C129.353 275.987 129.12 275.747 128.82 275.58C128.527 275.407 128.193 275.32 127.82 275.32C127.447 275.32 127.11 275.407 126.81 275.58C126.517 275.747 126.283 275.987 126.11 276.3C125.943 276.613 125.86 276.97 125.86 277.37C125.86 277.77 125.943 278.127 126.11 278.44C126.283 278.753 126.517 278.997 126.81 279.17C127.11 279.337 127.447 279.42 127.82 279.42ZM134.528 277.26C134.902 277.347 135.188 277.497 135.388 277.71C135.595 277.923 135.698 278.183 135.698 278.49C135.698 278.797 135.592 279.07 135.378 279.31C135.172 279.55 134.888 279.737 134.528 279.87C134.168 279.997 133.772 280.06 133.338 280.06C132.958 280.06 132.585 280.007 132.218 279.9C131.852 279.787 131.532 279.623 131.258 279.41L131.498 278.88C131.738 279.06 132.018 279.2 132.338 279.3C132.658 279.4 132.982 279.45 133.308 279.45C133.795 279.45 134.192 279.36 134.498 279.18C134.812 278.993 134.968 278.743 134.968 278.43C134.968 278.15 134.842 277.933 134.588 277.78C134.335 277.62 133.988 277.54 133.548 277.54H132.648V277.02H133.508C133.902 277.02 134.218 276.947 134.458 276.8C134.698 276.647 134.818 276.443 134.818 276.19C134.818 275.91 134.682 275.69 134.408 275.53C134.142 275.37 133.792 275.29 133.358 275.29C132.792 275.29 132.232 275.433 131.678 275.72L131.478 275.17C132.105 274.843 132.755 274.68 133.428 274.68C133.828 274.68 134.188 274.74 134.508 274.86C134.835 274.973 135.088 275.137 135.268 275.35C135.455 275.563 135.548 275.81 135.548 276.09C135.548 276.357 135.455 276.593 135.268 276.8C135.088 277.007 134.842 277.16 134.528 277.26ZM137.31 274.74H138.02V277.07H141.33V274.74H142.04V280H141.33V277.68H138.02V280H137.31V274.74ZM145.868 274.7C146.555 274.7 147.082 274.873 147.448 275.22C147.815 275.56 147.998 276.067 147.998 276.74V280H147.318V279.18C147.158 279.453 146.922 279.667 146.608 279.82C146.302 279.973 145.935 280.05 145.508 280.05C144.922 280.05 144.455 279.91 144.108 279.63C143.762 279.35 143.588 278.98 143.588 278.52C143.588 278.073 143.748 277.713 144.068 277.44C144.395 277.167 144.912 277.03 145.618 277.03H147.288V276.71C147.288 276.257 147.162 275.913 146.908 275.68C146.655 275.44 146.285 275.32 145.798 275.32C145.465 275.32 145.145 275.377 144.838 275.49C144.532 275.597 144.268 275.747 144.048 275.94L143.728 275.41C143.995 275.183 144.315 275.01 144.688 274.89C145.062 274.763 145.455 274.7 145.868 274.7ZM145.618 279.49C146.018 279.49 146.362 279.4 146.648 279.22C146.935 279.033 147.148 278.767 147.288 278.42V277.56H145.638C144.738 277.56 144.288 277.873 144.288 278.5C144.288 278.807 144.405 279.05 144.638 279.23C144.872 279.403 145.198 279.49 145.618 279.49ZM151.798 277.66H150.598V280H149.888V274.74H150.598V277.05H151.808L153.658 274.74H154.428L152.358 277.29L154.578 280H153.738L151.798 277.66ZM157.683 280.05C157.177 280.05 156.72 279.937 156.313 279.71C155.907 279.477 155.587 279.157 155.353 278.75C155.12 278.343 155.003 277.883 155.003 277.37C155.003 276.857 155.12 276.397 155.353 275.99C155.587 275.583 155.907 275.267 156.313 275.04C156.72 274.813 157.177 274.7 157.683 274.7C158.19 274.7 158.647 274.813 159.053 275.04C159.46 275.267 159.777 275.583 160.003 275.99C160.237 276.397 160.353 276.857 160.353 277.37C160.353 277.883 160.237 278.343 160.003 278.75C159.777 279.157 159.46 279.477 159.053 279.71C158.647 279.937 158.19 280.05 157.683 280.05ZM157.683 279.42C158.057 279.42 158.39 279.337 158.683 279.17C158.983 278.997 159.217 278.753 159.383 278.44C159.55 278.127 159.633 277.77 159.633 277.37C159.633 276.97 159.55 276.613 159.383 276.3C159.217 275.987 158.983 275.747 158.683 275.58C158.39 275.407 158.057 275.32 157.683 275.32C157.31 275.32 156.973 275.407 156.673 275.58C156.38 275.747 156.147 275.987 155.973 276.3C155.807 276.613 155.723 276.97 155.723 277.37C155.723 277.77 155.807 278.127 155.973 278.44C156.147 278.753 156.38 278.997 156.673 279.17C156.973 279.337 157.31 279.42 157.683 279.42ZM167.751 274.74V280H167.101V275.84L164.971 279.36H164.651L162.521 275.83V280H161.871V274.74H162.591L164.821 278.53L167.091 274.74H167.751ZM169.771 274.74H170.481V278.92L173.991 274.74H174.621V280H173.911V275.82L170.411 280H169.771V274.74ZM180.956 274.74V280H180.246V275.37H177.726L177.656 276.67C177.603 277.763 177.476 278.603 177.276 279.19C177.076 279.777 176.719 280.07 176.206 280.07C176.066 280.07 175.896 280.043 175.696 279.99L175.746 279.38C175.866 279.407 175.949 279.42 175.996 279.42C176.269 279.42 176.476 279.293 176.616 279.04C176.756 278.787 176.849 278.473 176.896 278.1C176.943 277.727 176.983 277.233 177.016 276.62L177.106 274.74H180.956ZM185.174 280.05C184.654 280.05 184.188 279.937 183.774 279.71C183.368 279.483 183.048 279.167 182.814 278.76C182.581 278.347 182.464 277.883 182.464 277.37C182.464 276.857 182.581 276.397 182.814 275.99C183.048 275.583 183.368 275.267 183.774 275.04C184.188 274.813 184.654 274.7 185.174 274.7C185.628 274.7 186.031 274.79 186.384 274.97C186.744 275.143 187.028 275.4 187.234 275.74L186.704 276.1C186.531 275.84 186.311 275.647 186.044 275.52C185.778 275.387 185.488 275.32 185.174 275.32C184.794 275.32 184.451 275.407 184.144 275.58C183.844 275.747 183.608 275.987 183.434 276.3C183.268 276.613 183.184 276.97 183.184 277.37C183.184 277.777 183.268 278.137 183.434 278.45C183.608 278.757 183.844 278.997 184.144 279.17C184.451 279.337 184.794 279.42 185.174 279.42C185.488 279.42 185.778 279.357 186.044 279.23C186.311 279.103 186.531 278.91 186.704 278.65L187.234 279.01C187.028 279.35 186.744 279.61 186.384 279.79C186.024 279.963 185.621 280.05 185.174 280.05ZM192.473 274.74V280H191.823V278.26H190.173H189.973L188.753 280H187.983L189.293 278.16C188.887 278.047 188.573 277.853 188.353 277.58C188.133 277.307 188.023 276.96 188.023 276.54C188.023 275.953 188.223 275.507 188.623 275.2C189.023 274.893 189.57 274.74 190.263 274.74H192.473ZM188.743 276.56C188.743 277.34 189.24 277.73 190.233 277.73H191.823V275.37H190.283C189.257 275.37 188.743 275.767 188.743 276.56ZM207.813 274.74H208.523V278.92L212.033 274.74H212.663V280H211.953V275.82L208.453 280H207.813V274.74ZM233.144 279.38V281.27H232.474V280H227.764V281.27H227.094V279.38H227.394C227.747 279.36 227.987 279.1 228.114 278.6C228.241 278.1 228.327 277.4 228.374 276.5L228.444 274.74H232.324V279.38H233.144ZM229.024 276.54C228.991 277.287 228.927 277.903 228.834 278.39C228.741 278.87 228.574 279.2 228.334 279.38H231.614V275.37H229.084L229.024 276.54ZM236.338 274.7C237.024 274.7 237.551 274.873 237.918 275.22C238.284 275.56 238.468 276.067 238.468 276.74V280H237.788V279.18C237.628 279.453 237.391 279.667 237.078 279.82C236.771 279.973 236.404 280.05 235.978 280.05C235.391 280.05 234.924 279.91 234.578 279.63C234.231 279.35 234.058 278.98 234.058 278.52C234.058 278.073 234.218 277.713 234.538 277.44C234.864 277.167 235.381 277.03 236.088 277.03H237.758V276.71C237.758 276.257 237.631 275.913 237.378 275.68C237.124 275.44 236.754 275.32 236.268 275.32C235.934 275.32 235.614 275.377 235.308 275.49C235.001 275.597 234.738 275.747 234.518 275.94L234.198 275.41C234.464 275.183 234.784 275.01 235.158 274.89C235.531 274.763 235.924 274.7 236.338 274.7ZM236.088 279.49C236.488 279.49 236.831 279.4 237.118 279.22C237.404 279.033 237.618 278.767 237.758 278.42V277.56H236.108C235.208 277.56 234.758 277.873 234.758 278.5C234.758 278.807 234.874 279.05 235.108 279.23C235.341 279.403 235.668 279.49 236.088 279.49ZM244.878 274.7C245.371 274.7 245.814 274.813 246.208 275.04C246.608 275.267 246.921 275.583 247.148 275.99C247.374 276.397 247.488 276.857 247.488 277.37C247.488 277.883 247.374 278.343 247.148 278.75C246.921 279.157 246.608 279.477 246.208 279.71C245.814 279.937 245.371 280.05 244.878 280.05C244.411 280.05 243.988 279.95 243.608 279.75C243.228 279.543 242.918 279.26 242.678 278.9C242.444 278.54 242.308 278.127 242.268 277.66H241.068V280H240.358V274.74H241.068V277.01H242.278C242.331 276.557 242.474 276.157 242.708 275.81C242.948 275.457 243.254 275.183 243.628 274.99C244.001 274.797 244.418 274.7 244.878 274.7ZM244.878 279.43C245.238 279.43 245.561 279.343 245.848 279.17C246.141 278.997 246.371 278.753 246.538 278.44C246.704 278.127 246.788 277.77 246.788 277.37C246.788 276.97 246.704 276.613 246.538 276.3C246.371 275.987 246.141 275.747 245.848 275.58C245.561 275.407 245.238 275.32 244.878 275.32C244.518 275.32 244.191 275.407 243.898 275.58C243.611 275.747 243.384 275.987 243.218 276.3C243.051 276.613 242.968 276.97 242.968 277.37C242.968 277.77 243.051 278.127 243.218 278.44C243.384 278.753 243.611 278.997 243.898 279.17C244.191 279.343 244.518 279.43 244.878 279.43ZM107.21 292.05C106.69 292.05 106.223 291.937 105.81 291.71C105.403 291.483 105.083 291.167 104.85 290.76C104.617 290.347 104.5 289.883 104.5 289.37C104.5 288.857 104.617 288.397 104.85 287.99C105.083 287.583 105.403 287.267 105.81 287.04C106.223 286.813 106.69 286.7 107.21 286.7C107.663 286.7 108.067 286.79 108.42 286.97C108.78 287.143 109.063 287.4 109.27 287.74L108.74 288.1C108.567 287.84 108.347 287.647 108.08 287.52C107.813 287.387 107.523 287.32 107.21 287.32C106.83 287.32 106.487 287.407 106.18 287.58C105.88 287.747 105.643 287.987 105.47 288.3C105.303 288.613 105.22 288.97 105.22 289.37C105.22 289.777 105.303 290.137 105.47 290.45C105.643 290.757 105.88 290.997 106.18 291.17C106.487 291.337 106.83 291.42 107.21 291.42C107.523 291.42 107.813 291.357 108.08 291.23C108.347 291.103 108.567 290.91 108.74 290.65L109.27 291.01C109.063 291.35 108.78 291.61 108.42 291.79C108.06 291.963 107.657 292.05 107.21 292.05ZM112.727 292.05C112.22 292.05 111.764 291.937 111.357 291.71C110.95 291.477 110.63 291.157 110.397 290.75C110.164 290.343 110.047 289.883 110.047 289.37C110.047 288.857 110.164 288.397 110.397 287.99C110.63 287.583 110.95 287.267 111.357 287.04C111.764 286.813 112.22 286.7 112.727 286.7C113.234 286.7 113.69 286.813 114.097 287.04C114.504 287.267 114.82 287.583 115.047 287.99C115.28 288.397 115.397 288.857 115.397 289.37C115.397 289.883 115.28 290.343 115.047 290.75C114.82 291.157 114.504 291.477 114.097 291.71C113.69 291.937 113.234 292.05 112.727 292.05ZM112.727 291.42C113.1 291.42 113.434 291.337 113.727 291.17C114.027 290.997 114.26 290.753 114.427 290.44C114.594 290.127 114.677 289.77 114.677 289.37C114.677 288.97 114.594 288.613 114.427 288.3C114.26 287.987 114.027 287.747 113.727 287.58C113.434 287.407 113.1 287.32 112.727 287.32C112.354 287.32 112.017 287.407 111.717 287.58C111.424 287.747 111.19 287.987 111.017 288.3C110.85 288.613 110.767 288.97 110.767 289.37C110.767 289.77 110.85 290.127 111.017 290.44C111.19 290.753 111.424 290.997 111.717 291.17C112.017 291.337 112.354 291.42 112.727 291.42ZM120.634 287.37H117.624V292H116.914V286.74H120.634V287.37ZM125.638 286.74V292H124.928V287.37H122.408L122.338 288.67C122.285 289.763 122.158 290.603 121.958 291.19C121.758 291.777 121.401 292.07 120.888 292.07C120.748 292.07 120.578 292.043 120.378 291.99L120.428 291.38C120.548 291.407 120.631 291.42 120.678 291.42C120.951 291.42 121.158 291.293 121.298 291.04C121.438 290.787 121.531 290.473 121.578 290.1C121.625 289.727 121.665 289.233 121.698 288.62L121.788 286.74H125.638ZM129.466 286.7C130.153 286.7 130.68 286.873 131.046 287.22C131.413 287.56 131.596 288.067 131.596 288.74V292H130.916V291.18C130.756 291.453 130.52 291.667 130.206 291.82C129.9 291.973 129.533 292.05 129.106 292.05C128.52 292.05 128.053 291.91 127.706 291.63C127.36 291.35 127.186 290.98 127.186 290.52C127.186 290.073 127.346 289.713 127.666 289.44C127.993 289.167 128.51 289.03 129.216 289.03H130.886V288.71C130.886 288.257 130.76 287.913 130.506 287.68C130.253 287.44 129.883 287.32 129.396 287.32C129.063 287.32 128.743 287.377 128.436 287.49C128.13 287.597 127.866 287.747 127.646 287.94L127.326 287.41C127.593 287.183 127.913 287.01 128.286 286.89C128.66 286.763 129.053 286.7 129.466 286.7ZM129.216 291.49C129.616 291.49 129.96 291.4 130.246 291.22C130.533 291.033 130.746 290.767 130.886 290.42V289.56H129.236C128.336 289.56 127.886 289.873 127.886 290.5C127.886 290.807 128.003 291.05 128.236 291.23C128.47 291.403 128.796 291.49 129.216 291.49ZM135.687 292.05C135.167 292.05 134.7 291.937 134.287 291.71C133.88 291.483 133.56 291.167 133.327 290.76C133.093 290.347 132.977 289.883 132.977 289.37C132.977 288.857 133.093 288.397 133.327 287.99C133.56 287.583 133.88 287.267 134.287 287.04C134.7 286.813 135.167 286.7 135.687 286.7C136.14 286.7 136.543 286.79 136.897 286.97C137.257 287.143 137.54 287.4 137.747 287.74L137.217 288.1C137.043 287.84 136.823 287.647 136.557 287.52C136.29 287.387 136 287.32 135.687 287.32C135.307 287.32 134.963 287.407 134.657 287.58C134.357 287.747 134.12 287.987 133.947 288.3C133.78 288.613 133.697 288.97 133.697 289.37C133.697 289.777 133.78 290.137 133.947 290.45C134.12 290.757 134.357 290.997 134.657 291.17C134.963 291.337 135.307 291.42 135.687 291.42C136 291.42 136.29 291.357 136.557 291.23C136.823 291.103 137.043 290.91 137.217 290.65L137.747 291.01C137.54 291.35 137.257 291.61 136.897 291.79C136.537 291.963 136.133 292.05 135.687 292.05ZM139.121 286.74H139.831V290.92L143.341 286.74H143.971V292H143.261V287.82L139.761 292H139.121V286.74ZM150.606 289.59H146.206C146.246 290.137 146.456 290.58 146.836 290.92C147.216 291.253 147.696 291.42 148.276 291.42C148.603 291.42 148.903 291.363 149.176 291.25C149.449 291.13 149.686 290.957 149.886 290.73L150.286 291.19C150.053 291.47 149.759 291.683 149.406 291.83C149.059 291.977 148.676 292.05 148.256 292.05C147.716 292.05 147.236 291.937 146.816 291.71C146.403 291.477 146.079 291.157 145.846 290.75C145.613 290.343 145.496 289.883 145.496 289.37C145.496 288.857 145.606 288.397 145.826 287.99C146.053 287.583 146.359 287.267 146.746 287.04C147.139 286.813 147.579 286.7 148.066 286.7C148.553 286.7 148.989 286.813 149.376 287.04C149.763 287.267 150.066 287.583 150.286 287.99C150.506 288.39 150.616 288.85 150.616 289.37L150.606 289.59ZM148.066 287.31C147.559 287.31 147.133 287.473 146.786 287.8C146.446 288.12 146.253 288.54 146.206 289.06H149.936C149.889 288.54 149.693 288.12 149.346 287.8C149.006 287.473 148.579 287.31 148.066 287.31ZM167.225 286.74H167.935V289.07H171.245V286.74H171.955V292H171.245V289.68H167.935V292H167.225V286.74ZM175.783 286.7C176.47 286.7 176.996 286.873 177.363 287.22C177.73 287.56 177.913 288.067 177.913 288.74V292H177.233V291.18C177.073 291.453 176.836 291.667 176.523 291.82C176.216 291.973 175.85 292.05 175.423 292.05C174.836 292.05 174.37 291.91 174.023 291.63C173.676 291.35 173.503 290.98 173.503 290.52C173.503 290.073 173.663 289.713 173.983 289.44C174.31 289.167 174.826 289.03 175.533 289.03H177.203V288.71C177.203 288.257 177.076 287.913 176.823 287.68C176.57 287.44 176.2 287.32 175.713 287.32C175.38 287.32 175.06 287.377 174.753 287.49C174.446 287.597 174.183 287.747 173.963 287.94L173.643 287.41C173.91 287.183 174.23 287.01 174.603 286.89C174.976 286.763 175.37 286.7 175.783 286.7ZM175.533 291.49C175.933 291.49 176.276 291.4 176.563 291.22C176.85 291.033 177.063 290.767 177.203 290.42V289.56H175.553C174.653 289.56 174.203 289.873 174.203 290.5C174.203 290.807 174.32 291.05 174.553 291.23C174.786 291.403 175.113 291.49 175.533 291.49ZM197.01 292.05C196.503 292.05 196.047 291.937 195.64 291.71C195.233 291.477 194.913 291.157 194.68 290.75C194.447 290.343 194.33 289.883 194.33 289.37C194.33 288.857 194.447 288.397 194.68 287.99C194.913 287.583 195.233 287.267 195.64 287.04C196.047 286.813 196.503 286.7 197.01 286.7C197.517 286.7 197.973 286.813 198.38 287.04C198.787 287.267 199.103 287.583 199.33 287.99C199.563 288.397 199.68 288.857 199.68 289.37C199.68 289.883 199.563 290.343 199.33 290.75C199.103 291.157 198.787 291.477 198.38 291.71C197.973 291.937 197.517 292.05 197.01 292.05ZM197.01 291.42C197.383 291.42 197.717 291.337 198.01 291.17C198.31 290.997 198.543 290.753 198.71 290.44C198.877 290.127 198.96 289.77 198.96 289.37C198.96 288.97 198.877 288.613 198.71 288.3C198.543 287.987 198.31 287.747 198.01 287.58C197.717 287.407 197.383 287.32 197.01 287.32C196.637 287.32 196.3 287.407 196 287.58C195.707 287.747 195.473 287.987 195.3 288.3C195.133 288.613 195.05 288.97 195.05 289.37C195.05 289.77 195.133 290.127 195.3 290.44C195.473 290.753 195.707 290.997 196 291.17C196.3 291.337 196.637 291.42 197.01 291.42ZM203.748 286.87C204.234 286.87 204.668 286.98 205.048 287.2C205.434 287.413 205.734 287.717 205.948 288.11C206.161 288.497 206.268 288.94 206.268 289.44C206.268 289.953 206.154 290.41 205.928 290.81C205.708 291.203 205.398 291.51 204.998 291.73C204.598 291.95 204.138 292.06 203.618 292.06C202.744 292.06 202.068 291.753 201.588 291.14C201.108 290.527 200.868 289.68 200.868 288.6C200.868 287.473 201.081 286.61 201.507 286.01C201.941 285.41 202.614 285.003 203.528 284.79L205.888 284.25L206.008 284.9L203.788 285.41C203.034 285.577 202.481 285.873 202.128 286.3C201.774 286.72 201.581 287.343 201.548 288.17C201.761 287.763 202.058 287.447 202.438 287.22C202.818 286.987 203.254 286.87 203.748 286.87ZM203.638 291.47C204.004 291.47 204.331 291.387 204.618 291.22C204.911 291.047 205.138 290.807 205.298 290.5C205.464 290.193 205.548 289.847 205.548 289.46C205.548 289.073 205.468 288.733 205.308 288.44C205.148 288.147 204.921 287.92 204.628 287.76C204.341 287.593 204.011 287.51 203.638 287.51C203.264 287.51 202.931 287.593 202.638 287.76C202.351 287.92 202.124 288.147 201.958 288.44C201.798 288.733 201.718 289.073 201.718 289.46C201.718 289.847 201.798 290.193 201.958 290.5C202.124 290.807 202.354 291.047 202.648 291.22C202.941 291.387 203.271 291.47 203.638 291.47ZM210.499 286.7C210.993 286.7 211.439 286.813 211.839 287.04C212.239 287.26 212.553 287.573 212.779 287.98C213.006 288.387 213.119 288.85 213.119 289.37C213.119 289.897 213.006 290.363 212.779 290.77C212.553 291.177 212.239 291.493 211.839 291.72C211.446 291.94 210.999 292.05 210.499 292.05C210.073 292.05 209.686 291.963 209.339 291.79C208.999 291.61 208.719 291.35 208.499 291.01V293.94H207.789V286.74H208.469V287.78C208.683 287.433 208.963 287.167 209.309 286.98C209.663 286.793 210.059 286.7 210.499 286.7ZM210.449 291.42C210.816 291.42 211.149 291.337 211.449 291.17C211.749 290.997 211.983 290.753 212.149 290.44C212.323 290.127 212.409 289.77 212.409 289.37C212.409 288.97 212.323 288.617 212.149 288.31C211.983 287.997 211.749 287.753 211.449 287.58C211.149 287.407 210.816 287.32 210.449 287.32C210.076 287.32 209.739 287.407 209.439 287.58C209.146 287.753 208.913 287.997 208.739 288.31C208.573 288.617 208.489 288.97 208.489 289.37C208.489 289.77 208.573 290.127 208.739 290.44C208.913 290.753 209.146 290.997 209.439 291.17C209.739 291.337 210.076 291.42 210.449 291.42ZM216.425 286.7C217.112 286.7 217.639 286.873 218.005 287.22C218.372 287.56 218.555 288.067 218.555 288.74V292H217.875V291.18C217.715 291.453 217.479 291.667 217.165 291.82C216.859 291.973 216.492 292.05 216.065 292.05C215.479 292.05 215.012 291.91 214.665 291.63C214.319 291.35 214.145 290.98 214.145 290.52C214.145 290.073 214.305 289.713 214.625 289.44C214.952 289.167 215.469 289.03 216.175 289.03H217.845V288.71C217.845 288.257 217.719 287.913 217.465 287.68C217.212 287.44 216.842 287.32 216.355 287.32C216.022 287.32 215.702 287.377 215.395 287.49C215.089 287.597 214.825 287.747 214.605 287.94L214.285 287.41C214.552 287.183 214.872 287.01 215.245 286.89C215.619 286.763 216.012 286.7 216.425 286.7ZM216.175 291.49C216.575 291.49 216.919 291.4 217.205 291.22C217.492 291.033 217.705 290.767 217.845 290.42V289.56H216.195C215.295 289.56 214.845 289.873 214.845 290.5C214.845 290.807 214.962 291.05 215.195 291.23C215.429 291.403 215.755 291.49 216.175 291.49ZM222.996 286.87C223.482 286.87 223.916 286.98 224.296 287.2C224.682 287.413 224.982 287.717 225.196 288.11C225.409 288.497 225.516 288.94 225.516 289.44C225.516 289.953 225.402 290.41 225.176 290.81C224.956 291.203 224.646 291.51 224.246 291.73C223.846 291.95 223.386 292.06 222.866 292.06C221.992 292.06 221.316 291.753 220.836 291.14C220.356 290.527 220.116 289.68 220.116 288.6C220.116 287.473 220.329 286.61 220.756 286.01C221.189 285.41 221.862 285.003 222.776 284.79L225.136 284.25L225.256 284.9L223.036 285.41C222.282 285.577 221.729 285.873 221.376 286.3C221.022 286.72 220.829 287.343 220.796 288.17C221.009 287.763 221.306 287.447 221.686 287.22C222.066 286.987 222.502 286.87 222.996 286.87ZM222.886 291.47C223.252 291.47 223.579 291.387 223.866 291.22C224.159 291.047 224.386 290.807 224.546 290.5C224.712 290.193 224.796 289.847 224.796 289.46C224.796 289.073 224.716 288.733 224.556 288.44C224.396 288.147 224.169 287.92 223.876 287.76C223.589 287.593 223.259 287.51 222.886 287.51C222.512 287.51 222.179 287.593 221.886 287.76C221.599 287.92 221.372 288.147 221.206 288.44C221.046 288.733 220.966 289.073 220.966 289.46C220.966 289.847 221.046 290.193 221.206 290.5C221.372 290.807 221.602 291.047 221.896 291.22C222.189 291.387 222.519 291.47 222.886 291.47ZM229.207 292.05C228.701 292.05 228.244 291.937 227.837 291.71C227.431 291.477 227.111 291.157 226.877 290.75C226.644 290.343 226.527 289.883 226.527 289.37C226.527 288.857 226.644 288.397 226.877 287.99C227.111 287.583 227.431 287.267 227.837 287.04C228.244 286.813 228.701 286.7 229.207 286.7C229.714 286.7 230.171 286.813 230.577 287.04C230.984 287.267 231.301 287.583 231.527 287.99C231.761 288.397 231.877 288.857 231.877 289.37C231.877 289.883 231.761 290.343 231.527 290.75C231.301 291.157 230.984 291.477 230.577 291.71C230.171 291.937 229.714 292.05 229.207 292.05ZM229.207 291.42C229.581 291.42 229.914 291.337 230.207 291.17C230.507 290.997 230.741 290.753 230.907 290.44C231.074 290.127 231.157 289.77 231.157 289.37C231.157 288.97 231.074 288.613 230.907 288.3C230.741 287.987 230.507 287.747 230.207 287.58C229.914 287.407 229.581 287.32 229.207 287.32C228.834 287.32 228.497 287.407 228.197 287.58C227.904 287.747 227.671 287.987 227.497 288.3C227.331 288.613 227.247 288.97 227.247 289.37C227.247 289.77 227.331 290.127 227.497 290.44C227.671 290.753 227.904 290.997 228.197 291.17C228.497 291.337 228.834 291.42 229.207 291.42ZM236.899 287.37H234.909V292H234.199V287.37H232.209V286.74H236.899V287.37ZM239.836 289.66H238.636V292H237.926V286.74H238.636V289.05H239.846L241.696 286.74H242.466L240.396 289.29L242.616 292H241.776L239.836 289.66ZM247.904 286.74L245.274 292.63C245.06 293.123 244.814 293.473 244.534 293.68C244.254 293.887 243.917 293.99 243.524 293.99C243.27 293.99 243.034 293.95 242.814 293.87C242.594 293.79 242.404 293.67 242.244 293.51L242.574 292.98C242.84 293.247 243.16 293.38 243.534 293.38C243.774 293.38 243.977 293.313 244.144 293.18C244.317 293.047 244.477 292.82 244.624 292.5L244.854 291.99L242.504 286.74H243.244L245.224 291.21L247.204 286.74H247.904ZM109.73 298.74V304H109.02V299.37H105.72V304H105.01V298.74H109.73ZM116.348 301.59H111.948C111.988 302.137 112.198 302.58 112.578 302.92C112.958 303.253 113.438 303.42 114.018 303.42C114.345 303.42 114.645 303.363 114.918 303.25C115.192 303.13 115.428 302.957 115.628 302.73L116.028 303.19C115.795 303.47 115.502 303.683 115.148 303.83C114.802 303.977 114.418 304.05 113.998 304.05C113.458 304.05 112.978 303.937 112.558 303.71C112.145 303.477 111.822 303.157 111.588 302.75C111.355 302.343 111.238 301.883 111.238 301.37C111.238 300.857 111.348 300.397 111.568 299.99C111.795 299.583 112.102 299.267 112.488 299.04C112.882 298.813 113.322 298.7 113.808 298.7C114.295 298.7 114.732 298.813 115.118 299.04C115.505 299.267 115.808 299.583 116.028 299.99C116.248 300.39 116.358 300.85 116.358 301.37L116.348 301.59ZM113.808 299.31C113.302 299.31 112.875 299.473 112.528 299.8C112.188 300.12 111.995 300.54 111.948 301.06H115.678C115.632 300.54 115.435 300.12 115.088 299.8C114.748 299.473 114.322 299.31 113.808 299.31ZM120.64 298.7C121.133 298.7 121.58 298.813 121.98 299.04C122.38 299.26 122.693 299.573 122.92 299.98C123.147 300.387 123.26 300.85 123.26 301.37C123.26 301.897 123.147 302.363 122.92 302.77C122.693 303.177 122.38 303.493 121.98 303.72C121.587 303.94 121.14 304.05 120.64 304.05C120.213 304.05 119.827 303.963 119.48 303.79C119.14 303.61 118.86 303.35 118.64 303.01V305.94H117.93V298.74H118.61V299.78C118.823 299.433 119.103 299.167 119.45 298.98C119.803 298.793 120.2 298.7 120.64 298.7ZM120.59 303.42C120.957 303.42 121.29 303.337 121.59 303.17C121.89 302.997 122.123 302.753 122.29 302.44C122.463 302.127 122.55 301.77 122.55 301.37C122.55 300.97 122.463 300.617 122.29 300.31C122.123 299.997 121.89 299.753 121.59 299.58C121.29 299.407 120.957 299.32 120.59 299.32C120.217 299.32 119.88 299.407 119.58 299.58C119.287 299.753 119.053 299.997 118.88 300.31C118.713 300.617 118.63 300.97 118.63 301.37C118.63 301.77 118.713 302.127 118.88 302.44C119.053 302.753 119.287 302.997 119.58 303.17C119.88 303.337 120.217 303.42 120.59 303.42ZM126.985 304.05C126.465 304.05 125.999 303.937 125.585 303.71C125.179 303.483 124.859 303.167 124.625 302.76C124.392 302.347 124.275 301.883 124.275 301.37C124.275 300.857 124.392 300.397 124.625 299.99C124.859 299.583 125.179 299.267 125.585 299.04C125.999 298.813 126.465 298.7 126.985 298.7C127.439 298.7 127.842 298.79 128.195 298.97C128.555 299.143 128.839 299.4 129.045 299.74L128.515 300.1C128.342 299.84 128.122 299.647 127.855 299.52C127.589 299.387 127.299 299.32 126.985 299.32C126.605 299.32 126.262 299.407 125.955 299.58C125.655 299.747 125.419 299.987 125.245 300.3C125.079 300.613 124.995 300.97 124.995 301.37C124.995 301.777 125.079 302.137 125.245 302.45C125.419 302.757 125.655 302.997 125.955 303.17C126.262 303.337 126.605 303.42 126.985 303.42C127.299 303.42 127.589 303.357 127.855 303.23C128.122 303.103 128.342 302.91 128.515 302.65L129.045 303.01C128.839 303.35 128.555 303.61 128.195 303.79C127.835 303.963 127.432 304.05 126.985 304.05ZM132.502 304.05C131.996 304.05 131.539 303.937 131.132 303.71C130.726 303.477 130.406 303.157 130.172 302.75C129.939 302.343 129.822 301.883 129.822 301.37C129.822 300.857 129.939 300.397 130.172 299.99C130.406 299.583 130.726 299.267 131.132 299.04C131.539 298.813 131.996 298.7 132.502 298.7C133.009 298.7 133.466 298.813 133.872 299.04C134.279 299.267 134.596 299.583 134.822 299.99C135.056 300.397 135.172 300.857 135.172 301.37C135.172 301.883 135.056 302.343 134.822 302.75C134.596 303.157 134.279 303.477 133.872 303.71C133.466 303.937 133.009 304.05 132.502 304.05ZM132.502 303.42C132.876 303.42 133.209 303.337 133.502 303.17C133.802 302.997 134.036 302.753 134.202 302.44C134.369 302.127 134.452 301.77 134.452 301.37C134.452 300.97 134.369 300.613 134.202 300.3C134.036 299.987 133.802 299.747 133.502 299.58C133.209 299.407 132.876 299.32 132.502 299.32C132.129 299.32 131.792 299.407 131.492 299.58C131.199 299.747 130.966 299.987 130.792 300.3C130.626 300.613 130.542 300.97 130.542 301.37C130.542 301.77 130.626 302.127 130.792 302.44C130.966 302.753 131.199 302.997 131.492 303.17C131.792 303.337 132.129 303.42 132.502 303.42ZM136.69 298.74H137.4V301.07H140.71V298.74H141.42V304H140.71V301.68H137.4V304H136.69V298.74ZM145.248 298.7C145.934 298.7 146.461 298.873 146.828 299.22C147.194 299.56 147.378 300.067 147.378 300.74V304H146.698V303.18C146.538 303.453 146.301 303.667 145.988 303.82C145.681 303.973 145.314 304.05 144.888 304.05C144.301 304.05 143.834 303.91 143.488 303.63C143.141 303.35 142.968 302.98 142.968 302.52C142.968 302.073 143.128 301.713 143.448 301.44C143.774 301.167 144.291 301.03 144.998 301.03H146.668V300.71C146.668 300.257 146.541 299.913 146.288 299.68C146.034 299.44 145.664 299.32 145.178 299.32C144.844 299.32 144.524 299.377 144.218 299.49C143.911 299.597 143.648 299.747 143.428 299.94L143.108 299.41C143.374 299.183 143.694 299.01 144.068 298.89C144.441 298.763 144.834 298.7 145.248 298.7ZM144.998 303.49C145.398 303.49 145.741 303.4 146.028 303.22C146.314 303.033 146.528 302.767 146.668 302.42V301.56H145.018C144.118 301.56 143.668 301.873 143.668 302.5C143.668 302.807 143.784 303.05 144.018 303.23C144.251 303.403 144.578 303.49 144.998 303.49ZM153.568 298.74V304H152.858V299.37H150.338L150.268 300.67C150.214 301.763 150.088 302.603 149.888 303.19C149.688 303.777 149.331 304.07 148.818 304.07C148.678 304.07 148.508 304.043 148.308 303.99L148.358 303.38C148.478 303.407 148.561 303.42 148.608 303.42C148.881 303.42 149.088 303.293 149.228 303.04C149.368 302.787 149.461 302.473 149.508 302.1C149.554 301.727 149.594 301.233 149.628 300.62L149.718 298.74H153.568ZM157.846 300.6C158.506 300.607 159.006 300.753 159.346 301.04C159.693 301.327 159.866 301.74 159.866 302.28C159.866 302.84 159.68 303.27 159.306 303.57C158.94 303.87 158.406 304.017 157.706 304.01L155.586 304V298.74H156.296V300.58L157.846 300.6ZM157.666 303.47C158.153 303.477 158.52 303.38 158.766 303.18C159.02 302.973 159.146 302.673 159.146 302.28C159.146 301.893 159.023 301.607 158.776 301.42C158.53 301.233 158.16 301.137 157.666 301.13L156.296 301.11V303.45L157.666 303.47ZM161.221 298.74H161.931V301.07H165.241V298.74H165.951V304H165.241V301.68H161.931V304H161.221V298.74ZM170.179 300.6C170.839 300.607 171.342 300.753 171.689 301.04C172.036 301.327 172.209 301.74 172.209 302.28C172.209 302.84 172.022 303.27 171.649 303.57C171.276 303.87 170.742 304.017 170.049 304.01L167.969 304V298.74H168.679V300.58L170.179 300.6ZM173.089 298.74H173.799V304H173.089V298.74ZM170.009 303.47C170.496 303.477 170.862 303.38 171.109 303.18C171.362 302.973 171.489 302.673 171.489 302.28C171.489 301.893 171.366 301.607 171.119 301.42C170.872 301.233 170.502 301.137 170.009 301.13L168.679 301.11V303.45L170.009 303.47ZM179.111 304L177.441 301.8L175.761 304H174.961L177.041 301.3L175.061 298.74H175.861L177.441 300.8L179.021 298.74H179.801L177.821 301.3L179.921 304H179.111ZM188.831 303.38V305.27H188.161V304H183.451V305.27H182.781V303.38H183.081C183.435 303.36 183.675 303.1 183.801 302.6C183.928 302.1 184.015 301.4 184.061 300.5L184.131 298.74H188.011V303.38H188.831ZM184.711 300.54C184.678 301.287 184.615 301.903 184.521 302.39C184.428 302.87 184.261 303.2 184.021 303.38H187.301V299.37H184.771L184.711 300.54ZM192.025 298.7C192.712 298.7 193.238 298.873 193.605 299.22C193.972 299.56 194.155 300.067 194.155 300.74V304H193.475V303.18C193.315 303.453 193.078 303.667 192.765 303.82C192.458 303.973 192.092 304.05 191.665 304.05C191.078 304.05 190.612 303.91 190.265 303.63C189.918 303.35 189.745 302.98 189.745 302.52C189.745 302.073 189.905 301.713 190.225 301.44C190.552 301.167 191.068 301.03 191.775 301.03H193.445V300.71C193.445 300.257 193.318 299.913 193.065 299.68C192.812 299.44 192.442 299.32 191.955 299.32C191.622 299.32 191.302 299.377 190.995 299.49C190.688 299.597 190.425 299.747 190.205 299.94L189.885 299.41C190.152 299.183 190.472 299.01 190.845 298.89C191.218 298.763 191.612 298.7 192.025 298.7ZM191.775 303.49C192.175 303.49 192.518 303.4 192.805 303.22C193.092 303.033 193.305 302.767 193.445 302.42V301.56H191.795C190.895 301.56 190.445 301.873 190.445 302.5C190.445 302.807 190.562 303.05 190.795 303.23C191.028 303.403 191.355 303.49 191.775 303.49ZM196.045 298.74H196.755V301.07H200.065V298.74H200.775V304H200.065V301.68H196.755V304H196.045V298.74ZM202.793 298.74H203.503V301.07H206.813V298.74H207.523V304H206.813V301.68H203.503V304H202.793V298.74ZM211.751 300.6C212.411 300.607 212.915 300.753 213.261 301.04C213.608 301.327 213.781 301.74 213.781 302.28C213.781 302.84 213.595 303.27 213.221 303.57C212.848 303.87 212.315 304.017 211.621 304.01L209.541 304V298.74H210.251V300.58L211.751 300.6ZM214.661 298.74H215.371V304H214.661V298.74ZM211.581 303.47C212.068 303.477 212.435 303.38 212.681 303.18C212.935 302.973 213.061 302.673 213.061 302.28C213.061 301.893 212.938 301.607 212.691 301.42C212.445 301.233 212.075 301.137 211.581 301.13L210.251 301.11V303.45L211.581 303.47ZM220.683 304L219.013 301.8L217.333 304H216.533L218.613 301.3L216.633 298.74H217.433L219.013 300.8L220.593 298.74H221.373L219.393 301.3L221.493 304H220.683Z" fill="black"/>
<rect x="78" y="365" width="170" height="25" rx="10" fill="#009FE3"/>
<path d="M110.016 382.144C109.16 382.144 108.384 381.96 107.688 381.592C107 381.216 106.456 380.7 106.056 380.044C105.664 379.38 105.468 378.632 105.468 377.8C105.468 376.968 105.664 376.224 106.056 375.568C106.456 374.904 107 374.388 107.688 374.02C108.384 373.644 109.164 373.456 110.028 373.456C110.756 373.456 111.412 373.584 111.996 373.84C112.588 374.096 113.084 374.464 113.484 374.944L112.236 376.096C111.668 375.44 110.964 375.112 110.124 375.112C109.604 375.112 109.14 375.228 108.732 375.46C108.324 375.684 108.004 376 107.772 376.408C107.548 376.816 107.436 377.28 107.436 377.8C107.436 378.32 107.548 378.784 107.772 379.192C108.004 379.6 108.324 379.92 108.732 380.152C109.14 380.376 109.604 380.488 110.124 380.488C110.964 380.488 111.668 380.156 112.236 379.492L113.484 380.644C113.084 381.132 112.588 381.504 111.996 381.76C111.404 382.016 110.744 382.144 110.016 382.144ZM117.408 382.096C116.728 382.096 116.116 381.956 115.572 381.676C115.036 381.388 114.616 380.992 114.312 380.488C114.008 379.984 113.856 379.412 113.856 378.772C113.856 378.132 114.008 377.56 114.312 377.056C114.616 376.552 115.036 376.16 115.572 375.88C116.116 375.592 116.728 375.448 117.408 375.448C118.088 375.448 118.696 375.592 119.232 375.88C119.768 376.16 120.188 376.552 120.492 377.056C120.796 377.56 120.948 378.132 120.948 378.772C120.948 379.412 120.796 379.984 120.492 380.488C120.188 380.992 119.768 381.388 119.232 381.676C118.696 381.956 118.088 382.096 117.408 382.096ZM117.408 380.56C117.888 380.56 118.28 380.4 118.584 380.08C118.896 379.752 119.052 379.316 119.052 378.772C119.052 378.228 118.896 377.796 118.584 377.476C118.28 377.148 117.888 376.984 117.408 376.984C116.928 376.984 116.532 377.148 116.22 377.476C115.908 377.796 115.752 378.228 115.752 378.772C115.752 379.316 115.908 379.752 116.22 380.08C116.532 380.4 116.928 380.56 117.408 380.56ZM126.307 378.64C126.691 378.76 126.987 378.944 127.195 379.192C127.411 379.44 127.519 379.736 127.519 380.08C127.519 380.488 127.379 380.848 127.099 381.16C126.819 381.464 126.435 381.7 125.947 381.868C125.459 382.036 124.907 382.12 124.291 382.12C123.787 382.12 123.291 382.068 122.803 381.964C122.315 381.86 121.863 381.704 121.447 381.496L121.951 380.188C122.631 380.516 123.383 380.68 124.207 380.68C124.647 380.68 124.991 380.616 125.239 380.488C125.495 380.352 125.623 380.164 125.623 379.924C125.623 379.716 125.535 379.56 125.359 379.456C125.183 379.344 124.927 379.288 124.591 379.288H123.271V378.124H124.423C124.751 378.124 125.003 378.072 125.179 377.968C125.355 377.864 125.443 377.712 125.443 377.512C125.443 377.304 125.331 377.144 125.107 377.032C124.891 376.92 124.579 376.864 124.171 376.864C123.547 376.864 122.867 377.012 122.131 377.308L121.675 376.012C122.571 375.62 123.443 375.424 124.291 375.424C124.875 375.424 125.395 375.496 125.851 375.64C126.315 375.784 126.679 375.996 126.943 376.276C127.207 376.548 127.339 376.868 127.339 377.236C127.339 377.54 127.247 377.816 127.063 378.064C126.879 378.304 126.627 378.496 126.307 378.64ZM136.116 380.464V383.392H134.376V382H129.84V383.392H128.1V380.464H128.364C128.764 380.456 129.04 380.22 129.192 379.756C129.344 379.292 129.44 378.632 129.48 377.776L129.564 375.544H135.192V380.464H136.116ZM131.172 377.908C131.148 378.564 131.096 379.1 131.016 379.516C130.944 379.932 130.804 380.248 130.596 380.464H133.32V377.08H131.208L131.172 377.908ZM139.803 375.448C140.803 375.448 141.571 375.688 142.107 376.168C142.643 376.64 142.911 377.356 142.911 378.316V382H141.159V381.196C140.807 381.796 140.151 382.096 139.191 382.096C138.695 382.096 138.263 382.012 137.895 381.844C137.535 381.676 137.259 381.444 137.067 381.148C136.875 380.852 136.779 380.516 136.779 380.14C136.779 379.54 137.003 379.068 137.451 378.724C137.907 378.38 138.607 378.208 139.551 378.208H141.039C141.039 377.8 140.915 377.488 140.667 377.272C140.419 377.048 140.047 376.936 139.551 376.936C139.207 376.936 138.867 376.992 138.531 377.104C138.203 377.208 137.923 377.352 137.691 377.536L137.019 376.228C137.371 375.98 137.791 375.788 138.279 375.652C138.775 375.516 139.283 375.448 139.803 375.448ZM139.659 380.836C139.979 380.836 140.263 380.764 140.511 380.62C140.759 380.468 140.935 380.248 141.039 379.96V379.3H139.755C138.987 379.3 138.603 379.552 138.603 380.056C138.603 380.296 138.695 380.488 138.879 380.632C139.071 380.768 139.331 380.836 139.659 380.836ZM149.961 377.08H147.777V382H145.917V377.08H143.733V375.544H149.961V377.08ZM154.451 377.608C155.291 377.616 155.935 377.808 156.383 378.184C156.831 378.552 157.055 379.076 157.055 379.756C157.055 380.468 156.803 381.024 156.299 381.424C155.803 381.816 155.103 382.012 154.199 382.012L150.959 382V375.544H152.819V377.608H154.451ZM154.031 380.68C154.391 380.688 154.667 380.612 154.859 380.452C155.051 380.292 155.147 380.052 155.147 379.732C155.147 379.42 155.051 379.192 154.859 379.048C154.675 378.904 154.399 378.828 154.031 378.82L152.819 378.808V380.68H154.031ZM168.043 375.544V382H166.171V377.08H163.483V382H161.623V375.544H168.043ZM173.642 375.448C174.242 375.448 174.786 375.588 175.273 375.868C175.77 376.14 176.158 376.528 176.438 377.032C176.718 377.528 176.858 378.108 176.858 378.772C176.858 379.436 176.718 380.02 176.438 380.524C176.158 381.02 175.77 381.408 175.273 381.688C174.786 381.96 174.242 382.096 173.642 382.096C172.818 382.096 172.17 381.836 171.698 381.316V384.328H169.826V375.544H171.614V376.288C172.078 375.728 172.754 375.448 173.642 375.448ZM173.318 380.56C173.798 380.56 174.19 380.4 174.494 380.08C174.806 379.752 174.962 379.316 174.962 378.772C174.962 378.228 174.806 377.796 174.494 377.476C174.19 377.148 173.798 376.984 173.318 376.984C172.838 376.984 172.442 377.148 172.13 377.476C171.826 377.796 171.674 378.228 171.674 378.772C171.674 379.316 171.826 379.752 172.13 380.08C172.442 380.4 172.838 380.56 173.318 380.56ZM181.194 382.096C180.514 382.096 179.902 381.956 179.358 381.676C178.822 381.388 178.402 380.992 178.098 380.488C177.794 379.984 177.642 379.412 177.642 378.772C177.642 378.132 177.794 377.56 178.098 377.056C178.402 376.552 178.822 376.16 179.358 375.88C179.902 375.592 180.514 375.448 181.194 375.448C181.874 375.448 182.482 375.592 183.018 375.88C183.554 376.16 183.974 376.552 184.278 377.056C184.582 377.56 184.734 378.132 184.734 378.772C184.734 379.412 184.582 379.984 184.278 380.488C183.974 380.992 183.554 381.388 183.018 381.676C182.482 381.956 181.874 382.096 181.194 382.096ZM181.194 380.56C181.674 380.56 182.066 380.4 182.37 380.08C182.682 379.752 182.838 379.316 182.838 378.772C182.838 378.228 182.682 377.796 182.37 377.476C182.066 377.148 181.674 376.984 181.194 376.984C180.714 376.984 180.318 377.148 180.006 377.476C179.694 377.796 179.538 378.228 179.538 378.772C179.538 379.316 179.694 379.752 180.006 380.08C180.318 380.4 180.714 380.56 181.194 380.56ZM194.937 378.748C194.937 379.748 194.601 380.54 193.929 381.124C193.265 381.7 192.313 382.032 191.073 382.12V384.328H189.357V382.12C188.117 382.032 187.161 381.704 186.489 381.136C185.825 380.56 185.493 379.764 185.493 378.748C185.493 377.748 185.821 376.972 186.477 376.42C187.141 375.868 188.101 375.548 189.357 375.46V373.096H191.073V375.46C192.313 375.548 193.265 375.872 193.929 376.432C194.601 376.992 194.937 377.764 194.937 378.748ZM187.305 378.748C187.305 379.324 187.469 379.768 187.797 380.08C188.125 380.392 188.645 380.588 189.357 380.668V376.912C188.645 376.984 188.125 377.172 187.797 377.476C187.469 377.772 187.305 378.196 187.305 378.748ZM191.073 380.668C191.785 380.588 192.305 380.392 192.633 380.08C192.969 379.768 193.137 379.324 193.137 378.748C193.137 378.196 192.969 377.772 192.633 377.476C192.305 377.172 191.785 376.984 191.073 376.912V380.668ZM196.205 375.544H198.065V379.384L201.209 375.544H202.925V382H201.065V378.16L197.933 382H196.205V375.544ZM210.916 375.544V382H209.044V377.08H207.004L206.944 378.22C206.912 379.068 206.832 379.772 206.704 380.332C206.576 380.892 206.368 381.332 206.08 381.652C205.792 381.972 205.392 382.132 204.88 382.132C204.608 382.132 204.284 382.084 203.908 381.988L204.004 380.452C204.132 380.468 204.224 380.476 204.28 380.476C204.56 380.476 204.768 380.376 204.904 380.176C205.048 379.968 205.144 379.708 205.192 379.396C205.24 379.076 205.276 378.656 205.3 378.136L205.396 375.544H210.916ZM216.208 377.608C217.048 377.616 217.692 377.808 218.14 378.184C218.588 378.552 218.812 379.076 218.812 379.756C218.812 380.468 218.56 381.024 218.056 381.424C217.56 381.816 216.86 382.012 215.956 382.012L212.716 382V375.544H214.576V377.608H216.208ZM215.788 380.68C216.148 380.688 216.424 380.612 216.616 380.452C216.808 380.292 216.904 380.052 216.904 379.732C216.904 379.42 216.808 379.192 216.616 379.048C216.432 378.904 216.156 378.828 215.788 378.82L214.576 378.808V380.68H215.788Z" fill="white"/>
</g>
<defs>
<filter id="filter0_d_2_2" x="-1" y="45" width="328" height="328" filterUnits="userSpaceOnUse" color-interpolation-filters="sRGB">
<feFlood flood-opacity="0" result="BackgroundImageFix"/>
<feColorMatrix in="SourceAlpha" type="matrix" values="0 0 0 0 0 0 0 0 0 0 0 0 0 0 0 0 0 0 127 0" result="hardAlpha"/>
<feOffset dy="4"/>
<feGaussianBlur stdDeviation="2"/>
<feComposite in2="hardAlpha" operator="out"/>
<feColorMatrix type="matrix" values="0 0 0 0 0 0 0 0 0 0 0 0 0 0 0 0 0 0 0.25 0"/>
<feBlend mode="normal" in2="BackgroundImageFix" result="effect1_dropShadow_2_2"/>
<feBlend mode="normal" in="SourceGraphic" in2="effect1_dropShadow_2_2" result="shape"/>
</filter>
<clipPath id="clip0_2_2">
<rect width="325" height="410" fill="white"/>
</clipPath>
</defs>
</svg>
