<svg width="400" height="400" viewBox="0 0 1000 1000" fill="none" xmlns="http://www.w3.org/2000/svg">
<path d="M0.94315 819.438C-6.97281 683.755 31.4945 357.07 248.691 135.792C217.455 121.899 173.725 79.4976 248.691 21.0385C389.895 -61.2372 586.297 126.59 805.804 94.1124C1025.31 61.6351 930.962 250.003 708.887 432.417C486.812 614.831 1033.66 672.208 998.355 891.971C970.114 1067.78 793.609 990.124 708.887 929.32C633.151 838.022 466.915 669.068 407.867 723.63C334.056 791.832 439.316 811.319 248.691 908.751C96.1915 986.696 19.9843 881.686 0.94315 819.438Z" fill="#F7F993"/>
<rect width="437.492" height="245.712" transform="matrix(0.739055 0.673645 -0.689447 0.724336 314.138 26)" fill="#C3FFC2"/>
<path d="M310.384 49.169L613.139 325.128L471.968 473.443L169.213 197.484L310.384 49.169Z" fill="#117C00"/>
<rect width="399.045" height="155.617" rx="20" transform="matrix(0.739055 0.673645 -0.689447 0.724336 297.362 70.539)" fill="#C3FFC2"/>
<path d="M419.951 287.534C400.629 307.834 377.746 321.205 356.431 326.465C335.098 331.728 315.545 328.836 302.519 316.962C289.492 305.088 285.157 286.208 289.01 265.011C292.86 243.832 304.867 220.548 324.189 200.248C343.511 179.948 366.393 166.577 387.709 161.318C409.042 156.054 428.594 158.946 441.621 170.82C454.648 182.694 458.982 201.574 455.129 222.771C451.28 243.951 439.273 267.235 419.951 287.534Z" fill="#C9C9C9" stroke="#0A4C00" stroke-width="3"/>
<path d="M342.948 278.03L336.137 271.822L345.844 261.623L335.533 252.225C334.019 250.845 333.094 248.847 332.757 246.231L332.252 242.308C331.915 239.692 332.629 237.457 334.394 235.603L337.924 231.894L345.87 239.137L344.193 240.899C343.311 241.826 342.754 242.473 342.523 242.839C342.414 243.201 342.437 243.857 342.593 244.807C342.749 245.757 342.925 246.438 343.123 246.849C343.379 247.198 344.075 247.89 345.21 248.925L352.022 255.133L372.319 233.809L362.954 225.272C361.44 223.893 360.515 221.895 360.178 219.279L359.653 214.819C359.329 212.561 359.844 210.721 361.197 209.299L377.699 191.962C379.464 190.107 381.692 189.252 384.382 189.395L388.418 189.61C391.108 189.754 393.21 190.515 394.723 191.895L404.089 200.431L412.914 191.16L419.725 197.368L410.9 206.64L419.887 214.831C421.4 216.211 422.326 218.209 422.662 220.824L423.168 224.748C423.505 227.364 422.791 229.599 421.026 231.453L417.496 235.162L409.549 227.919L411.226 226.157C412.109 225.23 412.605 224.586 412.714 224.223C412.945 223.857 412.983 223.198 412.827 222.248C412.671 221.298 412.465 220.649 412.208 220.3C412.011 219.889 411.344 219.166 410.209 218.131L404.722 213.13L385.308 233.527L395.24 242.581C396.754 243.961 397.679 245.958 398.016 248.574L398.522 252.498C398.859 255.114 398.144 257.349 396.38 259.203L379.612 276.819C377.847 278.673 375.62 279.529 372.929 279.385L368.894 279.17C366.204 279.027 364.102 278.265 362.588 276.885L352.655 267.832L342.948 278.03ZM385.563 245.881L379.13 240.017L358.833 261.342L365.265 267.205C366.401 268.24 367.155 268.87 367.53 269.096C367.963 269.259 368.669 269.384 369.648 269.468C370.628 269.553 371.266 269.5 371.565 269.311C371.985 269.117 372.637 268.556 373.519 267.629L386.58 253.907C387.462 252.98 387.958 252.335 388.067 251.973C388.299 251.606 388.336 250.948 388.18 249.998C388.025 249.048 387.819 248.398 387.562 248.049C387.364 247.638 386.698 246.915 385.563 245.881ZM383.792 201.152L371.614 213.946C370.732 214.873 370.175 215.52 369.944 215.887C369.835 216.249 369.858 216.905 370.014 217.855C370.169 218.805 370.346 219.486 370.544 219.897C370.8 220.246 371.496 220.938 372.631 221.973L378.496 227.319L397.911 206.921L392.046 201.575C390.911 200.541 390.127 199.941 389.694 199.778C389.32 199.552 388.643 199.397 387.663 199.312C386.684 199.228 385.984 199.282 385.564 199.476C385.265 199.666 384.675 200.224 383.792 201.152Z" fill="#117C00"/>
<rect width="441.268" height="243.566" transform="matrix(0.969022 0.246974 -0.257195 0.966359 104.644 269.224)" fill="#C3FFC2"/>
<path d="M112.59 291.356L512.977 393.403L460.774 589.546L60.3867 487.5L112.59 291.356Z" fill="#117C00"/>
<rect width="402.489" height="154.258" rx="20" transform="matrix(0.969022 0.246974 -0.257195 0.966359 111.509 316.215)" fill="#C3FFC2"/>
<path d="M324.749 450.153C317.606 476.992 303.967 499.392 287.768 513.928C271.559 528.474 252.944 535.029 235.699 530.634C218.454 526.238 205.472 511.63 198.572 491.195C191.678 470.773 190.938 444.709 198.081 417.87C205.224 391.031 218.862 368.631 235.061 354.095C251.271 339.549 269.885 332.994 287.131 337.389C304.376 341.785 317.358 356.393 324.257 376.828C331.152 397.25 331.892 423.315 324.749 450.153Z" fill="#C9C9C9" stroke="#0A4C00" stroke-width="3"/>
<path d="M251.701 478.58L242.77 476.304L246.392 462.698L232.872 459.252C230.887 458.746 229.122 457.416 227.577 455.261L225.258 452.028C223.713 449.873 223.269 447.559 223.927 445.085L225.244 440.137L235.663 442.792L235.038 445.143C234.709 446.379 234.53 447.215 234.503 447.648C234.581 448.02 234.915 448.589 235.506 449.356C236.096 450.123 236.576 450.642 236.946 450.912C237.337 451.1 238.277 451.384 239.766 451.763L248.696 454.039L256.268 425.59L243.989 422.46C242.004 421.954 240.239 420.624 238.693 418.469L236.102 414.77C234.738 412.926 234.309 411.055 234.814 409.158L240.97 386.028C241.628 383.554 243.169 381.745 245.593 380.602L249.228 378.886C251.652 377.743 253.856 377.424 255.84 377.93L268.12 381.06L271.412 368.69L280.342 370.966L277.05 383.336L288.833 386.339C290.818 386.845 292.583 388.175 294.129 390.33L296.447 393.563C297.993 395.718 298.436 398.032 297.778 400.506L296.461 405.454L286.042 402.799L286.668 400.448C286.997 399.211 287.123 398.407 287.045 398.035C287.072 397.602 286.79 397.001 286.2 396.235C285.609 395.468 285.118 394.99 284.727 394.802C284.357 394.532 283.428 394.207 281.94 393.828L274.746 391.994L267.503 419.207L280.527 422.526C282.511 423.032 284.276 424.363 285.822 426.518L288.14 429.75C289.686 431.905 290.13 434.22 289.471 436.694L283.216 460.196C282.558 462.669 281.017 464.478 278.593 465.622L274.958 467.337C272.534 468.48 270.33 468.799 268.346 468.293L255.322 464.974L251.701 478.58ZM273.633 430.015L265.199 427.866L257.627 456.315L266.061 458.465C267.549 458.844 268.511 459.045 268.947 459.068C269.404 459.009 270.082 458.785 270.98 458.398C271.877 458.01 272.412 457.662 272.582 457.353C272.857 456.983 273.159 456.179 273.489 454.942L278.361 436.636C278.69 435.399 278.816 434.594 278.738 434.222C278.765 433.789 278.484 433.189 277.893 432.422C277.302 431.655 276.811 431.178 276.42 430.99C276.05 430.719 275.121 430.395 273.633 430.015ZM250.697 391.281L246.154 408.35C245.825 409.587 245.647 410.423 245.62 410.856C245.698 411.228 246.032 411.797 246.622 412.564C247.213 413.331 247.693 413.85 248.062 414.12C248.454 414.308 249.394 414.592 250.882 414.971L258.572 416.931L265.815 389.718L258.125 387.758C256.637 387.379 255.664 387.219 255.206 387.279C254.771 387.256 254.104 387.438 253.206 387.826C252.309 388.213 251.722 388.592 251.447 388.962C251.277 389.271 251.027 390.044 250.697 391.281Z" fill="#117C00"/>
<rect width="440.393" height="244.066" transform="matrix(0.92136 -0.388711 0.403167 0.915126 46.4186 623.098)" fill="#C3FFC2"/>
<path d="M66.5864 635.779L446.525 475.487L528.525 661.613L148.586 821.905L66.5864 635.779Z" fill="#117C00"/>
<rect width="401.692" height="154.575" rx="20" transform="matrix(0.92136 -0.388711 0.403167 0.915126 81.3446 656.039)" fill="#C3FFC2"/>
<path d="M333.676 633.457C344.897 658.927 348.205 684.801 344.555 706.011C340.902 727.236 330.335 743.6 313.974 750.502C297.613 757.404 278.2 753.689 259.922 741.717C241.657 729.753 224.703 709.635 213.482 684.166C202.261 658.696 198.953 632.822 202.603 611.612C206.256 590.387 216.823 574.023 233.184 567.121C249.545 560.219 268.958 563.934 287.236 575.906C305.501 587.87 322.455 607.988 333.676 633.457Z" fill="#C9C9C9" stroke="#0A4C00" stroke-width="3"/>
<path d="M293.882 699.536L285.39 703.118L279.714 690.233L266.859 695.656C264.972 696.453 262.741 696.468 260.166 695.702L256.303 694.553C253.728 693.788 251.925 692.233 250.893 689.891L248.829 685.205L258.735 681.026L259.716 683.251C260.232 684.423 260.615 685.187 260.866 685.544C261.16 685.79 261.782 686.037 262.731 686.286C263.679 686.534 264.384 686.653 264.846 686.643C265.274 686.555 266.195 686.213 267.61 685.616L276.101 682.034L264.232 655.092L252.557 660.018C250.67 660.814 248.439 660.829 245.864 660.064L241.493 658.713C239.257 658.082 237.743 656.868 236.952 655.072L227.302 633.168C226.269 630.825 226.353 628.475 227.552 626.117L229.35 622.58C230.549 620.222 232.092 618.645 233.979 617.849L245.654 612.923L240.494 601.21L248.985 597.627L254.145 609.341L265.349 604.614C267.236 603.818 269.467 603.803 272.042 604.569L275.905 605.717C278.48 606.483 280.283 608.037 281.315 610.38L283.38 615.065L273.473 619.245L272.493 617.019C271.977 615.848 271.571 615.139 271.276 614.893C271.026 614.536 270.426 614.233 269.478 613.985C268.529 613.737 267.841 613.657 267.414 613.745C266.952 613.754 266.013 614.058 264.598 614.655L257.758 617.54L269.111 643.31L281.494 638.086C283.381 637.29 285.612 637.275 288.187 638.041L292.05 639.189C294.625 639.955 296.428 641.509 297.46 643.852L307.265 666.108C308.297 668.45 308.214 670.801 307.015 673.159L305.217 676.696C304.018 679.053 302.475 680.63 300.588 681.427L288.205 686.651L293.882 699.536ZM280.743 648.127L272.723 651.51L284.593 678.451L292.612 675.068C294.027 674.471 294.914 674.05 295.273 673.806C295.597 673.484 295.993 672.901 296.46 672.056C296.926 671.21 297.13 670.615 297.071 670.27C297.057 669.813 296.791 668.999 296.275 667.827L288.637 650.491C288.121 649.32 287.716 648.611 287.421 648.365C287.17 648.008 286.571 647.705 285.623 647.457C284.674 647.209 283.986 647.129 283.559 647.216C283.097 647.226 282.158 647.53 280.743 648.127ZM238.292 631.448L245.413 647.613C245.929 648.784 246.313 649.549 246.563 649.906C246.858 650.152 247.48 650.399 248.428 650.647C249.377 650.895 250.082 651.014 250.544 651.005C250.971 650.917 251.893 650.575 253.308 649.978L260.62 646.893L249.267 621.123L241.955 624.208C240.539 624.805 239.67 625.264 239.345 625.586C238.987 625.83 238.574 626.375 238.107 627.22C237.64 628.065 237.414 628.716 237.429 629.173C237.488 629.518 237.776 630.277 238.292 631.448Z" fill="#117C00"/>
<path d="M570.776 154.948C575.704 146.05 586.502 142.021 595.94 145.558L923.947 268.516C934.897 272.62 939.707 285.181 934.352 295.686L613.5 925.021C608.591 934.65 596.933 938.908 587.106 934.663L245.154 786.918C234.536 782.33 230.317 769.72 235.98 759.496L570.776 154.948Z" fill="#003E58"/>
<path d="M218.971 745.383C214.271 765.154 234.421 780.805 245.083 786.159L250.259 756.617C244.384 759.089 223.106 740.029 223.541 728.084C223.976 725.613 223.671 725.613 218.971 745.383Z" fill="#003E58"/>
<path d="M908.303 268.337C910.577 255.674 903.565 244.25 899.775 240.121C936.972 257.341 942.983 269.489 933.887 294.489C924.412 291.048 906.029 281 908.303 268.337Z" fill="#003E58"/>
<path d="M552.607 128.354C557.536 119.461 568.33 115.435 577.764 118.969L900.132 239.748C911.086 243.852 915.897 256.418 910.536 266.925L595.273 884.832C590.364 894.455 578.711 898.712 568.887 894.47L232.79 749.356C222.166 744.769 217.946 732.152 223.614 721.925L552.607 128.354Z" fill="#009FE3"/>
<path d="M568.18 161.504C573.114 152.558 583.976 148.519 593.441 152.113L859.711 253.225C870.646 257.377 875.4 269.966 869.993 280.45L577.505 847.514C572.581 857.06 561.01 861.281 551.228 857.101L274.242 738.739C263.589 734.187 259.325 721.567 264.978 711.317L568.18 161.504Z" fill="white"/>
<path d="M645.118 175.021C646.284 172.718 649.017 171.651 651.43 172.558L796.384 227.008C799.262 228.089 800.455 231.473 798.895 234.13L788.719 251.458C787.465 253.594 784.834 254.518 782.527 253.635L639.198 198.751C636.456 197.701 635.239 194.539 636.567 191.916L645.118 175.021Z" fill="#009FE3"/>
<path d="M440.697 627.68L436.134 637.257L433.121 635.882L436.363 629.079L409.681 616.904L406.396 623.687L403.383 622.312L407.99 612.755L409.518 613.453C411.582 614.254 413.729 613.317 415.961 610.643C418.206 607.939 420.751 603.825 423.596 598.301L428.633 588.624L449.244 598.029L436.112 625.588L440.697 627.68ZM426.334 599.919C423.986 604.475 421.805 608.122 419.791 610.861C417.82 613.584 415.924 615.145 414.103 615.545L432.924 624.134L444.735 599.348L430.106 592.672L426.334 599.919ZM469.649 631.554L450.435 622.786C449.481 625.235 449.482 627.575 450.44 629.805C451.411 632.007 453.163 633.685 455.695 634.841C457.122 635.492 458.549 635.844 459.977 635.898C461.418 635.923 462.809 635.643 464.151 635.059L464.948 637.85C463.351 638.598 461.629 638.938 459.783 638.869C457.967 638.814 456.141 638.368 454.307 637.531C451.949 636.455 450.087 635.007 448.721 633.188C447.398 631.354 446.647 629.323 446.467 627.096C446.288 624.869 446.729 622.643 447.789 620.418C448.848 618.194 450.279 616.42 452.079 615.096C453.909 613.786 455.902 613.025 458.058 612.813C460.244 612.615 462.399 613 464.524 613.97C466.65 614.94 468.322 616.301 469.543 618.054C470.763 619.806 471.434 621.783 471.555 623.984C471.69 626.155 471.22 628.368 470.147 630.621L469.649 631.554ZM463.265 616.613C461.052 615.604 458.852 615.461 456.664 616.186C454.518 616.895 452.807 618.33 451.529 620.49L467.817 627.923C468.687 625.576 468.696 623.364 467.843 621.287C467.032 619.194 465.506 617.636 463.265 616.613ZM482.44 622.356L485.541 623.771L480.73 633.867L495.184 640.463L499.995 630.367L503.095 631.782L492.234 654.574L489.134 653.159L493.924 643.106L479.47 636.511L474.68 646.564L471.579 645.149L482.44 622.356ZM517.936 648.366C520.805 649.71 522.685 651.342 523.578 653.262C524.5 655.195 524.404 657.331 523.289 659.671C522.132 662.098 520.429 663.589 518.179 664.145C515.959 664.714 513.327 664.287 510.284 662.863L501.047 658.596L511.908 635.803L515.008 637.218L511.209 645.191L517.936 648.366ZM511.224 660.444C513.336 661.442 515.137 661.754 516.627 661.379C518.16 660.988 519.332 659.941 520.144 658.236C520.943 656.561 520.996 655.073 520.304 653.773C519.613 652.472 518.197 651.316 516.056 650.304L510.115 647.487L505.283 657.627L511.224 660.444ZM551.458 657.174L538.314 651.176L528.754 671.239L525.653 669.824L536.514 647.031L552.759 654.444L551.458 657.174ZM557.239 656.489L560.34 657.903L551.709 676.016L575.667 664.898L578.419 666.153L567.558 688.946L564.457 687.531L573.088 669.418L549.173 680.557L546.378 679.281L557.239 656.489ZM375.26 638.291L364.399 661.084L361.299 659.669L370.859 639.606L356.448 633.031L346.888 653.093L343.788 651.679L354.649 628.886L375.26 638.291ZM382.585 669.646C380.373 668.637 378.613 667.236 377.305 665.443C376.011 663.622 375.274 661.598 375.095 659.37C374.916 657.143 375.356 654.918 376.416 652.693C377.476 650.469 378.935 648.708 380.794 647.411C382.652 646.114 384.704 645.379 386.948 645.207C389.191 645.035 391.42 645.454 393.632 646.464C395.845 647.474 397.605 648.875 398.913 650.667C400.22 652.46 400.949 654.463 401.1 656.677C401.279 658.904 400.838 661.13 399.778 663.354C398.719 665.578 397.259 667.339 395.401 668.636C393.571 669.947 391.528 670.702 389.27 670.903C387.026 671.075 384.798 670.656 382.585 669.646ZM383.886 666.917C385.516 667.661 387.144 667.964 388.769 667.826C390.437 667.673 391.959 667.083 393.333 666.058C394.708 665.032 395.808 663.653 396.634 661.919C397.46 660.186 397.833 658.474 397.752 656.785C397.671 655.095 397.148 653.59 396.182 652.27C395.259 650.934 393.982 649.894 392.352 649.151C390.722 648.407 389.073 648.111 387.405 648.265C385.779 648.402 384.265 648.977 382.861 649.99C381.486 651.015 380.386 652.395 379.56 654.128C378.734 655.861 378.362 657.573 378.442 659.263C378.552 660.966 379.069 662.485 379.992 663.821C380.958 665.141 382.256 666.173 383.886 666.917ZM430.485 663.492L419.624 686.284L416.523 684.869L426.083 664.807L415.079 659.785L412.089 665.279C409.599 669.91 407.311 673.298 405.226 675.441C403.142 677.585 400.978 678.145 398.737 677.122C398.125 676.843 397.438 676.389 396.675 675.759L398.153 673.216C398.622 673.57 398.958 673.794 399.162 673.887C400.355 674.432 401.52 674.295 402.654 673.476C403.788 672.657 404.843 671.486 405.818 669.961C406.792 668.436 407.986 666.378 409.398 663.787L413.672 655.82L430.485 663.492ZM458.818 676.421L435.172 696.702C433.222 698.415 431.422 699.44 429.772 699.778C428.123 700.115 426.439 699.892 424.722 699.108C423.615 698.604 422.664 697.959 421.869 697.174C421.073 696.389 420.492 695.49 420.123 694.478L422.659 692.839C423.272 694.526 424.395 695.741 426.025 696.485C427.073 696.963 428.098 697.08 429.102 696.834C430.134 696.602 431.301 695.938 432.602 694.844L434.659 693.092L435.237 665.66L438.469 667.135L437.885 690.45L455.762 675.026L458.818 676.421ZM480.985 686.536L470.124 709.328L467.024 707.914L471.546 698.424C468.346 698.371 465.465 697.759 462.903 696.59C460.137 695.328 458.279 693.724 457.328 691.778C456.391 689.803 456.521 687.559 457.719 685.045L461.291 677.549L464.391 678.964L460.902 686.287C460.089 687.991 460.023 689.544 460.703 690.944C461.396 692.315 462.718 693.446 464.668 694.336C466.823 695.319 469.507 695.859 472.723 695.954L477.885 685.121L480.985 686.536ZM503.993 712.07L484.779 703.302C483.825 705.75 483.826 708.09 484.784 710.32C485.755 712.522 487.507 714.201 490.039 715.356C491.466 716.007 492.893 716.36 494.321 716.413C495.762 716.438 497.153 716.158 498.495 715.575L499.292 718.365C497.695 719.113 495.973 719.453 494.127 719.385C492.311 719.33 490.485 718.883 488.651 718.047C486.293 716.97 484.431 715.523 483.065 713.704C481.742 711.869 480.991 709.838 480.812 707.611C480.632 705.384 481.073 703.158 482.133 700.934C483.193 698.709 484.623 696.935 486.423 695.612C488.253 694.301 490.246 693.54 492.402 693.328C494.588 693.13 496.743 693.516 498.868 694.485C500.994 695.455 502.666 696.816 503.887 698.569C505.107 700.322 505.778 702.298 505.899 704.499C506.034 706.671 505.564 708.883 504.491 711.136L503.993 712.07ZM497.609 697.129C495.396 696.119 493.196 695.977 491.008 696.701C488.862 697.41 487.151 698.845 485.873 701.005L502.161 708.438C503.031 706.092 503.04 703.88 502.187 701.802C501.376 699.709 499.851 698.152 497.609 697.129ZM516.784 702.872L519.885 704.287L515.074 714.383L529.528 720.979L534.339 710.882L537.439 712.297L526.579 735.09L523.478 733.675L528.268 723.622L513.814 717.026L509.024 727.079L505.923 725.664L516.784 702.872ZM552.062 728.782C554.93 730.126 556.826 731.765 557.747 733.697C558.669 735.63 558.573 737.767 557.458 740.107C556.302 742.533 554.599 744.025 552.349 744.581C550.099 745.137 547.467 744.71 544.453 743.299L535.391 739.111L546.252 716.318L549.352 717.733L545.553 725.706L552.062 728.782ZM568.61 726.521L571.711 727.936L560.85 750.728L557.749 749.313L568.61 726.521ZM545.394 740.879C547.505 741.878 549.306 742.19 550.796 741.815C552.329 741.424 553.502 740.376 554.314 738.672C555.112 736.997 555.165 735.509 554.474 734.208C553.782 732.908 552.366 731.752 550.225 730.74L544.459 728.003L539.627 738.143L545.394 740.879ZM594.992 729.38L598.661 731.054L587.888 751.988L585.486 750.892L594.992 729.38ZM582.269 760.766C581.629 760.474 581.179 760.005 580.92 759.359C580.703 758.698 580.74 758.064 581.029 757.457C581.332 756.821 581.798 756.401 582.427 756.196C583.07 755.962 583.727 755.998 584.396 756.303C585.037 756.595 585.472 757.058 585.702 757.69C585.946 758.294 585.917 758.914 585.614 759.549C585.325 760.156 584.852 760.591 584.195 760.854C583.552 761.088 582.91 761.059 582.269 760.766Z" fill="#002C81"/>
<path d="M520.1 379.993L500.828 420.436L496.636 418.523L514.146 381.777L504.539 377.394L506.301 373.696L520.1 379.993ZM526.65 432.641C523.506 431.206 521.087 429.094 519.392 426.304C517.735 423.532 516.943 420.286 517.014 416.567C517.142 412.828 518.206 408.858 520.207 404.66C522.207 400.462 524.621 397.132 527.448 394.67C530.332 392.188 533.391 390.677 536.626 390.136C539.9 389.614 543.108 390.07 546.252 391.505C549.397 392.939 551.797 395.043 553.453 397.815C555.148 400.605 555.951 403.878 555.862 407.636C555.791 411.355 554.755 415.314 552.754 419.512C550.754 423.71 548.311 427.051 545.427 429.533C542.562 431.977 539.492 433.46 536.219 433.983C532.984 434.523 529.795 434.076 526.65 432.641ZM528.467 428.828C530.835 429.908 533.224 430.201 535.634 429.706C538.082 429.229 540.407 427.969 542.609 425.926C544.812 423.883 546.757 421.09 548.446 417.546C550.134 414.002 551.07 410.749 551.254 407.784C551.438 404.82 550.93 402.267 549.729 400.125C548.568 398.001 546.803 396.398 544.435 395.318C542.068 394.237 539.66 393.936 537.211 394.413C534.802 394.908 532.496 396.176 530.293 398.22C528.091 400.263 526.146 403.056 524.457 406.6C522.769 410.143 521.832 413.397 521.649 416.361C521.465 419.325 521.954 421.87 523.115 423.994C524.316 426.136 526.1 427.747 528.467 428.828ZM565.201 450.233C562.057 448.798 559.638 446.686 557.943 443.896C556.286 441.124 555.494 437.878 555.565 434.159C555.693 430.419 556.757 426.45 558.758 422.252C560.758 418.053 563.172 414.723 565.999 412.262C568.883 409.78 571.942 408.268 575.177 407.728C578.451 407.205 581.659 407.661 584.803 409.096C587.948 410.531 590.348 412.634 592.004 415.406C593.699 418.196 594.502 421.47 594.413 425.228C594.342 428.947 593.306 432.905 591.305 437.104C589.305 441.302 586.862 444.642 583.978 447.125C581.113 449.568 578.043 451.052 574.77 451.574C571.535 452.114 568.345 451.667 565.201 450.233ZM567.018 446.419C569.386 447.5 571.775 447.793 574.184 447.298C576.633 446.821 578.958 445.561 581.16 443.518C583.363 441.475 585.308 438.681 586.997 435.138C588.685 431.594 589.621 428.34 589.805 425.376C589.989 422.412 589.481 419.859 588.28 417.717C587.119 415.592 585.354 413.99 582.986 412.909C580.619 411.829 578.21 411.527 575.762 412.004C573.353 412.499 571.047 413.768 568.844 415.811C566.642 417.854 564.697 420.648 563.008 424.191C561.32 427.735 560.383 430.989 560.2 433.953C560.016 436.917 560.505 439.461 561.666 441.586C562.867 443.728 564.651 445.339 567.018 446.419ZM603.752 467.824C600.608 466.389 598.189 464.277 596.494 461.487C594.837 458.715 594.045 455.47 594.116 451.751C594.244 448.011 595.308 444.042 597.309 439.843C599.309 435.645 601.723 432.315 604.55 429.853C607.434 427.371 610.493 425.86 613.728 425.32C617.001 424.797 620.21 425.253 623.354 426.688C626.499 428.122 628.899 430.226 630.555 432.998C632.25 435.788 633.053 439.062 632.964 442.819C632.893 446.538 631.857 450.497 629.856 454.695C627.856 458.894 625.413 462.234 622.529 464.716C619.664 467.16 616.594 468.643 613.32 469.166C610.086 469.706 606.896 469.259 603.752 467.824ZM605.569 464.011C607.937 465.091 610.326 465.384 612.735 464.889C615.184 464.412 617.509 463.152 619.711 461.109C621.914 459.066 623.859 456.273 625.548 452.729C627.236 449.186 628.172 445.932 628.356 442.968C628.54 440.003 628.032 437.45 626.831 435.308C625.67 433.184 623.905 431.581 621.537 430.501C619.17 429.42 616.761 429.119 614.313 429.596C611.903 430.091 609.598 431.36 607.395 433.403C605.193 435.446 603.248 438.239 601.559 441.783C599.871 445.326 598.934 448.58 598.751 451.544C598.567 454.508 599.056 457.053 600.217 459.177C601.418 461.319 603.202 462.93 605.569 464.011ZM679.599 452.775C684.8 455.149 688.288 458.241 690.064 462.052C691.839 465.864 691.699 469.926 689.643 474.24C687.588 478.554 684.498 481.27 680.373 482.389C676.267 483.47 671.613 482.823 666.411 480.45L655.465 475.455L649.381 488.223L645.072 486.257L664.344 445.814L679.599 452.775ZM668.084 476.641C672.121 478.483 675.62 479.025 678.581 478.266C681.56 477.468 683.811 475.471 685.335 472.274C686.895 469 687.021 466.009 685.712 463.302C684.421 460.556 681.757 458.262 677.72 456.42L666.891 451.478L657.255 471.699L668.084 476.641Z" fill="#002C81"/>
<ellipse cx="663.922" cy="318.95" rx="71.8027" ry="70.2648" fill="#002C81"/>
<path d="M629.825 301.094L632.467 341.632C632.701 345.225 636.563 347.366 639.772 345.681L714.477 306.464" stroke="white" stroke-width="15"/>
</svg>
