<svg width="250" height="250" viewBox="0 0 250 250" fill="none" xmlns="http://www.w3.org/2000/svg">
<g clip-path="url(#clip0_1_2)">
<g filter="url(#filter0_d_1_2)">
<circle cx="125" cy="125" r="110" fill="#419CF5"/>
</g>
<g filter="url(#filter1_d_1_2)">
<path d="M83.256 159.96C77.944 159.96 73.144 158.616 68.856 155.928C64.632 153.24 61.304 149.336 58.872 144.216C56.44 139.032 55.224 132.76 55.224 125.4C55.224 118.04 56.44 111.8 58.872 106.68C61.304 101.496 64.632 97.56 68.856 94.872C73.144 92.184 77.944 90.84 83.256 90.84C88.632 90.84 93.432 92.184 97.656 94.872C101.88 97.56 105.208 101.496 107.64 106.68C110.136 111.8 111.384 118.04 111.384 125.4C111.384 132.76 110.136 139.032 107.64 144.216C105.208 149.336 101.88 153.24 97.656 155.928C93.432 158.616 88.632 159.96 83.256 159.96ZM83.256 149.112C86.392 149.112 89.112 148.28 91.416 146.616C93.72 144.888 95.512 142.264 96.792 138.744C98.136 135.224 98.808 130.776 98.808 125.4C98.808 119.96 98.136 115.512 96.792 112.056C95.512 108.536 93.72 105.944 91.416 104.28C89.112 102.552 86.392 101.688 83.256 101.688C80.248 101.688 77.56 102.552 75.192 104.28C72.888 105.944 71.064 108.536 69.72 112.056C68.44 115.512 67.8 119.96 67.8 125.4C67.8 130.776 68.44 135.224 69.72 138.744C71.064 142.264 72.888 144.888 75.192 146.616C77.56 148.28 80.248 149.112 83.256 149.112ZM129.226 159L175.114 91.8H184.522L138.634 159H129.226ZM134.794 127.992C131.658 127.992 128.874 127.224 126.442 125.688C124.01 124.152 122.122 122.008 120.778 119.256C119.434 116.504 118.762 113.272 118.762 109.56C118.762 105.848 119.434 102.616 120.778 99.864C122.122 97.112 124.01 94.968 126.442 93.432C128.874 91.896 131.658 91.128 134.794 91.128C138.058 91.128 140.874 91.896 143.242 93.432C145.674 94.968 147.562 97.112 148.906 99.864C150.25 102.616 150.922 105.848 150.922 109.56C150.922 113.272 150.25 116.504 148.906 119.256C147.562 122.008 145.674 124.152 143.242 125.688C140.874 127.224 138.058 127.992 134.794 127.992ZM134.89 121.272C137.45 121.272 139.434 120.28 140.842 118.296C142.314 116.248 143.05 113.336 143.05 109.56C143.05 105.784 142.314 102.904 140.842 100.92C139.434 98.872 137.45 97.848 134.89 97.848C132.33 97.848 130.282 98.872 128.746 100.92C127.274 102.968 126.538 105.848 126.538 109.56C126.538 113.272 127.274 116.152 128.746 118.2C130.282 120.248 132.33 121.272 134.89 121.272ZM178.858 159.672C175.722 159.672 172.938 158.904 170.506 157.368C168.074 155.832 166.186 153.688 164.842 150.936C163.498 148.184 162.826 144.952 162.826 141.24C162.826 137.528 163.498 134.296 164.842 131.544C166.186 128.792 168.074 126.648 170.506 125.112C172.938 123.576 175.722 122.808 178.858 122.808C182.122 122.808 184.938 123.576 187.306 125.112C189.738 126.648 191.626 128.792 192.97 131.544C194.314 134.296 194.986 137.528 194.986 141.24C194.986 144.952 194.314 148.184 192.97 150.936C191.626 153.688 189.738 155.832 187.306 157.368C184.938 158.904 182.122 159.672 178.858 159.672ZM178.858 152.952C181.418 152.952 183.434 151.928 184.906 149.88C186.378 147.832 187.114 144.952 187.114 141.24C187.114 137.528 186.378 134.648 184.906 132.6C183.434 130.552 181.418 129.528 178.858 129.528C176.362 129.528 174.346 130.552 172.81 132.6C171.338 134.584 170.602 137.464 170.602 141.24C170.602 145.016 171.338 147.928 172.81 149.976C174.346 151.96 176.362 152.952 178.858 152.952Z" fill="white"/>
</g>
</g>
<defs>
<filter id="filter0_d_1_2" x="0" y="0" width="250" height="250" filterUnits="userSpaceOnUse" color-interpolation-filters="sRGB">
<feFlood flood-opacity="0" result="BackgroundImageFix"/>
<feColorMatrix in="SourceAlpha" type="matrix" values="0 0 0 0 0 0 0 0 0 0 0 0 0 0 0 0 0 0 127 0" result="hardAlpha"/>
<feOffset/>
<feGaussianBlur stdDeviation="7.5"/>
<feComposite in2="hardAlpha" operator="out"/>
<feColorMatrix type="matrix" values="0 0 0 0 0.658824 0 0 0 0 0.831373 0 0 0 0 1 0 0 0 1 0"/>
<feBlend mode="normal" in2="BackgroundImageFix" result="effect1_dropShadow_1_2"/>
<feBlend mode="normal" in="SourceGraphic" in2="effect1_dropShadow_1_2" result="shape"/>
</filter>
<filter id="filter1_d_1_2" x="50.224" y="90.84" width="149.762" height="79.12" filterUnits="userSpaceOnUse" color-interpolation-filters="sRGB">
<feFlood flood-opacity="0" result="BackgroundImageFix"/>
<feColorMatrix in="SourceAlpha" type="matrix" values="0 0 0 0 0 0 0 0 0 0 0 0 0 0 0 0 0 0 127 0" result="hardAlpha"/>
<feOffset dy="5"/>
<feGaussianBlur stdDeviation="2.5"/>
<feComposite in2="hardAlpha" operator="out"/>
<feColorMatrix type="matrix" values="0 0 0 0 0.658824 0 0 0 0 0.831373 0 0 0 0 1 0 0 0 1 0"/>
<feBlend mode="normal" in2="BackgroundImageFix" result="effect1_dropShadow_1_2"/>
<feBlend mode="normal" in="SourceGraphic" in2="effect1_dropShadow_1_2" result="shape"/>
</filter>
<clipPath id="clip0_1_2">
<rect width="250" height="250" fill="white"/>
</clipPath>
</defs>
</svg>
